<?xml version="1.0" encoding="UTF-8"?>
<svg xmlns="http://www.w3.org/2000/svg" width="85"
height="100" stroke="#000" fill="none">
    <g id="logo1" transform="scale(0.2, 0.2)">
        <path stroke="#00A82A" fill="#4F71FF" stroke-width="26" d="M209,15a195,195 0 1,0 2,0z"/>
        <path stroke="#00A82A" stroke-width="18" d="m210,15v390m195-195H15M59,90a260,260 0 0,0 302,0 m0,240 a260,260 0 0,0-302,0M195,20a250,250 0 0,0 0,382 m30,0 a250,250 0 0,0 0-382"/>
    </g>
    <g id="logo2" transform="scale(2.5, 2.5) translate(12, 18)">
        <path stroke="none" fill="none" d="M0 0h24v24H0V0z"/>
        <path stroke="none" fill="#0F0F0F" d="M16.01 7L16 4c0-.55-.45-1-1-1s-1 .45-1 1v3h-4V4c0-.55-.45-1-1-1s-1 .45-1 1v3h-.01C6.9 7 6 7.9 6 8.99v4.66c0 .53.21 1.04.58 1.41L9.5 18v2c0 .55.45 1 1 1h3c.55 0 1-.45 1-1v-2l2.92-2.92c.37-.38.58-.89.58-1.42V8.99C18 7.89 17.11 7 16.01 7z"/>
    </g>
</svg>