<svg xmlns="http://www.w3.org/2000/svg" width="75" height="85" viewBox="0 0 75 85">
    <g id="logo1" transform="scale(3, 3) translate(0.5,0)">
    <path fill="none" d="M0 0h24v24H0V0z"/><path d="M19.35 10.04C18.67 6.59 15.64 4 12 4 9.11 4 6.6 5.64 5.35 8.04 2.34 8.36 0 10.91 0 14c0 3.31 2.69 6 6 6h13c2.76 0 5-2.24 5-5 0-2.64-2.05-4.78-4.65-4.96zM19 18H6c-2.21 0-4-1.79-4-4s1.79-4 4-4h.71C7.37 7.69 9.48 6 12 6c3.04 0 5.5 2.46 5.5 5.5v.5H19c1.66 0 3 1.34 3 3s-1.34 3-3 3z"/>
    </g>
    <g id="logo2" transform="scale(2, 2) translate(10.75, 15)">
    <path fill="none" d="M0 0h24v24H0V0z"/>
    <path fill="#4F71FF" d="M16.01 7L16 4c0-.55-.45-1-1-1s-1 .45-1 1v3h-4V4c0-.55-.45-1-1-1s-1 .45-1 1v3h-.01C6.9 7 6 7.9 6 8.99v4.66c0 .53.21 1.04.58 1.41L9.5 18v2c0 .55.45 1 1 1h3c.55 0 1-.45 1-1v-2l2.92-2.92c.37-.38.58-.89.58-1.42V8.99C18 7.89 17.11 7 16.01 7z"/>
    </g>
</svg>