<?xml version="1.0" encoding="UTF-8" standalone="no"?>
<!DOCTYPE svg PUBLIC "-//W3C//DTD SVG 1.1//EN"
 "http://www.w3.org/Graphics/SVG/1.1/DTD/svg11.dtd">
<!-- Generated by graphviz version 2.43.0 (0)
 -->
<!-- Title: detector_controllers_and_parts Pages: 1 -->
<svg width="529pt" height="169pt"
 viewBox="0.00 0.00 529.00 169.00" xmlns="http://www.w3.org/2000/svg" xmlns:xlink="http://www.w3.org/1999/xlink">
<g id="graph0" class="graph" transform="scale(1 1) rotate(0) translate(4 165)">
<title>detector_controllers_and_parts</title>
<g id="clust1" class="cluster">
<title>cluster_control</title>
<polygon fill="transparent" stroke="black" points="8,-8 8,-153 208,-153 208,-8 8,-8"/>
<text text-anchor="middle" x="108" y="-15.2" font-family="Arial" font-size="11.00">Control</text>
</g>
<g id="clust2" class="cluster">
<title>cluster_view</title>
<polygon fill="transparent" stroke="black" points="216,-8 216,-153 513,-153 513,-8 216,-8"/>
<text text-anchor="middle" x="364.5" y="-15.2" font-family="Arial" font-size="11.00">View</text>
</g>
<!-- controller -->
<g id="node1" class="node">
<title>controller</title>
<polygon fill="#8bc4e9" stroke="black" points="200,-145 100,-145 100,-109 200,-109 200,-145"/>
<text text-anchor="start" x="108" y="-130" font-family="Arial" font-size="10.00">RunnableController</text>
<text text-anchor="start" x="110" y="-119" font-family="Arial" font-size="10.00">mri: &#39;DETECTOR&#39;</text>
</g>
<!-- detpart -->
<g id="node2" class="node">
<title>detpart</title>
<polygon fill="#8bc4e9" stroke="black" points="89.5,-72 16.5,-72 16.5,-36 89.5,-36 89.5,-72"/>
<text text-anchor="start" x="24.5" y="-57" font-family="Arial" font-size="10.00">FileWritePart</text>
<text text-anchor="start" x="27.5" y="-46" font-family="Arial" font-size="10.00">name: &#39;FW&#39;</text>
</g>
<!-- controller&#45;&gt;detpart -->
<g id="edge1" class="edge">
<title>controller&#45;&gt;detpart</title>
<path fill="none" stroke="black" d="M126.52,-108.81C111.27,-97.65 91.47,-83.16 76.26,-72.03"/>
</g>
<!-- dspart -->
<g id="node3" class="node">
<title>dspart</title>
<polygon fill="#8bc4e9" stroke="black" points="200,-72 108,-72 108,-36 200,-36 200,-72"/>
<text text-anchor="start" x="116" y="-57" font-family="Arial" font-size="10.00">DatasetTablePart</text>
<text text-anchor="start" x="123" y="-46" font-family="Arial" font-size="10.00">name: &#39;DSET&#39;</text>
</g>
<!-- controller&#45;&gt;dspart -->
<g id="edge2" class="edge">
<title>controller&#45;&gt;dspart</title>
<path fill="none" stroke="black" d="M150.97,-108.81C151.6,-97.65 152.41,-83.16 153.04,-72.03"/>
</g>
<!-- block -->
<g id="node4" class="node">
<title>block</title>
<polygon fill="#8bc4e9" stroke="black" points="384,-145 288,-145 288,-109 384,-109 384,-145"/>
<text text-anchor="start" x="323.5" y="-130" font-family="Arial" font-size="10.00">Block</text>
<text text-anchor="start" x="296" y="-119" font-family="Arial" font-size="10.00">mri: &#39;DETECTOR&#39;</text>
</g>
<!-- controller&#45;&gt;block -->
<g id="edge9" class="edge">
<title>controller&#45;&gt;block</title>
<path fill="none" stroke="black" stroke-dasharray="5,2" d="M200.33,-127C224.26,-127 252.99,-127 277.84,-127"/>
<polygon fill="black" stroke="black" points="287.87,-127 277.87,-131.5 282.87,-127 277.87,-127 277.87,-127 277.87,-127 282.87,-127 277.87,-122.5 287.87,-127 287.87,-127"/>
<text text-anchor="middle" x="244" y="-133" font-family="Arial" font-size="10.00">produces</text>
</g>
<!-- configure -->
<g id="node6" class="node">
<title>configure</title>
<polygon fill="#8bc4e9" stroke="black" points="315.5,-72 224.5,-72 224.5,-36 315.5,-36 315.5,-72"/>
<text text-anchor="start" x="253.5" y="-57" font-family="Arial" font-size="10.00">Method</text>
<text text-anchor="start" x="232.5" y="-46" font-family="Arial" font-size="10.00">name: &#39;configure&#39;</text>
</g>
<!-- controller&#45;&gt;configure -->
<g id="edge7" class="edge">
<title>controller&#45;&gt;configure</title>
<path fill="none" stroke="black" stroke-dasharray="5,2" d="M178.74,-108.99C197.6,-97.83 222.18,-83.29 241.08,-72.11"/>
</g>
<!-- run -->
<g id="node7" class="node">
<title>run</title>
<polygon fill="#8bc4e9" stroke="black" points="398.5,-72 333.5,-72 333.5,-36 398.5,-36 398.5,-72"/>
<text text-anchor="start" x="349.5" y="-57" font-family="Arial" font-size="10.00">Method</text>
<text text-anchor="start" x="341.5" y="-46" font-family="Arial" font-size="10.00">name: &#39;run&#39;</text>
</g>
<!-- controller&#45;&gt;run -->
<g id="edge8" class="edge">
<title>controller&#45;&gt;run</title>
<path fill="none" stroke="black" stroke-dasharray="5,2" d="M200.2,-111.87C235.41,-101.63 283.43,-87 325,-72 327.75,-71.01 330.59,-69.93 333.43,-68.83"/>
</g>
<!-- datasets -->
<g id="node5" class="node">
<title>datasets</title>
<polygon fill="#8bc4e9" stroke="black" points="505.5,-72 416.5,-72 416.5,-36 505.5,-36 505.5,-72"/>
<text text-anchor="start" x="442.5" y="-57" font-family="Arial" font-size="10.00">Attribute</text>
<text text-anchor="start" x="424.5" y="-46" font-family="Arial" font-size="10.00">name: &#39;datasets&#39;</text>
</g>
<!-- dspart&#45;&gt;datasets -->
<g id="edge6" class="edge">
<title>dspart&#45;&gt;datasets</title>
<path fill="none" stroke="black" stroke-dasharray="5,2" d="M180.1,-72.18C192,-79.39 206.62,-86.84 221,-90.5 297.66,-110.03 322.67,-111.3 399,-90.5 412.5,-86.82 426.05,-79.38 437.03,-72.16"/>
</g>
<!-- block&#45;&gt;datasets -->
<g id="edge3" class="edge">
<title>block&#45;&gt;datasets</title>
<path fill="none" stroke="black" d="M365.94,-108.99C385.59,-97.83 411.19,-83.29 430.87,-72.11"/>
</g>
<!-- block&#45;&gt;configure -->
<g id="edge4" class="edge">
<title>block&#45;&gt;configure</title>
<path fill="none" stroke="black" d="M320.02,-108.81C309.65,-97.65 296.18,-83.16 285.83,-72.03"/>
</g>
<!-- block&#45;&gt;run -->
<g id="edge5" class="edge">
<title>block&#45;&gt;run</title>
<path fill="none" stroke="black" d="M343.26,-108.81C347.98,-97.65 354.1,-83.16 358.8,-72.03"/>
</g>
</g>
</svg>
