<?xml version="1.0" encoding="UTF-8" standalone="no"?>
<!DOCTYPE svg PUBLIC "-//W3C//DTD SVG 1.1//EN"
 "http://www.w3.org/Graphics/SVG/1.1/DTD/svg11.dtd">
<!-- Generated by graphviz version 2.43.0 (0)
 -->
<!-- Title: simDetector_child_connections Pages: 1 -->
<svg width="519pt" height="415pt"
 viewBox="0.00 0.00 519.00 415.00" xmlns="http://www.w3.org/2000/svg" xmlns:xlink="http://www.w3.org/1999/xlink">
<g id="graph0" class="graph" transform="scale(1 1) rotate(0) translate(4 411)">
<title>simDetector_child_connections</title>
<g id="clust1" class="cluster">
<title>cluster_device</title>
<polygon fill="lightgrey" stroke="lightgrey" points="8,-185 8,-399 481,-399 481,-185 8,-185"/>
<text text-anchor="middle" x="244.5" y="-387" font-family="Arial" font-size="10.00">Device Layer</text>
</g>
<g id="clust2" class="cluster">
<title>cluster_detector</title>
<polygon fill="white" stroke="white" points="16,-193 16,-372 473,-372 473,-193 16,-193"/>
<text text-anchor="middle" x="244.5" y="-360" font-family="Arial" font-size="10.00">DETECTOR</text>
</g>
<g id="clust4" class="cluster">
<title>cluster_hardware</title>
<polygon fill="lightgrey" stroke="lightgrey" points="31,-8 31,-168 503,-168 503,-8 31,-8"/>
<text text-anchor="middle" x="267" y="-156" font-family="Arial" font-size="10.00">Hardware Layer</text>
</g>
<g id="clust5" class="cluster">
<title>cluster_drv</title>
<polygon fill="white" stroke="white" points="39,-16 39,-141 147,-141 147,-16 39,-16"/>
<text text-anchor="middle" x="93" y="-129" font-family="Arial" font-size="10.00">DETECTOR:DRV</text>
</g>
<g id="clust6" class="cluster">
<title>cluster_pos</title>
<polygon fill="white" stroke="white" points="155,-16 155,-141 263,-141 263,-16 155,-16"/>
<text text-anchor="middle" x="209" y="-129" font-family="Arial" font-size="10.00">DETECTOR:POS</text>
</g>
<g id="clust7" class="cluster">
<title>cluster_stat</title>
<polygon fill="white" stroke="white" points="271,-16 271,-141 379,-141 379,-16 271,-16"/>
<text text-anchor="middle" x="325" y="-129" font-family="Arial" font-size="10.00">DETECTOR:STAT</text>
</g>
<g id="clust8" class="cluster">
<title>cluster_hdf</title>
<polygon fill="white" stroke="white" points="387,-16 387,-141 495,-141 495,-16 387,-16"/>
<text text-anchor="middle" x="441" y="-129" font-family="Arial" font-size="10.00">DETECTOR:HDF</text>
</g>
<!-- detector_c -->
<g id="node1" class="node">
<title>detector_c</title>
<polygon fill="#8bc4e9" stroke="black" points="298,-345 198,-345 198,-309 298,-309 298,-345"/>
<text text-anchor="middle" x="248" y="-324.5" font-family="Arial" font-size="10.00">RunnableController</text>
</g>
<!-- DRV -->
<g id="node2" class="node">
<title>DRV</title>
<polygon fill="#8bc4e9" stroke="black" points="140,-291 24,-291 24,-255 140,-255 140,-291"/>
<text text-anchor="start" x="32" y="-276" font-family="Arial" font-size="10.00">SimDetectorDriverPart</text>
<text text-anchor="start" x="54" y="-265" font-family="Arial" font-size="10.00">name: &#39;DRV&#39;</text>
</g>
<!-- detector_c&#45;&gt;DRV -->
<!-- HDF -->
<g id="node5" class="node">
<title>HDF</title>
<polygon fill="#8bc4e9" stroke="black" points="464.5,-291 383.5,-291 383.5,-255 464.5,-255 464.5,-291"/>
<text text-anchor="start" x="391.5" y="-276" font-family="Arial" font-size="10.00">HDFWriterPart</text>
<text text-anchor="start" x="396" y="-265" font-family="Arial" font-size="10.00">name: &#39;HDF&#39;</text>
</g>
<!-- detector_c&#45;&gt;HDF -->
<!-- POS -->
<g id="node3" class="node">
<title>POS</title>
<polygon fill="#8bc4e9" stroke="black" points="262,-291 158,-291 158,-255 262,-255 262,-291"/>
<text text-anchor="start" x="166" y="-276" font-family="Arial" font-size="10.00">PositionLabellerPart</text>
<text text-anchor="start" x="182" y="-265" font-family="Arial" font-size="10.00">name: &#39;POS&#39;</text>
</g>
<!-- DRV&#45;&gt;POS -->
<g id="edge4" class="edge">
<title>DRV&#45;&gt;POS</title>
<path fill="none" stroke="black" d="M140,-273C142.5,-273 145,-273 147.5,-273"/>
<polygon fill="black" stroke="black" points="157.77,-273 147.77,-277.5 152.77,-273 147.77,-273 147.77,-273 147.77,-273 152.77,-273 147.77,-268.5 157.77,-273 157.77,-273"/>
</g>
<!-- DSET -->
<g id="node6" class="node">
<title>DSET</title>
<polygon fill="#8bc4e9" stroke="black" points="116,-237 24,-237 24,-201 116,-201 116,-237"/>
<text text-anchor="start" x="32" y="-222" font-family="Arial" font-size="10.00">DatasetTablePart</text>
<text text-anchor="start" x="39" y="-211" font-family="Arial" font-size="10.00">name: &#39;DSET&#39;</text>
</g>
<!-- DRV&#45;&gt;DSET -->
<!-- drv_c -->
<g id="node7" class="node">
<title>drv_c</title>
<polygon fill="#8bc4e9" stroke="black" points="139,-114 47,-114 47,-78 139,-78 139,-114"/>
<text text-anchor="middle" x="93" y="-93.5" font-family="Arial" font-size="10.00">StatefulController</text>
</g>
<!-- DRV&#45;&gt;drv_c -->
<g id="edge11" class="edge">
<title>DRV&#45;&gt;drv_c</title>
<path fill="none" stroke="black" stroke-dasharray="5,2" d="M110.34,-254.98C116.25,-249.98 121.69,-243.95 125,-237 137.91,-209.84 131.55,-177.2 121.22,-150.27"/>
<polygon fill="black" stroke="black" points="117.42,-141 125.38,-148.55 119.32,-145.62 121.21,-150.25 121.21,-150.25 121.21,-150.25 119.32,-145.62 117.05,-151.96 117.42,-141 117.42,-141"/>
</g>
<!-- STAT -->
<g id="node4" class="node">
<title>STAT</title>
<polygon fill="#8bc4e9" stroke="black" points="365.5,-291 280.5,-291 280.5,-255 365.5,-255 365.5,-291"/>
<text text-anchor="start" x="288.5" y="-276" font-family="Arial" font-size="10.00">StatsPluginPart</text>
<text text-anchor="start" x="293.5" y="-265" font-family="Arial" font-size="10.00">name: &#39;STAT&#39;</text>
</g>
<!-- POS&#45;&gt;STAT -->
<g id="edge5" class="edge">
<title>POS&#45;&gt;STAT</title>
<path fill="none" stroke="black" d="M262.09,-273C264.72,-273 267.36,-273 270,-273"/>
<polygon fill="black" stroke="black" points="280.17,-273 270.17,-277.5 275.17,-273 270.17,-273 270.17,-273 270.17,-273 275.17,-273 270.17,-268.5 280.17,-273 280.17,-273"/>
</g>
<!-- pos_c -->
<g id="node9" class="node">
<title>pos_c</title>
<polygon fill="#8bc4e9" stroke="black" points="255,-114 163,-114 163,-78 255,-78 255,-114"/>
<text text-anchor="middle" x="209" y="-93.5" font-family="Arial" font-size="10.00">StatefulController</text>
</g>
<!-- POS&#45;&gt;pos_c -->
<g id="edge12" class="edge">
<title>POS&#45;&gt;pos_c</title>
<path fill="none" stroke="black" stroke-dasharray="5,2" d="M209.9,-254.9C209.77,-231.09 209.51,-186.86 209.31,-151.26"/>
<polygon fill="black" stroke="black" points="209.25,-141 213.81,-150.97 209.28,-146 209.31,-151 209.31,-151 209.31,-151 209.28,-146 204.81,-151.02 209.25,-141 209.25,-141"/>
</g>
<!-- STAT&#45;&gt;HDF -->
<g id="edge6" class="edge">
<title>STAT&#45;&gt;HDF</title>
<path fill="none" stroke="black" d="M365.61,-273C368.2,-273 370.8,-273 373.39,-273"/>
<polygon fill="black" stroke="black" points="383.4,-273 373.4,-277.5 378.4,-273 373.4,-273 373.4,-273 373.4,-273 378.4,-273 373.4,-268.5 383.4,-273 383.4,-273"/>
</g>
<!-- stat_c -->
<g id="node11" class="node">
<title>stat_c</title>
<polygon fill="#8bc4e9" stroke="black" points="371,-114 279,-114 279,-78 371,-78 371,-114"/>
<text text-anchor="middle" x="325" y="-93.5" font-family="Arial" font-size="10.00">StatefulController</text>
</g>
<!-- STAT&#45;&gt;stat_c -->
<g id="edge13" class="edge">
<title>STAT&#45;&gt;stat_c</title>
<path fill="none" stroke="black" stroke-dasharray="5,2" d="M323.2,-254.9C323.47,-231.09 323.97,-186.86 324.38,-151.26"/>
<polygon fill="black" stroke="black" points="324.5,-141 328.88,-151.05 324.44,-146 324.38,-151 324.38,-151 324.38,-151 324.44,-146 319.88,-150.95 324.5,-141 324.5,-141"/>
</g>
<!-- hdf_c -->
<g id="node13" class="node">
<title>hdf_c</title>
<polygon fill="#8bc4e9" stroke="black" points="487,-114 395,-114 395,-78 487,-78 487,-114"/>
<text text-anchor="middle" x="441" y="-93.5" font-family="Arial" font-size="10.00">StatefulController</text>
</g>
<!-- HDF&#45;&gt;hdf_c -->
<g id="edge14" class="edge">
<title>HDF&#45;&gt;hdf_c</title>
<path fill="none" stroke="black" stroke-dasharray="5,2" d="M425.66,-254.9C427.97,-231.09 432.27,-186.86 435.73,-151.26"/>
<polygon fill="black" stroke="black" points="436.73,-141 440.24,-151.39 436.24,-145.97 435.76,-150.95 435.76,-150.95 435.76,-150.95 436.24,-145.97 431.28,-150.52 436.73,-141 436.73,-141"/>
</g>
<!-- drv_p -->
<g id="node8" class="node">
<title>drv_p</title>
<polygon fill="#8bc4e9" stroke="black" points="120,-60 66,-60 66,-24 120,-24 120,-60"/>
<text text-anchor="middle" x="93" y="-39.5" font-family="Arial" font-size="10.00">CAParts</text>
</g>
<!-- drv_c&#45;&gt;drv_p -->
<!-- pos_p -->
<g id="node10" class="node">
<title>pos_p</title>
<polygon fill="#8bc4e9" stroke="black" points="236,-60 182,-60 182,-24 236,-24 236,-60"/>
<text text-anchor="middle" x="209" y="-39.5" font-family="Arial" font-size="10.00">CAParts</text>
</g>
<!-- pos_c&#45;&gt;pos_p -->
<!-- stat_p -->
<g id="node12" class="node">
<title>stat_p</title>
<polygon fill="#8bc4e9" stroke="black" points="352,-60 298,-60 298,-24 352,-24 352,-60"/>
<text text-anchor="middle" x="325" y="-39.5" font-family="Arial" font-size="10.00">CAParts</text>
</g>
<!-- stat_c&#45;&gt;stat_p -->
<!-- hdf_p -->
<g id="node14" class="node">
<title>hdf_p</title>
<polygon fill="#8bc4e9" stroke="black" points="468,-60 414,-60 414,-24 468,-24 468,-60"/>
<text text-anchor="middle" x="441" y="-39.5" font-family="Arial" font-size="10.00">CAParts</text>
</g>
<!-- hdf_c&#45;&gt;hdf_p -->
</g>
</svg>
