<?xml version="1.0" encoding="UTF-8" standalone="no"?>
<!DOCTYPE svg PUBLIC "-//W3C//DTD SVG 1.1//EN"
 "http://www.w3.org/Graphics/SVG/1.1/DTD/svg11.dtd">
<!-- Generated by graphviz version 2.43.0 (0)
 -->
<!-- Title: %3 Pages: 1 -->
<svg width="415pt" height="206pt"
 viewBox="0.00 0.00 415.00 206.00" xmlns="http://www.w3.org/2000/svg" xmlns:xlink="http://www.w3.org/1999/xlink">
<g id="graph0" class="graph" transform="scale(1 1) rotate(0) translate(4 202)">
<title>%3</title>
<text text-anchor="middle" x="203.5" y="-32.2" font-family="Arial" font-size="11.00">Unlabelled transitions take place in response to internal actions</text>
<text text-anchor="middle" x="203.5" y="-7.2" font-family="Arial" font-size="11.00"> &#160;&#160;&#160;&#160;&#160;&#160;&#160;&#160;&#160;&#160;Labelled transitions are triggered externally.</text>
<g id="clust1" class="cluster">
<title>cluster_normal</title>
<polygon fill="transparent" stroke="black" points="118,-138 118,-190 321.5,-190 321.5,-138 118,-138"/>
</g>
<!-- Fault -->
<g id="node1" class="node">
<title>Fault</title>
<polygon fill="#f03232" stroke="black" points="54,-97 0,-97 0,-61 54,-61 54,-97"/>
<text text-anchor="middle" x="27" y="-76.5" font-family="Arial" font-size="10.00">Fault</text>
</g>
<!-- Resetting -->
<g id="node4" class="node">
<title>Resetting</title>
<polygon fill="#8bc4e9" stroke="black" points="185,-182 126,-182 126,-146 185,-146 185,-182"/>
<text text-anchor="middle" x="155.5" y="-161.5" font-family="Arial" font-size="10.00">Resetting</text>
</g>
<!-- Fault&#45;&gt;Resetting -->
<g id="edge4" class="edge">
<title>Fault&#45;&gt;Resetting</title>
<path fill="none" stroke="black" d="M39.14,-97.14C47.06,-108.76 58.65,-123.4 72,-133 85.12,-142.43 101.46,-149.36 116.13,-154.24"/>
<polygon fill="black" stroke="black" points="125.95,-157.3 115.07,-158.62 121.18,-155.81 116.41,-154.33 116.41,-154.33 116.41,-154.33 121.18,-155.81 117.74,-150.03 125.95,-157.3 125.95,-157.3"/>
<text text-anchor="middle" x="90" y="-153" font-family="Arial" font-size="10.00">reset()</text>
</g>
<!-- Disabling -->
<g id="node5" class="node">
<title>Disabling</title>
<polygon fill="#8bc4e9" stroke="black" points="315,-81 258,-81 258,-45 315,-45 315,-81"/>
<text text-anchor="middle" x="286.5" y="-60.5" font-family="Arial" font-size="10.00">Disabling</text>
</g>
<!-- Fault&#45;&gt;Disabling -->
<g id="edge5" class="edge">
<title>Fault&#45;&gt;Disabling</title>
<path fill="none" stroke="black" d="M54.11,-77.38C99.9,-74.53 194.84,-68.63 247.77,-65.34"/>
<polygon fill="black" stroke="black" points="257.77,-64.72 248.07,-69.83 252.78,-65.03 247.79,-65.34 247.79,-65.34 247.79,-65.34 252.78,-65.03 247.51,-60.85 257.77,-64.72 257.77,-64.72"/>
<text text-anchor="middle" x="155.5" y="-77" font-family="Arial" font-size="10.00">disable()</text>
</g>
<!-- Disabled -->
<g id="node2" class="node">
<title>Disabled</title>
<polygon fill="#aaaaaa" stroke="black" points="407,-108 352,-108 352,-72 407,-72 407,-108"/>
<text text-anchor="middle" x="379.5" y="-87.5" font-family="Arial" font-size="10.00">Disabled</text>
</g>
<!-- Disabled&#45;&gt;Resetting -->
<g id="edge8" class="edge">
<title>Disabled&#45;&gt;Resetting</title>
<path fill="none" stroke="black" d="M351.53,-97.49C327,-104.44 289.87,-115.29 258,-126 236.89,-133.1 213.6,-141.75 194.66,-149.01"/>
<polygon fill="black" stroke="black" points="185.19,-152.67 192.9,-144.87 189.85,-150.87 194.52,-149.07 194.52,-149.07 194.52,-149.07 189.85,-150.87 196.14,-153.27 185.19,-152.67 185.19,-152.67"/>
<text text-anchor="middle" x="286.5" y="-129" font-family="Arial" font-size="10.00">reset()</text>
</g>
<!-- Ready -->
<g id="node3" class="node">
<title>Ready</title>
<polygon fill="#bbe7bb" stroke="black" points="313.5,-182 259.5,-182 259.5,-146 313.5,-146 313.5,-182"/>
<text text-anchor="middle" x="286.5" y="-161.5" font-family="Arial" font-size="10.00">Ready</text>
</g>
<!-- Resetting&#45;&gt;Fault -->
<g id="edge3" class="edge">
<title>Resetting&#45;&gt;Fault</title>
<path fill="none" stroke="black" d="M127.92,-138C121.63,-132.42 114.77,-126.77 108,-122 94.04,-112.16 77.58,-102.96 63.23,-95.6"/>
<polygon fill="black" stroke="black" points="54.15,-91.05 65.11,-91.51 58.62,-93.29 63.09,-95.53 63.09,-95.53 63.09,-95.53 58.62,-93.29 61.07,-99.56 54.15,-91.05 54.15,-91.05"/>
<text text-anchor="middle" x="90" y="-125" font-family="Arial" font-size="10.00">on_error</text>
</g>
<!-- Resetting&#45;&gt;Ready -->
<g id="edge1" class="edge">
<title>Resetting&#45;&gt;Ready</title>
<path fill="none" stroke="black" d="M185.13,-164C203.97,-164 228.79,-164 249.03,-164"/>
<polygon fill="black" stroke="black" points="259.15,-164 249.15,-168.5 254.15,-164 249.15,-164 249.15,-164 249.15,-164 254.15,-164 249.15,-159.5 259.15,-164 259.15,-164"/>
</g>
<!-- Resetting&#45;&gt;Disabling -->
<g id="edge2" class="edge">
<title>Resetting&#45;&gt;Disabling</title>
<path fill="none" stroke="black" d="M169.75,-138C177.82,-124.3 189.22,-108.09 203,-97 216.17,-86.41 233.1,-78.67 248.19,-73.27"/>
<polygon fill="black" stroke="black" points="257.78,-70.06 249.73,-77.5 253.04,-71.65 248.3,-73.23 248.3,-73.23 248.3,-73.23 253.04,-71.65 246.87,-68.97 257.78,-70.06 257.78,-70.06"/>
<text text-anchor="middle" x="221.5" y="-100" font-family="Arial" font-size="10.00">disable()</text>
</g>
<!-- Disabling&#45;&gt;Fault -->
<g id="edge6" class="edge">
<title>Disabling&#45;&gt;Fault</title>
<path fill="none" stroke="black" d="M257.81,-58.68C224.49,-54.17 166.93,-48.59 118,-55 99.81,-57.38 80.07,-62.37 63.72,-67.18"/>
<polygon fill="black" stroke="black" points="54.02,-70.13 62.28,-62.91 58.81,-68.67 63.59,-67.22 63.59,-67.22 63.59,-67.22 58.81,-68.67 64.9,-71.52 54.02,-70.13 54.02,-70.13"/>
<text text-anchor="middle" x="155.5" y="-58" font-family="Arial" font-size="10.00">on_error</text>
</g>
<!-- Disabling&#45;&gt;Disabled -->
<g id="edge7" class="edge">
<title>Disabling&#45;&gt;Disabled</title>
<path fill="none" stroke="black" d="M315.3,-71.25C323.73,-73.75 333.12,-76.54 342.03,-79.18"/>
<polygon fill="black" stroke="black" points="351.81,-82.08 340.94,-83.55 347.01,-80.66 342.22,-79.24 342.22,-79.24 342.22,-79.24 347.01,-80.66 343.5,-74.92 351.81,-82.08 351.81,-82.08"/>
</g>
</g>
</svg>
