<svg width="80" height="50" version="1.1" xmlns="http://www.w3.org/2000/svg">
 <g transform="translate(-4 -42) scale(.125)">
  <path d="m442.83 395.36-14.062 42.25h183.75l14.031-42.25h-183.72zm-20.969 75.75-14.062 42.219h127.56l14.062-42.219h-127.56zm-27.281 73.531-14.062 42.25h183.75l14.062-42.25h-183.75z" fill="#de013e"/>
  <path d="m162.14 389.77c-48.745-0.13357-97.164 37.246-119.19 102.81-9.6405 28.984-10.708 54.761-3 72.062 7.9356 17.309 24.557 26.429 51.688 26.5 19.627 0.055 41.393-6.3408 53.312-11l34.562-103.91-55.344-0.15625-11.594 34.844 22.937 0.0625-13.844 41.562c-3.1271 1.4614-9.6919 2.6095-17.188 2.5938-27.57-0.0786-39.101-23.83-25.469-64.812 14.213-42.734 42.615-63.766 70.625-63.688 16.319 0.0393 25.08 3.6046 31.594 8.5938l19.031-36c-5.822-4.4156-18.938-9.4138-38.125-9.4688zm213.28 0.5625c-48.745-0.12571-97.156 37.246-119.19 102.81-9.6327 28.984-10.708 54.754-3 72.062 7.9277 17.309 24.534 26.429 51.656 26.5 19.635 0.0629 41.417-6.3174 53.344-10.969l34.562-103.91-55.375-0.15625-11.594 34.844 22.969 0.0312-13.844 41.594c-3.1349 1.4535-9.6841 2.5782-17.188 2.5625-27.562-0.0707-39.101-23.838-25.469-64.812 14.213-42.734 42.615-63.735 70.625-63.656 16.319 0.0471 25.088 3.5654 31.594 8.5625l19.031-35.969c-5.8142-4.4078-18.938-9.445-38.125-9.5zm-141.41 1.6875-13.125 39.438h33.562l13.094-39.344-33.531-0.0937zm-21.156 63.562-44.469 133.72 33.531 0.0937 44.5-133.81h-33.562z" fill="#1a1818"/>
  <path d="m441.33 612.58c-19.218 0-20.489 11.289-21 26.438v8.4688c0 15.855 1.2711 27.438 21 27.438 19.721 0 21.031-11.582 21.031-27.438v-8.4688c-0.51856-15.148-1.813-26.438-21.031-26.438zm-189.47 0.0312c-12.697 0-18.844 5.5363-18.844 15.688 0 3.1742 1.0904 6.43 3.0625 9.125 4.8949 5.9478 12.707 9.1931 18.969 13.719 3.0878 1.98 4.7812 4.3552 4.7812 7.8438 0 4.5178-2.3776 7-7.4375 7-5.9163 0-7.8218-4.2094-7.5625-10v-3.5h-12v4.375c0 10.623 5.1528 18.094 19.562 18.094 11.746 0 19.812-5.8893 19.812-17.156 0-5.1542-1.2892-8.7054-5.4062-12.438-3.3471-3.0171-10.65-7.4479-14.594-9.75-3.7714-2.2235-6.8438-3.9822-6.8438-8.5 0-4.0464 2.5631-5.5312 6.5938-5.5312 6.6077 0 7.1177 5.2199 7.0312 10.531h11.594c-0.0864-5.8692 0.41304-19.5-18.719-19.5zm-207.91 1.4062 14.25 59.5h16.031l13.906-59.5h-12.875l-6.7812 38.156c-0.69142 3.3314-1.123 6.7385-1.4688 10.156-0.17285 1.5793-0.5 3.2406-0.5 4.9062h-0.15625c0-1.6657-0.3584-3.327-0.53125-4.9062-0.34571-3.4178-0.78519-6.8249-1.4688-10.156l-7.5312-38.156h-12.875zm109.28 0v59.5h12v-59.5h-12zm186.47 0v59.5h12v-59.5h-12zm191.09 0v59.5h12v-11.188c0-4.7613-0.24804-10.708-0.59375-16.656-0.34571-6.0342-0.84912-12.05-1.2812-16.969h0.15625c2.8285 9.3577 5.4195 16.577 8.5938 23.625l9.3438 21.188h12.5v-59.5h-12v11.656c0 5.3113 0.27929 11.038 0.625 16.75 0.33785 5.712 0.75537 11.485 1.1875 16.875h-0.1875c-2.915-9.672-5.4668-16.727-8.5625-23.625l-9.3438-21.656h-12.438zm-89.469 7.5312c8.9177 0 8.6875 10.551 8.6875 15.312v15.219c0 5.712-0.10766 13.875-8.6875 13.875-8.242 0-8.6562-7.9878-8.6562-12.906v-16.5c0-4.5963-0.78-15 8.6562-15z" fill="#5a5b5e"/>
  <path d="m647.69 408.49h1.9171c2.1842 0 4.0306-0.79356 4.0306-2.8442 0-1.4535-1.0607-2.9071-4.0306-2.9071-0.85641 0-1.4535 0.0629-1.9171 0.13357v5.6178zm0 9.1848h-2.64v-16.586c1.3828-0.20428 2.7028-0.40071 4.6906-0.40071 2.5064 0 4.1642 0.52642 5.1542 1.2571 0.98998 0.72284 1.5164 1.8542 1.5164 3.4335 0 2.1842-1.4535 3.5042-3.2292 4.0385v0.13357c1.4457 0.25928 2.4435 1.5793 2.7735 4.0306 0.39285 2.5771 0.79356 3.5671 1.0607 4.0935h-2.7814c-0.40071-0.52641-0.79356-2.0428-1.1236-4.2271-0.40071-2.1135-1.4535-2.9071-3.5749-2.9071h-1.8464v7.1342zm2.7814-21.214c-6.5449 0-11.903 5.6178-11.903 12.555 0 7.0713 5.3585 12.626 11.966 12.626 6.6077 0.0707 11.895-5.5549 11.895-12.555 0-7.0084-5.2878-12.626-11.895-12.626h-0.0629zm0.0629-2.3178c8.132 0 14.606 6.6077 14.606 14.873 0 8.3991-6.4742 14.944-14.669 14.944-8.132 0-14.748-6.5449-14.748-14.944 0-8.2656 6.6156-14.873 14.748-14.873h0.0629" fill="#231f20"/>
 </g>
</svg>
