<?xml version="1.0" encoding="UTF-8" standalone="no"?>
<svg xmlns:svg="http://www.w3.org/2000/svg" xmlns="http://www.w3.org/2000/svg" version="1.1" width="80" height="50" id="svg3339">
  <defs id="defs3341"/>
  <g transform="translate(-4, -45) scale(0.125, 0.125)" id="layer1">
    <path d="m 442.82709,395.36239 -14.0625,42.25 183.75,0 14.03125,-42.25 -183.71875,0 z m -20.96875,75.75 -14.0625,42.21875 127.5625,0 14.0625,-42.21875 -127.5625,0 z m -27.28125,73.53125 -14.0625,42.25 183.75,0 14.0625,-42.25 -183.75,0 z" id="path108" style="fill:#de013e;fill-opacity:1;fill-rule:nonzero;stroke:none"/>
    <path d="m 162.13958,389.76863 c -48.74479,-0.13357 -97.164333,37.24587 -119.187493,102.81251 -9.64053,28.98446 -10.70771,54.7614 -3,72.0625 7.93557,17.30896 24.55729,26.42929 51.6875,26.5 19.626783,0.055 41.393443,-6.3408 53.312493,-11 l 34.5625,-103.90626 -55.34374,-0.15625 -11.59375,34.84376 22.93749,0.0625 -13.84374,41.5625 c -3.12708,1.4614 -9.69193,2.60946 -17.1875,2.59375 -27.570203,-0.0786 -39.100643,-23.83041 -25.468753,-64.8125 14.21331,-42.73421 42.614813,-63.76608 70.624993,-63.68751 16.31898,0.0393 25.0803,3.60456 31.59375,8.59375 l 19.03125,-36 c -5.82203,-4.41563 -18.93821,-9.41375 -38.125,-9.46875 z m 213.28125,0.5625 c -48.7448,-0.12571 -97.15648,37.24587 -119.1875,102.81251 -9.63267,28.98446 -10.70771,54.75354 -3,72.0625 7.92771,17.30896 24.5339,26.42929 51.65625,26.5 19.63463,0.0629 41.41683,-6.31741 53.34375,-10.96875 l 34.5625,-103.90626 -55.375,-0.15625 -11.59375,34.84376 22.96875,0.0312 -13.84375,41.59375 c -3.13494,1.45354 -9.68407,2.57821 -17.1875,2.5625 -27.56234,-0.0707 -39.10063,-23.83827 -25.46875,-64.8125 14.21331,-42.73421 42.61481,-63.73483 70.625,-63.65626 16.31898,0.0471 25.08816,3.56545 31.59375,8.5625 l 19.03125,-35.96875 c -5.81418,-4.40777 -18.93822,-9.445 -38.125,-9.5 z m -141.40625,1.6875 -13.125,39.4375 33.5625,0 13.09375,-39.34375 -33.53125,-0.0937 z m -21.15625,63.5625 -44.46875,133.71876 33.53125,0.0937 44.5,-133.81251 -33.5625,0 z" id="path128" style="fill:#1a1818;fill-opacity:1;fill-rule:nonzero;stroke:none"/>
    <path d="m 441.32708,612.58114 c -19.21821,0 -20.4893,11.28921 -21,26.4375 l 0,8.46875 c 0,15.85542 1.27108,27.4375 21,27.4375 19.72106,0 21.03125,-11.58208 21.03125,-27.4375 l 0,-8.46875 c -0.51856,-15.14829 -1.81304,-26.4375 -21.03125,-26.4375 z m -189.46875,0.0312 c -12.6969,0 -18.84375,5.53626 -18.84375,15.6875 0,3.17423 1.0904,6.43005 3.0625,9.125 4.89491,5.94775 12.70673,9.19312 18.96875,13.71875 3.0878,1.97996 4.78125,4.35524 4.78125,7.84375 0,4.51777 -2.37759,7 -7.4375,7 -5.91632,0 -7.82178,-4.20939 -7.5625,-10 l 0,-3.5 -12,0 0,4.375 c 0,10.62266 5.15277,18.09375 19.5625,18.09375 11.74621,0 19.8125,-5.88932 19.8125,-17.15625 0,-5.15419 -1.28918,-8.70543 -5.40625,-12.4375 -3.34708,-3.01709 -10.64954,-7.4479 -14.59375,-9.75 -3.77136,-2.22353 -6.84375,-3.98223 -6.84375,-8.5 0,-4.04635 2.56311,-5.53125 6.59375,-5.53125 6.60773,0 7.11768,5.21992 7.03125,10.53125 l 11.59375,0 c -0.0864,-5.86918 0.41304,-19.5 -18.71875,-19.5 z m -207.906244,1.40625 14.25,59.5 16.03125,0 13.90625,-59.5 -12.875,0 -6.78125,38.15625 c -0.69142,3.33137 -1.12304,6.73846 -1.46875,10.15625 -0.17285,1.57926 -0.5,3.24057 -0.5,4.90625 l -0.15625,0 c 0,-1.66568 -0.3584,-3.32699 -0.53125,-4.90625 -0.34571,-3.41779 -0.78519,-6.82488 -1.46875,-10.15625 l -7.53125,-38.15625 -12.875,0 z m 109.281244,0 0,59.5 12,0 0,-59.5 -12,0 z m 186.46875,0 0,59.5 12,0 0,-59.5 -12,0 z m 191.09375,0 0,59.5 12,0 0,-11.1875 c 0,-4.76134 -0.24804,-10.7085 -0.59375,-16.65625 -0.34571,-6.03417 -0.84912,-12.05027 -1.28125,-16.96875 l 0.15625,0 c 2.82852,9.35768 5.41952,16.57727 8.59375,23.625 l 9.34375,21.1875 12.5,0 0,-59.5 -12,0 0,11.65625 c 0,5.31133 0.27929,11.03796 0.625,16.75 0.33785,5.71204 0.75537,11.4851 1.1875,16.875 l -0.1875,0 c -2.91495,-9.67196 -5.46684,-16.72656 -8.5625,-23.625 l -9.34375,-21.65625 -12.4375,0 z m -89.46875,7.53125 c 8.91769,0 8.6875,10.55116 8.6875,15.3125 l 0,15.21875 c 0,5.71204 -0.10766,13.875 -8.6875,13.875 -8.24199,0 -8.65625,-7.98777 -8.65625,-12.90625 l 0,-16.5 c 0,-4.59634 -0.78,-15 8.65625,-15 z" id="path144" style="fill:#5a5b5e;fill-opacity:1;fill-rule:nonzero;stroke:none"/>
    <path d="m 647.69242,408.49455 1.91711,0 c 2.18425,0 4.03064,-0.79356 4.03064,-2.84424 0,-1.45354 -1.06069,-2.90708 -4.03064,-2.90708 -0.85641,0 -1.45354,0.0629 -1.91711,0.13357 l 0,5.61775 z m 0,9.18482 -2.63995,0 0,-16.58611 c 1.38283,-0.20428 2.70281,-0.40071 4.69063,-0.40071 2.50638,0 4.16421,0.52642 5.15419,1.25712 0.98998,0.72284 1.5164,1.85425 1.5164,3.43351 0,2.18424 -1.45354,3.50422 -3.22923,4.03849 l 0,0.13357 c 1.44569,0.25928 2.44353,1.57926 2.77352,4.03064 0.39285,2.57709 0.79356,3.56708 1.0607,4.09349 l -2.78138,0 c -0.40071,-0.52641 -0.79356,-2.04281 -1.12355,-4.22706 -0.40071,-2.11353 -1.45354,-2.90709 -3.57493,-2.90709 l -1.8464,0 0,7.13415 z m 2.78138,-21.21388 c -6.54488,0 -11.90335,5.61775 -11.90335,12.55548 0,7.07129 5.35847,12.62619 11.96621,12.62619 6.60773,0.0707 11.89549,-5.5549 11.89549,-12.55548 0,-7.00844 -5.28776,-12.62619 -11.89549,-12.62619 l -0.0629,0 z m 0.0629,-2.31782 c 8.13199,0 14.60615,6.60774 14.60615,14.8733 0,8.39912 -6.47416,14.944 -14.66901,14.944 -8.13199,0 -14.74758,-6.54488 -14.74758,-14.944 0,-8.26556 6.61559,-14.8733 14.74758,-14.8733 l 0.0629,0" id="path164" style="fill:#231f20;fill-opacity:1;fill-rule:nonzero;stroke:none"/>
  </g>
</svg>