<?xml version="1.0" encoding="UTF-8" standalone="no"?>
<!DOCTYPE svg PUBLIC "-//W3C//DTD SVG 1.1//EN"
 "http://www.w3.org/Graphics/SVG/1.1/DTD/svg11.dtd">
<!-- Generated by graphviz version 2.43.0 (0)
 -->
<!-- Title: counter_controllers_and_parts Pages: 1 -->
<svg width="626pt" height="169pt"
 viewBox="0.00 0.00 626.00 169.00" xmlns="http://www.w3.org/2000/svg" xmlns:xlink="http://www.w3.org/1999/xlink">
<g id="graph0" class="graph" transform="scale(1 1) rotate(0) translate(4 165)">
<title>counter_controllers_and_parts</title>
<g id="clust1" class="cluster">
<title>cluster_control</title>
<polygon fill="transparent" stroke="black" points="8,-8 8,-153 116,-153 116,-8 8,-8"/>
<text text-anchor="middle" x="62" y="-140.2" font-family="Arial" font-size="11.00">Control</text>
</g>
<g id="clust2" class="cluster">
<title>cluster_view</title>
<polygon fill="transparent" stroke="black" points="124,-8 124,-153 610,-153 610,-8 124,-8"/>
<text text-anchor="middle" x="367" y="-140.2" font-family="Arial" font-size="11.00">View</text>
</g>
<!-- controller -->
<g id="node1" class="node">
<title>controller</title>
<polygon fill="#8bc4e9" stroke="black" points="107.5,-125 16.5,-125 16.5,-89 107.5,-89 107.5,-125"/>
<text text-anchor="start" x="28.5" y="-110" font-family="Arial" font-size="10.00">BasicController</text>
<text text-anchor="start" x="24.5" y="-99" font-family="Arial" font-size="10.00">mri: &#39;COUNTER&#39;</text>
</g>
<!-- cpart -->
<g id="node2" class="node">
<title>cpart</title>
<polygon fill="#8bc4e9" stroke="black" points="107.5,-52 24.5,-52 24.5,-16 107.5,-16 107.5,-52"/>
<text text-anchor="start" x="39.5" y="-37" font-family="Arial" font-size="10.00">CounterPart</text>
<text text-anchor="start" x="32.5" y="-26" font-family="Arial" font-size="10.00">name: &#39;counter&#39;</text>
</g>
<!-- controller&#45;&gt;cpart -->
<g id="edge1" class="edge">
<title>controller&#45;&gt;cpart</title>
<path fill="none" stroke="black" d="M62.97,-88.81C63.6,-77.65 64.41,-63.16 65.04,-52.03"/>
</g>
<!-- block -->
<g id="node3" class="node">
<title>block</title>
<polygon fill="#8bc4e9" stroke="black" points="358.5,-125 267.5,-125 267.5,-89 358.5,-89 358.5,-125"/>
<text text-anchor="start" x="300.5" y="-110" font-family="Arial" font-size="10.00">Block</text>
<text text-anchor="start" x="275.5" y="-99" font-family="Arial" font-size="10.00">mri: &#39;COUNTER&#39;</text>
</g>
<!-- controller&#45;&gt;block -->
<g id="edge12" class="edge">
<title>controller&#45;&gt;block</title>
<path fill="none" stroke="black" stroke-dasharray="5,2" d="M107.75,-107C149.72,-107 212.03,-107 256.98,-107"/>
<polygon fill="black" stroke="black" points="267.15,-107 257.15,-111.5 262.15,-107 257.15,-107 257.15,-107 257.15,-107 262.15,-107 257.15,-102.5 267.15,-107 267.15,-107"/>
<text text-anchor="middle" x="187.5" y="-113" font-family="Arial" font-size="10.00">produces</text>
</g>
<!-- health -->
<g id="node8" class="node">
<title>health</title>
<polygon fill="#8bc4e9" stroke="black" points="209.5,-52 132.5,-52 132.5,-16 209.5,-16 209.5,-52"/>
<text text-anchor="start" x="152.5" y="-37" font-family="Arial" font-size="10.00">Attribute</text>
<text text-anchor="start" x="140.5" y="-26" font-family="Arial" font-size="10.00">name: &#39;health&#39;</text>
</g>
<!-- controller&#45;&gt;health -->
<g id="edge7" class="edge">
<title>controller&#45;&gt;health</title>
<path fill="none" stroke="black" stroke-dasharray="5,2" d="M88.11,-88.99C105.24,-77.83 127.56,-63.29 144.73,-52.11"/>
</g>
<!-- zero -->
<g id="node4" class="node">
<title>zero</title>
<polygon fill="#8bc4e9" stroke="black" points="298,-52 228,-52 228,-16 298,-16 298,-52"/>
<text text-anchor="start" x="246.5" y="-37" font-family="Arial" font-size="10.00">Method</text>
<text text-anchor="start" x="236" y="-26" font-family="Arial" font-size="10.00">name: &#39;zero&#39;</text>
</g>
<!-- cpart&#45;&gt;zero -->
<g id="edge8" class="edge">
<title>cpart&#45;&gt;zero</title>
<path fill="none" stroke="black" stroke-dasharray="5,2" d="M90.4,-52.17C101.56,-59.38 115.33,-66.83 129,-70.5 163.77,-79.84 175.62,-81.19 210,-70.5 221.95,-66.78 233.59,-59.33 242.9,-52.13"/>
</g>
<!-- increment -->
<g id="node5" class="node">
<title>increment</title>
<polygon fill="#8bc4e9" stroke="black" points="410,-52 316,-52 316,-16 410,-16 410,-52"/>
<text text-anchor="start" x="346.5" y="-37" font-family="Arial" font-size="10.00">Method</text>
<text text-anchor="start" x="324" y="-26" font-family="Arial" font-size="10.00">name: &#39;increment&#39;</text>
</g>
<!-- cpart&#45;&gt;increment -->
<g id="edge9" class="edge">
<title>cpart&#45;&gt;increment</title>
<path fill="none" stroke="black" stroke-dasharray="5,2" d="M90.4,-52.17C101.56,-59.38 115.33,-66.83 129,-70.5 201.54,-89.99 225.33,-89.51 298,-70.5 312.02,-66.83 326.22,-59.39 337.75,-52.17"/>
</g>
<!-- delta -->
<g id="node6" class="node">
<title>delta</title>
<polygon fill="#8bc4e9" stroke="black" points="500,-52 428,-52 428,-16 500,-16 500,-52"/>
<text text-anchor="start" x="445.5" y="-37" font-family="Arial" font-size="10.00">Attribute</text>
<text text-anchor="start" x="436" y="-26" font-family="Arial" font-size="10.00">name: &#39;delta&#39;</text>
</g>
<!-- cpart&#45;&gt;delta -->
<g id="edge11" class="edge">
<title>cpart&#45;&gt;delta</title>
<path fill="none" stroke="black" stroke-dasharray="5,2" d="M90.4,-52.17C101.56,-59.38 115.33,-66.83 129,-70.5 189.3,-86.71 350.29,-88.79 410,-70.5 422.12,-66.79 433.97,-59.34 443.47,-52.13"/>
</g>
<!-- counter -->
<g id="node7" class="node">
<title>counter</title>
<polygon fill="#8bc4e9" stroke="black" points="601.5,-52 518.5,-52 518.5,-16 601.5,-16 601.5,-52"/>
<text text-anchor="start" x="541.5" y="-37" font-family="Arial" font-size="10.00">Attribute</text>
<text text-anchor="start" x="526.5" y="-26" font-family="Arial" font-size="10.00">name: &#39;counter&#39;</text>
</g>
<!-- cpart&#45;&gt;counter -->
<g id="edge10" class="edge">
<title>cpart&#45;&gt;counter</title>
<path fill="none" stroke="black" stroke-dasharray="5,2" d="M90.4,-52.17C101.56,-59.38 115.33,-66.83 129,-70.5 208.62,-91.9 420.61,-92.75 500,-70.5 513.15,-66.81 526.28,-59.37 536.89,-52.16"/>
</g>
<!-- block&#45;&gt;zero -->
<g id="edge2" class="edge">
<title>block&#45;&gt;zero</title>
<path fill="none" stroke="black" d="M300.9,-88.81C293.04,-77.65 282.83,-63.16 274.99,-52.03"/>
</g>
<!-- block&#45;&gt;increment -->
<g id="edge3" class="edge">
<title>block&#45;&gt;increment</title>
<path fill="none" stroke="black" d="M325.1,-88.81C332.96,-77.65 343.17,-63.16 351.01,-52.03"/>
</g>
<!-- block&#45;&gt;delta -->
<g id="edge5" class="edge">
<title>block&#45;&gt;delta</title>
<path fill="none" stroke="black" d="M349.17,-88.99C372.99,-77.79 404.05,-63.19 427.87,-51.99"/>
</g>
<!-- block&#45;&gt;counter -->
<g id="edge4" class="edge">
<title>block&#45;&gt;counter</title>
<path fill="none" stroke="black" d="M358.74,-94.13C398.59,-83.62 457.84,-67.56 509,-52 512.04,-51.08 515.16,-50.1 518.31,-49.1"/>
</g>
<!-- block&#45;&gt;health -->
<g id="edge6" class="edge">
<title>block&#45;&gt;health</title>
<path fill="none" stroke="black" d="M278.99,-88.99C256.67,-77.83 227.59,-63.29 205.23,-52.11"/>
</g>
</g>
</svg>
