<?xml version="1.0" encoding="UTF-8" standalone="no"?>
<!DOCTYPE svg PUBLIC "-//W3C//DTD SVG 1.1//EN"
 "http://www.w3.org/Graphics/SVG/1.1/DTD/svg11.dtd">
<!-- Generated by graphviz version 2.43.0 (0)
 -->
<!-- Title: distributed_object_usage Pages: 1 -->
<svg width="435pt" height="278pt"
 viewBox="0.00 0.00 435.00 278.00" xmlns="http://www.w3.org/2000/svg" xmlns:xlink="http://www.w3.org/1999/xlink">
<g id="graph0" class="graph" transform="scale(1 1) rotate(0) translate(4 274)">
<title>distributed_object_usage</title>
<g id="clust1" class="cluster">
<title>cluster_p2</title>
<polygon fill="transparent" stroke="black" points="8,-154 8,-262 166,-262 166,-154 8,-154"/>
<text text-anchor="middle" x="87" y="-249.2" font-family="Arial" font-size="11.00">Second Process</text>
</g>
<g id="clust2" class="cluster">
<title>cluster_h2</title>
<polygon fill="#dddddd" stroke="black" points="16,-162 16,-234 158,-234 158,-162 16,-162"/>
<text text-anchor="middle" x="87" y="-221.2" font-family="Arial" font-size="11.00">Hello Block</text>
</g>
<g id="clust3" class="cluster">
<title>cluster_p1</title>
<polygon fill="transparent" stroke="black" points="27,-8 27,-116 419,-116 419,-8 27,-8"/>
<text text-anchor="middle" x="223" y="-103.2" font-family="Arial" font-size="11.00">First Process</text>
</g>
<g id="clust4" class="cluster">
<title>cluster_c1</title>
<polygon fill="#dddddd" stroke="black" points="185,-16 185,-88 411,-88 411,-16 185,-16"/>
<text text-anchor="middle" x="298" y="-75.2" font-family="Arial" font-size="11.00">Counter Block</text>
</g>
<g id="clust5" class="cluster">
<title>cluster_h1</title>
<polygon fill="#dddddd" stroke="black" points="35,-16 35,-88 177,-88 177,-16 35,-16"/>
<text text-anchor="middle" x="106" y="-75.2" font-family="Arial" font-size="11.00">Hello Block</text>
</g>
<!-- g2 -->
<g id="node1" class="node">
<title>g2</title>
<polygon fill="#8bc4e9" stroke="black" points="150,-206 96,-206 96,-170 150,-170 150,-206"/>
<text text-anchor="middle" x="123" y="-185.5" font-family="Arial" font-size="10.00">greet()</text>
</g>
<!-- g1 -->
<g id="node6" class="node">
<title>g1</title>
<polygon fill="#8bc4e9" stroke="black" points="169,-60 115,-60 115,-24 169,-24 169,-60"/>
<text text-anchor="middle" x="142" y="-39.5" font-family="Arial" font-size="10.00">greet()</text>
</g>
<!-- g2&#45;&gt;g1 -->
<g id="edge1" class="edge">
<title>g2&#45;&gt;g1</title>
<path fill="none" stroke="black" stroke-dasharray="5,2" d="M107.55,-169.98C97.92,-157.2 88.63,-139.34 96,-124 98.47,-118.87 102.43,-120.44 106,-116 117.15,-102.13 126.04,-84.24 132.2,-69.64"/>
<polygon fill="black" stroke="black" points="136.02,-60.15 136.46,-71.11 134.15,-64.79 132.29,-69.43 132.29,-69.43 132.29,-69.43 134.15,-64.79 128.11,-67.75 136.02,-60.15 136.02,-60.15"/>
<text text-anchor="middle" x="122" y="-138" font-family="Arial" font-size="10.00">Post</text>
<text text-anchor="middle" x="122" y="-127" font-family="Arial" font-size="10.00">{name:&#39;me&#39;}</text>
</g>
<!-- e2 -->
<g id="node2" class="node">
<title>e2</title>
<polygon fill="#8bc4e9" stroke="black" points="78,-206 24,-206 24,-170 78,-170 78,-206"/>
<text text-anchor="middle" x="51" y="-185.5" font-family="Arial" font-size="10.00">error()</text>
</g>
<!-- counter -->
<g id="node3" class="node">
<title>counter</title>
<polygon fill="#8bc4e9" stroke="black" points="403,-60 349,-60 349,-24 403,-24 403,-60"/>
<text text-anchor="middle" x="376" y="-39.5" font-family="Arial" font-size="10.00">counter</text>
</g>
<!-- zero() -->
<g id="node4" class="node">
<title>zero()</title>
<polygon fill="#8bc4e9" stroke="black" points="331,-60 277,-60 277,-24 331,-24 331,-60"/>
<text text-anchor="middle" x="304" y="-39.5" font-family="Arial" font-size="10.00">zero()</text>
</g>
<!-- increment() -->
<g id="node5" class="node">
<title>increment()</title>
<polygon fill="#8bc4e9" stroke="black" points="258.5,-60 193.5,-60 193.5,-24 258.5,-24 258.5,-60"/>
<text text-anchor="middle" x="226" y="-39.5" font-family="Arial" font-size="10.00">increment()</text>
</g>
<!-- g1&#45;&gt;g2 -->
<g id="edge2" class="edge">
<title>g1&#45;&gt;g2</title>
<path fill="none" stroke="black" stroke-dasharray="5,2" d="M146.36,-60.14C150.89,-80.88 156.23,-116.68 148,-146 146.57,-151.09 144.32,-156.17 141.74,-160.93"/>
<polygon fill="black" stroke="black" points="136.5,-169.63 137.8,-158.74 139.08,-165.35 141.66,-161.07 141.66,-161.07 141.66,-161.07 139.08,-165.35 145.51,-163.39 136.5,-169.63 136.5,-169.63"/>
<text text-anchor="middle" x="173" y="-138" font-family="Arial" font-size="10.00">Return</text>
<text text-anchor="middle" x="173" y="-127" font-family="Arial" font-size="10.00">&#39;Hello me&#39;</text>
</g>
<!-- e1 -->
<g id="node7" class="node">
<title>e1</title>
<polygon fill="#8bc4e9" stroke="black" points="97,-60 43,-60 43,-24 97,-24 97,-60"/>
<text text-anchor="middle" x="70" y="-39.5" font-family="Arial" font-size="10.00">error()</text>
</g>
</g>
</svg>
