<svg width="100px" height="50px" version="1.1" viewBox="0 0 100 50" xml:space="preserve" xmlns="http://www.w3.org/2000/svg">
<g id="logo" transform="matrix(.06 0 0 .06 -10.871 -5.3263)" fill="#69ccff">
<path id="S" d="m880.5 474.71 24.796-29.844c13.879 11.817 31.589 20.094 47.529 20.094 18.003 0 26.866-7.098 26.866-18.622 0-12.118-10.922-15.954-27.753-23.056l-25.089-10.628c-19.785-7.985-38.679-24.537-38.679-52.604 0-31.927 28.343-57.334 68.493-57.334 22.141 0 45.46 8.863 61.998 25.407l-22.143 27.485c-12.691-9.751-24.504-15.359-39.855-15.359-15.057 0-24.511 6.496-24.511 17.438 0 11.817 12.704 15.954 29.23 22.751l24.795 10.047c23.333 9.461 38.089 25.122 38.089 52.31 0 31.915-26.573 59.693-72.621 59.693-25.088 1e-3 -51.657-9.461-71.145-27.778"/>
<path id="C" d="m720.19 403.78c0-63.822 42.208-101.06 90.926-101.06 24.796 0 44.865 11.821 57.849 25.118l-23.018 27.774c-9.742-8.867-20.073-15.359-33.949-15.359-26.272 0-47.228 23.336-47.228 62.057 0 39.595 18.295 62.65 46.63 62.65 15.653 0 28.042-7.985 37.496-18.028l23.03 27.185c-15.945 18.617-37.211 28.372-62.291 28.372-48.704-1e-3 -89.445-33.991-89.445-98.712"/>
<rect id="I" x="640.47" y="306.26" width="43.399" height="192.69"/>
<path id="P" d="m529.16 399.06c23.905 0 35.422-10.641 35.422-30.731 0-20.095-12.992-27.486-36.61-27.486h-20.076v58.217h21.264zm-64.647-92.793h66.115c42.215 0 76.456 15.373 76.456 62.062 0 45.212-34.536 65.31-75.275 65.31h-23.913v65.311h-43.383v-192.68z"/>
<polygon id="E" points="302.72 498.95 426.12 498.95 426.12 462.3 346.12 462.3 346.12 417.97 411.65 417.97 411.65 381.62 346.12 381.62 346.12 342.91 423.17 342.91 423.17 306.26 302.72 306.26"/>
<polygon id="signe" points="892.31 645.12 853.5 645.12 853.5 531.79 721.54 531.79 721.54 645.12 682.82 645.12 682.82 531.79 302.72 531.79 302.72 683.7 434.68 683.7 434.68 570.37 473.5 570.37 473.5 683.7 605.44 683.7 605.44 570.37 644.25 570.37 644.25 683.7 1024.3 683.7 1024.3 531.79 892.31 531.79"/>
</g>
    <g transform="matrix(.7188 0 0 .7188 51.343 .41846)" clip-rule="evenodd" fill-rule="evenodd" stroke="#d40000">
 <path transform="matrix(1.0889 0 0 1.2065 -3.8832 -6.5645)" d="m60.04 31.473a27.191 11.699 0 1 1-54.383 0 27.191 11.699 0 1 1 54.383 0z" fill="none" stroke="#008000" stroke-dashoffset="45" stroke-linecap="round" stroke-linejoin="round" stroke-width="3"/>
 <text transform="scale(.98629 1.0139)" x="8.2765179" y="34.725273" fill="#000000" font-family="Bitstream Vera Sans" font-size="13.209px" xml:space="preserve"><tspan x="8.2765179" y="34.725273" fill="#ff0000" font-family="Arial Black" font-size="11.322px" font-style="italic" font-weight="bold">RTEMS</tspan></text>
 <text x="51.683079" y="27.487577" fill="#000000" font-family="Bitstream Vera Sans" font-size="14px" xml:space="preserve"><tspan x="51.683079" y="27.487577" fill="#ff0000" font-family="Arial Black" font-size="3px">tm</tspan></text>
  </g>
</svg>
