<svg width="100px" height="50px" version="1.1" viewBox="0 0 100 50" xml:space="preserve" xmlns="http://www.w3.org/2000/svg">
<g id="logo" transform="matrix(.06 0 0 .06 -10.871 -5.3263)" fill="#69ccff">
<path id="S" d="m880.5 474.71 24.796-29.844c13.879 11.817 31.589 20.094 47.529 20.094 18.003 0 26.866-7.098 26.866-18.622 0-12.118-10.922-15.954-27.753-23.056l-25.089-10.628c-19.785-7.985-38.679-24.537-38.679-52.604 0-31.927 28.343-57.334 68.493-57.334 22.141 0 45.46 8.863 61.998 25.407l-22.143 27.485c-12.691-9.751-24.504-15.359-39.855-15.359-15.057 0-24.511 6.496-24.511 17.438 0 11.817 12.704 15.954 29.23 22.751l24.795 10.047c23.333 9.461 38.089 25.122 38.089 52.31 0 31.915-26.573 59.693-72.621 59.693-25.088 1e-3 -51.657-9.461-71.145-27.778"/>
<path id="C" d="m720.19 403.78c0-63.822 42.208-101.06 90.926-101.06 24.796 0 44.865 11.821 57.849 25.118l-23.018 27.774c-9.742-8.867-20.073-15.359-33.949-15.359-26.272 0-47.228 23.336-47.228 62.057 0 39.595 18.295 62.65 46.63 62.65 15.653 0 28.042-7.985 37.496-18.028l23.03 27.185c-15.945 18.617-37.211 28.372-62.291 28.372-48.704-1e-3 -89.445-33.991-89.445-98.712"/>
<rect id="I" x="640.47" y="306.26" width="43.399" height="192.69"/>
<path id="P" d="m529.16 399.06c23.905 0 35.422-10.641 35.422-30.731 0-20.095-12.992-27.486-36.61-27.486h-20.076v58.217h21.264zm-64.647-92.793h66.115c42.215 0 76.456 15.373 76.456 62.062 0 45.212-34.536 65.31-75.275 65.31h-23.913v65.311h-43.383v-192.68z"/>
<polygon id="E" points="302.72 498.95 426.12 498.95 426.12 462.3 346.12 462.3 346.12 417.97 411.65 417.97 411.65 381.62 346.12 381.62 346.12 342.91 423.17 342.91 423.17 306.26 302.72 306.26"/>
<polygon id="signe" points="892.31 645.12 853.5 645.12 853.5 531.79 721.54 531.79 721.54 645.12 682.82 645.12 682.82 531.79 302.72 531.79 302.72 683.7 434.68 683.7 434.68 570.37 473.5 570.37 473.5 683.7 605.44 683.7 605.44 570.37 644.25 570.37 644.25 683.7 1024.3 683.7 1024.3 531.79 892.31 531.79"/>
</g>
    <g transform="matrix(.20931 0 0 .20931 56.127 10.59)" clip-rule="evenodd" fill-rule="evenodd">
    <path d="m173.07 155.42 0.108-0.322h-0.967v2.472h0.43v-1.076l0.429-0.322h-0.429v-0.752h0.537-0.108zm1.184 32.137h-0.537v2.365h0.322v-1.826l0.752 1.826h0.43l0.644-1.826v1.826h0.43v-2.365h-0.645l-0.644 1.828-0.752-1.828zm-1.076 0h-1.934v0.322h0.86v2.043h0.322v-2.043h0.752v-0.322zm-71.369-177.13v105.55c22.572-13.113 46.541-11.824 71.584 0.322v-104.69c-24.828-11.824-48.582-11.179-71.584-1.183zm-15.476 7.416v13.328l13.327-6.987v-12.789l-13.327 6.448zm0 15.262v13.329l13.327-6.987v-12.898l-13.327 6.556zm0 15.048v13.328l13.327-6.879v-12.897l-13.327 6.448zm0 15.263v13.328l13.327-6.987v-12.791l-13.327 6.45zm0 15.047v13.221l13.327-6.88v-12.897l-13.327 6.556zm0 15.477v13.329l13.327-6.879v-12.898l-13.327 6.448zm0 15.262v13.328l13.327-6.984v-12.793l-13.327 6.449zm-15.047-86.737 12.359-6.235v12.039l-12.359 6.234v-12.038z"/>
    <path d="m71.282 37.834 12.359-6.234v12.038l-12.359 6.234v-12.038zm0 14.617 12.359-6.234v12.039l-12.359 6.234v-12.039z" fill="#d97941"/>
    <path d="m71.282 67.714 12.359-6.234v12.038l-12.359 6.342v-12.146z"/>
    <path d="m71.282 83.084 12.359-6.234v12.038l-12.359 6.342v-12.146zm0 14.727 12.359-6.237v12.039l-12.359 6.342v-12.144z" fill="#4f89c8"/>
    <path d="m71.282 113.07 12.359-6.234v12.037l-12.359 6.232v-12.035zm-13.327-91.146 10.532-4.944v10.533l-10.532 5.053v-10.642z"/>
    <path d="m57.955 37.403 10.532-5.05v10.64l-10.532 5.052v-10.642zm0 14.618 10.532-4.944v10.534l-10.532 5.052v-10.642z" fill="#d97941"/>
    <path d="m57.955 67.284 10.532-4.944v10.534l-10.532 5.051v-10.641z"/>
    <path d="m57.955 82.762 10.532-5.053v10.642l-10.532 5.051v-10.64zm0 14.617 10.532-5.051v10.641l-10.532 4.943v-10.533z" fill="#4f89c8"/>
    <path d="m57.955 112.53 10.532-4.943v10.533l-10.532 5.053v-10.643zm-12.363-82.438 8.599-3.869v-7.846l-8.599 4.084v7.631z"/>
    <path d="m45.592 45.465 8.599-3.869v-7.846l-8.599 4.084v7.631zm0 14.618 8.599-3.87v-7.954l-8.599 4.192v7.632z" fill="#d97941"/>
    <path d="m45.592 75.345 8.599-3.87v-7.847l-8.599 4.086v7.631z"/>
    <path d="m45.592 90.823 8.599-3.977v-7.846l-8.599 4.084v7.739zm0 14.726 8.599-3.977v-7.847l-8.599 4.086v7.738z" fill="#4f89c8"/>
    <path d="m45.592 120.7 8.599-3.869v-7.846l-8.599 4.086v7.629zm-11.608-103.29 6.234-3.761v6.556l-6.234 3.546v-6.341z"/>
    <path d="m33.984 32.783 6.234-3.762v6.663l-6.234 3.44v-6.341zm0 14.617 6.234-3.762v6.663l-6.234 3.548v-6.449z" fill="#d97941"/>
    <path d="m33.984 62.663 6.234-3.763v6.664l-6.234 3.547v-6.448z"/>
    <path d="m33.984 78.138 6.234-3.761v6.557l-6.234 3.547v-6.343zm0 14.619 6.234-3.761v6.663l-6.234 3.546v-6.448z" fill="#4f89c8"/>
    <path d="m33.984 108.02 6.234-3.762v6.664l-6.234 3.439v-6.341zm-10.64-94.155 4.836-2.471v4.729l-4.836 2.149v-4.407z"/>
    <path d="m23.344 29.127 4.836-2.364v4.729l-4.836 2.15v-4.515zm0 14.618 4.836-2.256v4.728l-4.836 2.042v-4.514z" fill="#d97941"/>
    <path d="m23.344 59.008 4.836-2.364v4.728l-4.836 2.15v-4.514z"/>
    <path d="m23.344 74.486 4.836-2.365v4.622l-4.836 2.149v-4.406zm0 14.724 4.836-2.364v4.622l-4.836 2.15v-4.408z" fill="#4f89c8"/>
    <path d="m23.344 104.47 4.836-2.473v4.73l-4.836 2.151v-4.408z"/>
    <path d="m101.7 25.151c9.459-4.191 17.197-6.449 23.971-6.879v33.32c-8.062 0.644-16.016 3.117-23.971 6.771v-33.212z" fill="#d97941"/>
    <path d="m135.02 16.767v34.072h9.459c4.191 0 11.07 2.149 14.188 3.332v-33.642c-7.847-3.331-15.8-4.514-23.647-3.762z" fill="#8abe6c"/>
    <path d="m135.02 60.62v32.782c9.137-0.43 16.123 0.968 23.646 3.439v-33.104c-7.846-3.117-15.799-4.084-23.646-3.117z" fill="#f2ca30"/>
    <path d="m101.7 68.789c8.814-4.299 16.768-6.234 23.971-6.771v31.813c-8.492 1.506-16.66 3.765-23.971 7.202v-32.244z" fill="#4f89c8"/>
  </g>
</svg>
