<svg id="layer" width="75px" height="50px" version="1.1" viewBox="20 45 80 80" xml:space="preserve" xmlns="http://www.w3.org/2000/svg">
<style type="text/css">
	.st0{fill:#E2001A;}
</style>
<polygon transform="matrix(.16667 0 0 .16667 16.567 14.15)" points="466 277.7 518.9 319.8 518.9 299.9 585 299.9 585 277.7"/>
<polygon class="st0" transform="matrix(.16667 0 0 .16667 16.567 14.15)" points="585 269.2 532.1 227.1 532.1 247 373.6 247 373.6 269.2"/>
<polygon transform="matrix(.16667 0 0 .16667 16.567 14.15)" points="256.4 368.1 256.4 372.2 265 372.2 265 405.6 269.7 405.6 269.7 372.2 278.3 372.2 278.3 368.1"/>
<g transform="matrix(.16667 0 0 .16667 16.567 14.15)">
	<path d="m282 389.8c0.1-6.4 2.7-8.5 5.6-8.5 3.6 0 5.4 2.8 5.4 8.5zm15.4 3.5v-2.4c0-8.1-3.4-13-9.6-13-6.8 0-10.6 5.5-10.6 14.1s3.8 14.1 11 14.1c2.7 0 5.5-0.6 7.7-1.6l-0.2-4.1c-1.6 1.1-4 2.3-6.3 2.3-5 0-7.5-3-7.5-9.3h15.5z"/>
	<path d="m318.7 378.9c-1.4-0.7-3.5-1.1-5.4-1.1-7.6 0-12.3 5.5-12.3 14.3 0 7.7 4 13.8 12.1 13.8 2 0 4.4-0.6 5.7-1.2l-0.2-4.1c-1.6 0.8-3.4 1.4-5.5 1.4-4.4 0-7.4-3.6-7.4-9.9 0-7.4 3.1-10.5 7.5-10.5 2.1 0 3.7 0.4 5.2 1.3z"/>
	<path d="m323.3 405.6h4.5v-16.5c0-4.9 2.3-7.4 5.8-7.4 2.9 0 4.5 1.9 4.5 6.2v17.7h4.5v-19c0-6-3.2-8.8-8-8.8-3.2 0-5.5 1.8-6.7 4.1h-0.1v-16.7h-4.5z"/>
	<path d="m349.2 405.6h4.5v-16.5c0-4.9 2.3-7.4 5.8-7.4 2.9 0 4.5 1.9 4.5 6.2v17.7h4.5v-19c0-6-3.2-8.8-8-8.8-3.2 0-5.5 1.3-6.9 4.5h-0.1l-0.2-4.1h-4.3c0 1.9 0.2 3.9 0.2 5.9z"/>
	<path d="m373.7 391.9c0 8.6 3.8 14.1 11 14.1s11-5.5 11-14.1-3.8-14.1-11-14.1c-7.2 0.1-11 5.5-11 14.1m4.8 0c0-6.9 2-10.4 6.3-10.4s6.3 3.5 6.3 10.4-2 10.4-6.3 10.4c-4.3 0.1-6.3-3.5-6.3-10.4"/>
</g>
<rect x="83.467" y="75.033" width=".75" height="6.7167" stroke-width=".16667"/>
<g transform="matrix(.16667 0 0 .16667 16.567 14.15)">
	<path d="m411.5 391.9c0 8.6 3.8 14.1 11 14.1s11-5.5 11-14.1-3.8-14.1-11-14.1c-7.2 0.1-11 5.5-11 14.1m4.8 0c0-6.9 2-10.4 6.3-10.4s6.3 3.5 6.3 10.4-2 10.4-6.3 10.4c-4.3 0.1-6.3-3.5-6.3-10.4"/>
	<path d="m458.5 383.2c0-1.7 0.2-3.4 0.2-5h-4.4l-0.2 4h-0.1c-1.5-2.6-4-4.3-6.7-4.3-6.1 0-9.9 4.6-9.9 14.1s3.8 14.1 9.5 14.1c3 0 5.4-1.5 7.2-4.6h0.1v4.3c0 4.7-2.2 8-7.7 8-2.5 0-5.6-1.1-7.5-2.4l-0.2 4.6c2 0.8 5.7 1.7 8 1.7 6 0 11.7-3.2 11.7-10.8zm-16.6 8.7c0-6.9 1.9-10.4 6-10.4s6 3.5 6 10.4-1.9 10.4-6 10.4c-4.1 0.1-6-3.5-6-10.4"/>
	<path d="m482.7 378.2h-4.5l-5.7 22.4h-0.1l-6.1-22.4h-4.7l8.6 27.8-1.1 4.2c-0.8 2.9-1.7 3.4-3 3.4-1 0-1.8-0.2-2.5-0.5l-0.2 4.1c0.8 0.2 2 0.3 3.1 0.3 3.4 0 5.4-1.7 6.7-6.3z"/>
	<path d="m524.8 385h-10.8v4.1h6.3v11.8c-1.2 0.6-3.2 1-4.7 1-8.2 0-12-6.4-12-16.1 0-9.1 5.6-14 11.7-14 2.7 0 5.9 0.9 8.8 2.3v-4.7c-2.6-1.2-5.6-1.7-8.8-1.7-9.8 0-16.6 7.4-16.6 19.1 0 10.1 5 19.2 16.9 19.2 3.3 0 7.1-1.1 9.3-1.9v-19.1z"/>
	<path d="m532.2 405.6h4.5v-14.5c0-6 2.5-9 6-9 0.6 0 1.2 0 1.7 0.2v-4.5c-4 0-6.3 1.3-7.8 4.7h-0.1l-0.2-4.3h-4.3c0.1 1.9 0.2 3.9 0.2 5.9z"/>
	<path d="m546.8 391.9c0 8.6 3.8 14.1 11 14.1s11-5.5 11-14.1-3.8-14.1-11-14.1c-7.2 0.1-11 5.5-11 14.1m4.7 0c0-6.9 2-10.4 6.3-10.4s6.3 3.5 6.3 10.4-2 10.4-6.3 10.4c-4.3 0.1-6.3-3.5-6.3-10.4"/>
	<path d="m593.4 378.2h-4.5v16.5c0 4.9-2.3 7.4-5.8 7.4-2.9 0-4.5-1.9-4.5-6.2v-17.7h-4.6v19c0 6 3.2 8.8 8 8.8 3.2 0 5.5-1.3 6.9-4.5h0.1l0.2 4.1h4.3c-0.1-1.9-0.2-3.9-0.2-5.9v-21.5z"/>
	<path d="m599.5 417.2h4.5v-15.4h0.1c1.8 2.9 3.9 4.1 7 4.1 5.6 0 9.5-4.6 9.5-14.1s-3.8-14.1-9.5-14.1c-4 0-6 2.3-7.2 4.4h-0.1l-0.2-4h-4.4c0.1 1.7 0.2 3.4 0.2 5.1v34zm4.5-25.3c0-6.9 1.9-10.4 6-10.4s6 3.5 6 10.4-1.9 10.4-6 10.4c-4.1 0.1-6-3.5-6-10.4"/>
	<path d="m288.9 334.1c4.3 0 8.5-1 12.9-2.8l-6.4 21.5c-3.4 0.7-7.2 1.2-10.7 1.2-21.2 0-38.2-13.1-38.2-39.8 0-25.1 17.7-37.7 38.2-37.7 6.8 0 10.8 1 17.3 2.4v19.8c-4-1.5-8.1-2.8-12.2-2.8-10.4 0-18.3 6.6-18.3 18.8 0 12.9 7.3 19.4 17.4 19.4"/>
</g>
<path d="m73.417 63.15h0.033333l1.15 4.1h-2.35zm-6.45 9.8h4.0667l0.65-2.7h3.4333l0.7 2.7h4.2667l-3.7833-12.5h-5.6167z" stroke-width=".16667"/>
<g transform="matrix(.16667 0 0 .16667 16.567 14.15)">
	<path d="m98.2 342.3c-1.8 0.8-3.6 1.5-6 1.5-4.4 0-6.1-2.5-6.1-9.2v-34.8h12.1v-7.9h-12.1v-20.8h-9.7v20.8h-9.4v7.9h9.4v37.9c0 10.4 4.7 14 13.6 14 2.7 0 5.9-0.7 8.2-1.5z"/>
</g>
<polygon transform="matrix(.16667 0 0 .16667 16.567 14.15)" points="58.1 279.7 58.1 270.9 20.6 270.9 20.6 351.6 59.6 351.6 59.6 342.8 30.7 342.8 30.7 314.2 56.9 314.2 56.9 305.4 30.7 305.4 30.7 279.7"/>
<g transform="matrix(.16667 0 0 .16667 16.567 14.15)">
	<path d="m106.4 351.6h9.7v-35.5c0-10.6 4.9-16 12.5-16 6.2 0 9.7 4 9.7 13.4v38h9.7v-40.9c0-12.9-6.9-18.8-17.2-18.8-6.8 0-11.9 3.9-14.4 8.9h-0.2v-29.7h-9.7v80.6z"/>
	<path d="m169.4 317.6c0.2-13.8 5.8-18.4 12-18.4 7.7 0 11.6 6.1 11.6 18.4zm33.3 7.4v-5.2c0-17.3-7.4-28-20.7-28-14.7 0-22.8 11.8-22.8 30.3s8.1 30.3 23.7 30.3c5.9 0 11.9-1.3 16.5-3.5l-0.5-8.8c-3.3 2.4-8.7 4.9-13.5 4.9-10.8 0-16.1-6.4-16.1-20z"/>
	<path d="m213.4 351.6h9.7v-31.2c0-12.8 5.3-19.3 12.8-19.3 1.3 0 2.5 0.1 3.7 0.3v-9.6c-8.7 0-13.6 2.9-16.8 10.1h-0.2l-0.3-9.2h-9.4c0.1 4.2 0.5 8.4 0.5 12.7z"/>
	<path d="m445.9 353.4c6.1 0 11-4.9 11-11s-4.9-11-11-11-11 4.9-11 11 5 11 11 11m0-2.1c-4.6 0-8.3-3.7-8.3-8.9s3.7-8.9 8.3-8.9 8.3 3.7 8.3 8.9-3.7 8.9-8.3 8.9m-4.2-2.7h2.3v-5.4h1.4l3.2 5.4h2.4l-3.4-5.5c2-0.2 3.3-1.2 3.3-3.4 0-2.6-1.6-3.7-4.6-3.7h-4.6zm2.3-10.7h2.1c1.2 0 2.5 0.2 2.5 1.7 0 1.7-1.2 1.9-2.6 1.9h-2z"/>
</g>
<polygon transform="matrix(.16667 0 0 .16667 16.567 14.15)" points="401 352.7 401 299.9 373.6 299.9 373.6 277.7 452.9 277.7 452.9 299.9 425.5 299.9 425.5 352.7"/>
</svg>
