<?xml version="1.0" encoding="UTF-8" standalone="no"?>
<!DOCTYPE svg PUBLIC "-//W3C//DTD SVG 1.1//EN"
 "http://www.w3.org/Graphics/SVG/1.1/DTD/svg11.dtd">
<!-- Generated by graphviz version 2.43.0 (0)
 -->
<!-- Title: motion_controllers_and_parts Pages: 1 -->
<svg width="637pt" height="169pt"
 viewBox="0.00 0.00 637.00 169.00" xmlns="http://www.w3.org/2000/svg" xmlns:xlink="http://www.w3.org/1999/xlink">
<g id="graph0" class="graph" transform="scale(1 1) rotate(0) translate(4 165)">
<title>motion_controllers_and_parts</title>
<g id="clust1" class="cluster">
<title>cluster_control</title>
<polygon fill="transparent" stroke="black" points="8,-8 8,-153 227,-153 227,-8 8,-8"/>
<text text-anchor="middle" x="117.5" y="-15.2" font-family="Arial" font-size="11.00">Control</text>
</g>
<g id="clust2" class="cluster">
<title>cluster_view</title>
<polygon fill="transparent" stroke="black" points="235,-8 235,-153 621,-153 621,-8 235,-8"/>
<text text-anchor="middle" x="428" y="-15.2" font-family="Arial" font-size="11.00">View</text>
</g>
<!-- controller -->
<g id="node1" class="node">
<title>controller</title>
<polygon fill="#8bc4e9" stroke="black" points="219,-145 123,-145 123,-109 219,-109 219,-145"/>
<text text-anchor="start" x="131" y="-130" font-family="Arial" font-size="10.00">ManagerController</text>
<text text-anchor="start" x="139" y="-119" font-family="Arial" font-size="10.00">mri: &#39;MOTION&#39;</text>
</g>
<!-- mpart1 -->
<g id="node2" class="node">
<title>mpart1</title>
<polygon fill="#8bc4e9" stroke="black" points="108.5,-72 15.5,-72 15.5,-36 108.5,-36 108.5,-72"/>
<text text-anchor="start" x="23.5" y="-57" font-family="Arial" font-size="10.00">CounterMovePart</text>
<text text-anchor="start" x="42" y="-46" font-family="Arial" font-size="10.00">name: &#39;x&#39;</text>
</g>
<!-- controller&#45;&gt;mpart1 -->
<g id="edge1" class="edge">
<title>controller&#45;&gt;mpart1</title>
<path fill="none" stroke="black" d="M144.89,-108.99C127.76,-97.83 105.44,-83.29 88.27,-72.11"/>
</g>
<!-- mpart2 -->
<g id="node3" class="node">
<title>mpart2</title>
<polygon fill="#8bc4e9" stroke="black" points="219.5,-72 126.5,-72 126.5,-36 219.5,-36 219.5,-72"/>
<text text-anchor="start" x="134.5" y="-57" font-family="Arial" font-size="10.00">CounterMovePart</text>
<text text-anchor="start" x="153" y="-46" font-family="Arial" font-size="10.00">name: &#39;y&#39;</text>
</g>
<!-- controller&#45;&gt;mpart2 -->
<g id="edge2" class="edge">
<title>controller&#45;&gt;mpart2</title>
<path fill="none" stroke="black" d="M171.48,-108.81C171.8,-97.65 172.21,-83.16 172.52,-72.03"/>
</g>
<!-- block -->
<g id="node4" class="node">
<title>block</title>
<polygon fill="#8bc4e9" stroke="black" points="417,-145 337,-145 337,-109 417,-109 417,-145"/>
<text text-anchor="start" x="364.5" y="-130" font-family="Arial" font-size="10.00">Block</text>
<text text-anchor="start" x="345" y="-119" font-family="Arial" font-size="10.00">mri: &#39;MOTION&#39;</text>
</g>
<!-- controller&#45;&gt;block -->
<g id="edge11" class="edge">
<title>controller&#45;&gt;block</title>
<path fill="none" stroke="black" stroke-dasharray="5,2" d="M219.04,-127C251.33,-127 293.81,-127 326.59,-127"/>
<polygon fill="black" stroke="black" points="336.86,-127 326.86,-131.5 331.86,-127 326.86,-127 326.86,-127 326.86,-127 331.86,-127 326.86,-122.5 336.86,-127 336.86,-127"/>
<text text-anchor="middle" x="278" y="-133" font-family="Arial" font-size="10.00">produces</text>
</g>
<!-- design -->
<g id="node5" class="node">
<title>design</title>
<polygon fill="#8bc4e9" stroke="black" points="323,-72 243,-72 243,-36 323,-36 323,-72"/>
<text text-anchor="start" x="264.5" y="-57" font-family="Arial" font-size="10.00">Attribute</text>
<text text-anchor="start" x="251" y="-46" font-family="Arial" font-size="10.00">name: &#39;design&#39;</text>
</g>
<!-- controller&#45;&gt;design -->
<g id="edge9" class="edge">
<title>controller&#45;&gt;design</title>
<path fill="none" stroke="black" stroke-dasharray="5,2" d="M197.83,-108.99C215.43,-97.83 238.37,-83.29 256,-72.11"/>
</g>
<!-- save -->
<g id="node6" class="node">
<title>save</title>
<polygon fill="#8bc4e9" stroke="black" points="413,-72 341,-72 341,-36 413,-36 413,-72"/>
<text text-anchor="start" x="360.5" y="-57" font-family="Arial" font-size="10.00">Method</text>
<text text-anchor="start" x="349" y="-46" font-family="Arial" font-size="10.00">name: &#39;save&#39;</text>
</g>
<!-- controller&#45;&gt;save -->
<g id="edge10" class="edge">
<title>controller&#45;&gt;save</title>
<path fill="none" stroke="black" stroke-dasharray="5,2" d="M219.07,-110.4C251.15,-99.86 294.23,-85.46 332,-72 334.83,-70.99 337.76,-69.93 340.69,-68.85"/>
</g>
<!-- moveX -->
<g id="node7" class="node">
<title>moveX</title>
<polygon fill="#8bc4e9" stroke="black" points="513,-72 431,-72 431,-36 513,-36 513,-72"/>
<text text-anchor="start" x="455.5" y="-57" font-family="Arial" font-size="10.00">Method</text>
<text text-anchor="start" x="439" y="-46" font-family="Arial" font-size="10.00">name: &#39;moveX&#39;</text>
</g>
<!-- mpart1&#45;&gt;moveX -->
<g id="edge7" class="edge">
<title>mpart1&#45;&gt;moveX</title>
<path fill="none" stroke="black" stroke-dasharray="5,2" d="M87.25,-72.17C98.78,-79.39 112.98,-86.83 127,-90.5 188.49,-106.58 351.87,-107.88 413,-90.5 425.98,-86.81 438.89,-79.36 449.31,-72.15"/>
</g>
<!-- moveY -->
<g id="node8" class="node">
<title>moveY</title>
<polygon fill="#8bc4e9" stroke="black" points="613,-72 531,-72 531,-36 613,-36 613,-72"/>
<text text-anchor="start" x="555.5" y="-57" font-family="Arial" font-size="10.00">Method</text>
<text text-anchor="start" x="539" y="-46" font-family="Arial" font-size="10.00">name: &#39;moveY&#39;</text>
</g>
<!-- mpart2&#45;&gt;moveY -->
<g id="edge8" class="edge">
<title>mpart2&#45;&gt;moveY</title>
<path fill="none" stroke="black" stroke-dasharray="5,2" d="M199.1,-72.18C211,-79.39 225.62,-86.84 240,-90.5 298.79,-105.47 454.65,-107.09 513,-90.5 525.98,-86.81 538.89,-79.36 549.31,-72.15"/>
</g>
<!-- block&#45;&gt;design -->
<g id="edge3" class="edge">
<title>block&#45;&gt;design</title>
<path fill="none" stroke="black" d="M354.25,-108.81C339.47,-97.65 320.28,-83.16 305.55,-72.03"/>
</g>
<!-- block&#45;&gt;save -->
<g id="edge4" class="edge">
<title>block&#45;&gt;save</title>
<path fill="none" stroke="black" d="M377,-108.81C377,-97.65 377,-83.16 377,-72.03"/>
</g>
<!-- block&#45;&gt;moveX -->
<g id="edge5" class="edge">
<title>block&#45;&gt;moveX</title>
<path fill="none" stroke="black" d="M400,-108.81C414.93,-97.65 434.32,-83.16 449.21,-72.03"/>
</g>
<!-- block&#45;&gt;moveY -->
<g id="edge6" class="edge">
<title>block&#45;&gt;moveY</title>
<path fill="none" stroke="black" d="M417.4,-111.29C450.65,-99.18 497.56,-82.1 530.98,-69.94"/>
</g>
</g>
</svg>
