<?xml version="1.0" encoding="UTF-8" standalone="no"?>
<!DOCTYPE svg PUBLIC "-//W3C//DTD SVG 1.1//EN"
 "http://www.w3.org/Graphics/SVG/1.1/DTD/svg11.dtd">
<!-- Generated by graphviz version 2.43.0 (0)
 -->
<!-- Title: %3 Pages: 1 -->
<svg width="524pt" height="507pt"
 viewBox="0.00 0.00 523.50 507.00" xmlns="http://www.w3.org/2000/svg" xmlns:xlink="http://www.w3.org/1999/xlink">
<g id="graph0" class="graph" transform="scale(1 1) rotate(0) translate(4 503)">
<title>%3</title>
<text text-anchor="middle" x="257.75" y="-32.2" font-family="Arial" font-size="11.00">Unlabelled transitions take place in response to internal actions</text>
<text text-anchor="middle" x="257.75" y="-7.2" font-family="Arial" font-size="11.00"> &#160;&#160;&#160;&#160;&#160;&#160;&#160;&#160;&#160;&#160;Labelled transitions are triggered externally.</text>
<g id="clust1" class="cluster">
<title>cluster_normal</title>
<polygon fill="transparent" stroke="black" points="8,-53 8,-362 507.5,-362 507.5,-53 8,-53"/>
</g>
<g id="clust2" class="cluster">
<title>cluster_abortable</title>
<polygon fill="transparent" stroke="black" points="16,-61 16,-257 499.5,-257 499.5,-61 16,-61"/>
</g>
<!-- Fault -->
<g id="node1" class="node">
<title>Fault</title>
<polygon fill="#f03232" stroke="black" points="78,-470 24,-470 24,-434 78,-434 78,-470"/>
<text text-anchor="middle" x="51" y="-449.5" font-family="Arial" font-size="10.00">Fault</text>
</g>
<!-- Resetting -->
<g id="node14" class="node">
<title>Resetting</title>
<polygon fill="#8bc4e9" stroke="black" points="80.5,-334 21.5,-334 21.5,-298 80.5,-298 80.5,-334"/>
<text text-anchor="middle" x="51" y="-313.5" font-family="Arial" font-size="10.00">Resetting</text>
</g>
<!-- Fault&#45;&gt;Resetting -->
<g id="edge28" class="edge">
<title>Fault&#45;&gt;Resetting</title>
<path fill="none" stroke="black" d="M51,-433.87C51,-410.97 51,-371.32 51,-344.39"/>
<polygon fill="black" stroke="black" points="51,-334.06 55.5,-344.06 51,-339.06 51,-344.06 51,-344.06 51,-344.06 51,-339.06 46.5,-344.06 51,-334.06 51,-334.06"/>
<text text-anchor="middle" x="42.5" y="-381.5" font-family="Arial" font-size="10.00">reset()</text>
</g>
<!-- Disabling -->
<g id="node16" class="node">
<title>Disabling</title>
<polygon fill="#8bc4e9" stroke="black" points="367.5,-493 310.5,-493 310.5,-457 367.5,-457 367.5,-493"/>
<text text-anchor="middle" x="339" y="-472.5" font-family="Arial" font-size="10.00">Disabling</text>
</g>
<!-- Fault&#45;&gt;Disabling -->
<g id="edge29" class="edge">
<title>Fault&#45;&gt;Disabling</title>
<path fill="none" stroke="black" d="M78.14,-454.1C129,-458.19 241.45,-467.24 300.35,-471.97"/>
<polygon fill="black" stroke="black" points="310.35,-472.78 300.02,-476.46 305.37,-472.38 300.39,-471.97 300.39,-471.97 300.39,-471.97 305.37,-472.38 300.75,-467.49 310.35,-472.78 310.35,-472.78"/>
<text text-anchor="middle" x="195.5" y="-469" font-family="Arial" font-size="10.00">disable()</text>
</g>
<!-- Disabled -->
<g id="node2" class="node">
<title>Disabled</title>
<polygon fill="#aaaaaa" stroke="black" points="491.5,-433 436.5,-433 436.5,-397 491.5,-397 491.5,-433"/>
<text text-anchor="middle" x="464" y="-412.5" font-family="Arial" font-size="10.00">Disabled</text>
</g>
<!-- Disabled&#45;&gt;Resetting -->
<g id="edge32" class="edge">
<title>Disabled&#45;&gt;Resetting</title>
<path fill="none" stroke="black" d="M436.43,-408.88C384,-396.75 263.51,-368.73 162.5,-344 138.55,-338.14 111.73,-331.35 90.52,-325.92"/>
<polygon fill="black" stroke="black" points="80.59,-323.38 91.39,-321.5 85.43,-324.62 90.27,-325.86 90.27,-325.86 90.27,-325.86 85.43,-324.62 89.16,-330.22 80.59,-323.38 80.59,-323.38"/>
<text text-anchor="middle" x="269.5" y="-379" font-family="Arial" font-size="10.00">reset()</text>
</g>
<!-- Ready -->
<g id="node3" class="node">
<title>Ready</title>
<polygon fill="#bbe7bb" stroke="black" points="78,-213 24,-213 24,-177 78,-177 78,-213"/>
<text text-anchor="middle" x="51" y="-192.5" font-family="Arial" font-size="10.00">Ready</text>
</g>
<!-- Configuring -->
<g id="node4" class="node">
<title>Configuring</title>
<polygon fill="#8bc4e9" stroke="black" points="228.5,-213 162.5,-213 162.5,-177 228.5,-177 228.5,-213"/>
<text text-anchor="middle" x="195.5" y="-192.5" font-family="Arial" font-size="10.00">Configuring</text>
</g>
<!-- Ready&#45;&gt;Configuring -->
<g id="edge1" class="edge">
<title>Ready&#45;&gt;Configuring</title>
<path fill="none" stroke="black" d="M78.07,-194.34C84.73,-194.2 91.88,-194.07 98.5,-194 118.94,-193.78 124.06,-193.8 144.5,-194 147.04,-194.03 149.66,-194.06 152.3,-194.1"/>
<polygon fill="black" stroke="black" points="162.49,-194.26 152.42,-198.6 157.49,-194.18 152.49,-194.1 152.49,-194.1 152.49,-194.1 157.49,-194.18 152.57,-189.6 162.49,-194.26 162.49,-194.26"/>
<text text-anchor="middle" x="121.5" y="-197" font-family="Arial" font-size="10.00">configure()</text>
</g>
<!-- Saving -->
<g id="node5" class="node">
<title>Saving</title>
<polygon fill="#8bc4e9" stroke="black" points="222.5,-105 168.5,-105 168.5,-69 222.5,-69 222.5,-105"/>
<text text-anchor="middle" x="195.5" y="-84.5" font-family="Arial" font-size="10.00">Saving</text>
</g>
<!-- Ready&#45;&gt;Saving -->
<g id="edge2" class="edge">
<title>Ready&#45;&gt;Saving</title>
<path fill="none" stroke="black" d="M60.1,-176.95C67.93,-161.31 81.15,-139.05 98.5,-125 115.94,-110.88 139.28,-101.48 158.57,-95.57"/>
<polygon fill="black" stroke="black" points="168.25,-92.78 159.88,-99.87 163.44,-94.16 158.64,-95.55 158.64,-95.55 158.64,-95.55 163.44,-94.16 157.39,-91.22 168.25,-92.78 168.25,-92.78"/>
<text text-anchor="middle" x="121.5" y="-128" font-family="Arial" font-size="10.00">save()</text>
</g>
<!-- Loading -->
<g id="node6" class="node">
<title>Loading</title>
<polygon fill="#8bc4e9" stroke="black" points="222.5,-159 168.5,-159 168.5,-123 222.5,-123 222.5,-159"/>
<text text-anchor="middle" x="195.5" y="-138.5" font-family="Arial" font-size="10.00">Loading</text>
</g>
<!-- Ready&#45;&gt;Loading -->
<g id="edge4" class="edge">
<title>Ready&#45;&gt;Loading</title>
<path fill="none" stroke="black" d="M78.45,-178.11C84.86,-174.45 91.79,-170.84 98.5,-168 117.65,-159.9 139.96,-153.46 158.25,-148.9"/>
<polygon fill="black" stroke="black" points="168.23,-146.5 159.56,-153.22 163.37,-147.67 158.5,-148.84 158.5,-148.84 158.5,-148.84 163.37,-147.67 157.45,-144.46 168.23,-146.5 168.23,-146.5"/>
<text text-anchor="middle" x="121.5" y="-182" font-family="Arial" font-size="10.00">put</text>
<text text-anchor="middle" x="121.5" y="-171" font-family="Arial" font-size="10.00">design</text>
</g>
<!-- Armed -->
<g id="node7" class="node">
<title>Armed</title>
<polygon fill="#bbe7bb" stroke="black" points="366,-173 312,-173 312,-137 366,-137 366,-173"/>
<text text-anchor="middle" x="339" y="-152.5" font-family="Arial" font-size="10.00">Armed</text>
</g>
<!-- Configuring&#45;&gt;Armed -->
<g id="edge6" class="edge">
<title>Configuring&#45;&gt;Armed</title>
<path fill="none" stroke="black" d="M221.93,-176.87C229.51,-172.27 238.06,-167.84 246.5,-165 264.06,-159.09 284.48,-156.48 301.57,-155.4"/>
<polygon fill="black" stroke="black" points="311.73,-154.9 301.96,-159.88 306.73,-155.15 301.74,-155.39 301.74,-155.39 301.74,-155.39 306.73,-155.15 301.52,-150.9 311.73,-154.9 311.73,-154.9"/>
</g>
<!-- Saving&#45;&gt;Ready -->
<g id="edge3" class="edge">
<title>Saving&#45;&gt;Ready</title>
<path fill="none" stroke="black" d="M168.47,-83.19C147.67,-81.57 118.74,-82.68 98.5,-97 75.44,-113.32 63.44,-144.17 57.45,-166.91"/>
<polygon fill="black" stroke="black" points="55.11,-176.71 53.06,-165.94 56.27,-171.85 57.43,-166.98 57.43,-166.98 57.43,-166.98 56.27,-171.85 61.81,-168.03 55.11,-176.71 55.11,-176.71"/>
</g>
<!-- Loading&#45;&gt;Ready -->
<g id="edge5" class="edge">
<title>Loading&#45;&gt;Ready</title>
<path fill="none" stroke="black" d="M168.44,-138.89C148.42,-138.31 120.55,-139.85 98.5,-150 88.86,-154.44 80,-161.73 72.65,-169.17"/>
<polygon fill="black" stroke="black" points="65.85,-176.55 69.32,-166.15 69.24,-172.87 72.63,-169.2 72.63,-169.2 72.63,-169.2 69.24,-172.87 75.93,-172.25 65.85,-176.55 65.85,-176.55"/>
</g>
<!-- Running -->
<g id="node8" class="node">
<title>Running</title>
<polygon fill="#8bc4e9" stroke="black" points="491,-177 437,-177 437,-141 491,-141 491,-177"/>
<text text-anchor="middle" x="464" y="-156.5" font-family="Arial" font-size="10.00">Running</text>
</g>
<!-- Armed&#45;&gt;Running -->
<g id="edge7" class="edge">
<title>Armed&#45;&gt;Running</title>
<path fill="none" stroke="black" d="M357.31,-136.78C365.16,-129.8 375.03,-122.64 385.5,-119 399.35,-114.18 404.81,-113.75 418.5,-119 426.87,-122.21 434.65,-127.79 441.29,-133.79"/>
<polygon fill="black" stroke="black" points="448.52,-140.91 438.24,-137.1 444.96,-137.4 441.39,-133.9 441.39,-133.9 441.39,-133.9 444.96,-137.4 444.54,-130.69 448.52,-140.91 448.52,-140.91"/>
<text text-anchor="middle" x="402" y="-122" font-family="Arial" font-size="10.00">run()</text>
</g>
<!-- Seeking -->
<g id="node9" class="node">
<title>Seeking</title>
<polygon fill="#8bc4e9" stroke="black" points="366,-249 312,-249 312,-213 366,-213 366,-249"/>
<text text-anchor="middle" x="339" y="-228.5" font-family="Arial" font-size="10.00">Seeking</text>
</g>
<!-- Armed&#45;&gt;Seeking -->
<g id="edge8" class="edge">
<title>Armed&#45;&gt;Seeking</title>
<path fill="none" stroke="black" d="M339,-173.01C339,-181.84 339,-192.69 339,-202.6"/>
<polygon fill="black" stroke="black" points="339,-212.85 334.5,-202.85 339,-207.85 339,-202.85 339,-202.85 339,-202.85 339,-207.85 343.5,-202.86 339,-212.85 339,-212.85"/>
<text text-anchor="middle" x="325" y="-196" font-family="Arial" font-size="10.00">put</text>
<text text-anchor="middle" x="325" y="-185" font-family="Arial" font-size="10.00">steps</text>
</g>
<!-- Armed&#45;&gt;Resetting -->
<g id="edge24" class="edge">
<title>Armed&#45;&gt;Resetting</title>
<path fill="none" stroke="black" d="M311.79,-166.21C305.54,-168.65 298.84,-171.07 292.5,-173 272.48,-179.09 261.33,-168.24 246.5,-183 220.36,-209.02 253.68,-237.05 228.5,-264 192.96,-302.03 131.16,-312.72 90.93,-315.46"/>
<polygon fill="black" stroke="black" points="80.69,-316.02 90.43,-310.98 85.68,-315.74 90.68,-315.47 90.68,-315.47 90.68,-315.47 85.68,-315.74 90.92,-319.97 80.69,-316.02 80.69,-316.02"/>
<text text-anchor="middle" x="195.5" y="-306" font-family="Arial" font-size="10.00">reset()</text>
</g>
<!-- Running&#45;&gt;Seeking -->
<g id="edge10" class="edge">
<title>Running&#45;&gt;Seeking</title>
<path fill="none" stroke="black" d="M436.85,-172.45C421.68,-180.43 402.3,-190.93 385.5,-201 382.04,-203.07 378.47,-205.29 374.92,-207.54"/>
<polygon fill="black" stroke="black" points="366.22,-213.16 372.18,-203.95 370.42,-210.45 374.62,-207.73 374.62,-207.73 374.62,-207.73 370.42,-210.45 377.06,-211.52 366.22,-213.16 366.22,-213.16"/>
<text text-anchor="middle" x="402" y="-204" font-family="Arial" font-size="10.00">pause()</text>
</g>
<!-- PostRun -->
<g id="node10" class="node">
<title>PostRun</title>
<polygon fill="#8bc4e9" stroke="black" points="491.5,-105 436.5,-105 436.5,-69 491.5,-69 491.5,-105"/>
<text text-anchor="middle" x="464" y="-84.5" font-family="Arial" font-size="10.00">PostRun</text>
</g>
<!-- Running&#45;&gt;PostRun -->
<g id="edge9" class="edge">
<title>Running&#45;&gt;PostRun</title>
<path fill="none" stroke="black" d="M464,-140.95C464,-132.41 464,-123.86 464,-115.31"/>
<polygon fill="black" stroke="black" points="464,-105.28 468.5,-115.28 464,-110.28 464,-115.28 464,-115.28 464,-115.28 464,-110.28 459.5,-115.28 464,-105.28 464,-105.28"/>
</g>
<!-- Seeking&#45;&gt;Armed -->
<g id="edge16" class="edge">
<title>Seeking&#45;&gt;Armed</title>
<path fill="none" stroke="black" d="M341.04,-212.8C341.44,-208.5 341.8,-203.92 342,-199.67 342.25,-194.37 342.16,-188.72 341.88,-183.29"/>
<polygon fill="black" stroke="black" points="341.17,-173.25 346.37,-182.9 341.53,-178.23 341.88,-183.22 341.88,-183.22 341.88,-183.22 341.53,-178.23 337.39,-183.54 341.17,-173.25 341.17,-173.25"/>
</g>
<!-- Paused -->
<g id="node12" class="node">
<title>Paused</title>
<polygon fill="#8bc4e9" stroke="black" points="491,-249 437,-249 437,-213 491,-213 491,-249"/>
<text text-anchor="middle" x="464" y="-228.5" font-family="Arial" font-size="10.00">Paused</text>
</g>
<!-- Seeking&#45;&gt;Paused -->
<g id="edge17" class="edge">
<title>Seeking&#45;&gt;Paused</title>
<path fill="none" stroke="black" d="M366.24,-239.15C372.49,-240.75 379.18,-242.18 385.5,-243 400.04,-244.89 403.96,-244.93 418.5,-243 421.33,-242.63 424.23,-242.12 427.13,-241.54"/>
<polygon fill="black" stroke="black" points="436.88,-239.27 428.16,-245.92 432.01,-240.4 427.14,-241.53 427.14,-241.53 427.14,-241.53 432.01,-240.4 426.12,-237.15 436.88,-239.27 436.88,-239.27"/>
</g>
<!-- Aborting -->
<g id="node15" class="node">
<title>Aborting</title>
<polygon fill="#8bc4e9" stroke="black" points="491,-342 437,-342 437,-306 491,-306 491,-342"/>
<text text-anchor="middle" x="464" y="-321.5" font-family="Arial" font-size="10.00">Aborting</text>
</g>
<!-- Seeking&#45;&gt;Aborting -->
<g id="edge21" class="edge">
<title>Seeking&#45;&gt;Aborting</title>
<path fill="none" stroke="black" d="M374.39,-257C392.14,-270.43 413.67,-286.7 431.06,-299.85"/>
<polygon fill="black" stroke="black" points="439.05,-305.89 428.36,-303.45 435.06,-302.88 431.08,-299.86 431.08,-299.86 431.08,-299.86 435.06,-302.88 433.79,-296.27 439.05,-305.89 439.05,-305.89"/>
<text text-anchor="middle" x="402" y="-292" font-family="Arial" font-size="10.00">abort()</text>
</g>
<!-- PostRun&#45;&gt;Armed -->
<g id="edge12" class="edge">
<title>PostRun&#45;&gt;Armed</title>
<path fill="none" stroke="black" d="M436.29,-92.49C420.75,-96.43 401.19,-102.71 385.5,-112 383.02,-113.47 374.76,-121.13 365.94,-129.58"/>
<polygon fill="black" stroke="black" points="358.52,-136.75 362.59,-126.57 362.12,-133.28 365.71,-129.8 365.71,-129.8 365.71,-129.8 362.12,-133.28 368.84,-133.04 358.52,-136.75 358.52,-136.75"/>
</g>
<!-- PostRun&#45;&gt;Seeking -->
<g id="edge13" class="edge">
<title>PostRun&#45;&gt;Seeking</title>
<path fill="none" stroke="black" d="M444.46,-105.28C428.32,-121.51 404.57,-146.13 385.5,-169 376.03,-180.36 366.23,-193.49 358.17,-204.74"/>
<polygon fill="black" stroke="black" points="352.38,-212.92 354.49,-202.16 355.27,-208.84 358.16,-204.76 358.16,-204.76 358.16,-204.76 355.27,-208.84 361.83,-207.36 352.38,-212.92 352.38,-212.92"/>
<text text-anchor="middle" x="402" y="-172" font-family="Arial" font-size="10.00">pause()</text>
</g>
<!-- Finished -->
<g id="node11" class="node">
<title>Finished</title>
<polygon fill="#bbe7bb" stroke="black" points="366,-119 312,-119 312,-83 366,-83 366,-119"/>
<text text-anchor="middle" x="339" y="-98.5" font-family="Arial" font-size="10.00">Finished</text>
</g>
<!-- PostRun&#45;&gt;Finished -->
<g id="edge11" class="edge">
<title>PostRun&#45;&gt;Finished</title>
<path fill="none" stroke="black" d="M436.37,-87.86C421.38,-88.55 402.35,-89.8 385.5,-92 382.48,-92.39 379.37,-92.87 376.24,-93.39"/>
<polygon fill="black" stroke="black" points="366.37,-95.18 375.41,-88.97 371.29,-94.29 376.21,-93.4 376.21,-93.4 376.21,-93.4 371.29,-94.29 377.01,-97.82 366.37,-95.18 366.37,-95.18"/>
</g>
<!-- Finished&#45;&gt;Configuring -->
<g id="edge15" class="edge">
<title>Finished&#45;&gt;Configuring</title>
<path fill="none" stroke="black" d="M311.85,-108.48C292.32,-115.01 265.78,-125.98 246.5,-142 235.69,-150.98 237.95,-157.6 228.5,-168 227.99,-168.56 227.46,-169.13 226.93,-169.69"/>
<polygon fill="black" stroke="black" points="219.56,-176.83 223.61,-166.64 223.15,-173.35 226.74,-169.87 226.74,-169.87 226.74,-169.87 223.15,-173.35 229.88,-173.1 219.56,-176.83 219.56,-176.83"/>
<text text-anchor="middle" x="269.5" y="-145" font-family="Arial" font-size="10.00">configure()</text>
</g>
<!-- Finished&#45;&gt;Seeking -->
<g id="edge14" class="edge">
<title>Finished&#45;&gt;Seeking</title>
<path fill="none" stroke="black" d="M311.83,-116.28C283.36,-134.36 245.18,-165.77 264,-195.5 272.51,-208.95 287.65,-217.4 302.11,-222.67"/>
<polygon fill="black" stroke="black" points="311.92,-225.82 301.02,-227.04 307.16,-224.29 302.4,-222.76 302.4,-222.76 302.4,-222.76 307.16,-224.29 303.78,-218.48 311.92,-225.82 311.92,-225.82"/>
<text text-anchor="middle" x="269.5" y="-187.5" font-family="Arial" font-size="10.00">pause()</text>
</g>
<!-- Finished&#45;&gt;Resetting -->
<g id="edge25" class="edge">
<title>Finished&#45;&gt;Resetting</title>
<path fill="none" stroke="black" d="M318.45,-119.03C315.66,-121.93 312.93,-124.97 310.5,-128 301.02,-139.84 304.07,-147.19 292.5,-157 275.63,-171.31 261.99,-160.21 246.5,-176 231.12,-191.67 243.9,-206.36 228.5,-222 206.26,-244.58 190.8,-234.74 162.5,-249 136.73,-261.98 108.96,-278.83 87.71,-292.39"/>
<polygon fill="black" stroke="black" points="79.02,-297.97 85,-288.78 83.23,-295.27 87.43,-292.56 87.43,-292.56 87.43,-292.56 83.23,-295.27 89.87,-296.35 79.02,-297.97 79.02,-297.97"/>
<text text-anchor="middle" x="195.5" y="-252" font-family="Arial" font-size="10.00">reset()</text>
</g>
<!-- Paused&#45;&gt;Running -->
<g id="edge19" class="edge">
<title>Paused&#45;&gt;Running</title>
<path fill="none" stroke="black" d="M464,-212.59C464,-204.94 464,-195.89 464,-187.43"/>
<polygon fill="black" stroke="black" points="464,-177.17 468.5,-187.17 464,-182.17 464,-187.17 464,-187.17 464,-187.17 464,-182.17 459.5,-187.17 464,-177.17 464,-177.17"/>
<text text-anchor="middle" x="455.5" y="-192.5" font-family="Arial" font-size="10.00">resume()</text>
</g>
<!-- Paused&#45;&gt;Seeking -->
<g id="edge18" class="edge">
<title>Paused&#45;&gt;Seeking</title>
<path fill="none" stroke="black" d="M436.96,-221.35C430.98,-219.55 424.58,-217.93 418.5,-217 404,-214.77 400,-214.82 385.5,-217 382.41,-217.46 379.24,-218.1 376.09,-218.84"/>
<polygon fill="black" stroke="black" points="366.16,-221.5 374.65,-214.56 370.99,-220.2 375.82,-218.91 375.82,-218.91 375.82,-218.91 370.99,-220.2 376.98,-223.26 366.16,-221.5 366.16,-221.5"/>
<text text-anchor="middle" x="402" y="-231" font-family="Arial" font-size="10.00">put</text>
<text text-anchor="middle" x="402" y="-220" font-family="Arial" font-size="10.00">steps</text>
</g>
<!-- Aborted -->
<g id="node13" class="node">
<title>Aborted</title>
<polygon fill="#ffbe89" stroke="black" points="366,-354 312,-354 312,-318 366,-318 366,-354"/>
<text text-anchor="middle" x="339" y="-333.5" font-family="Arial" font-size="10.00">Aborted</text>
</g>
<!-- Aborted&#45;&gt;Fault -->
<g id="edge27" class="edge">
<title>Aborted&#45;&gt;Fault</title>
<path fill="none" stroke="black" d="M324.39,-362C316.63,-374.38 305.8,-388.34 292.5,-397 228.97,-438.38 138.31,-448.83 88.42,-451.34"/>
<polygon fill="black" stroke="black" points="78.12,-451.78 87.92,-446.86 83.11,-451.56 88.11,-451.35 88.11,-451.35 88.11,-451.35 83.11,-451.56 88.3,-455.85 78.12,-451.78 78.12,-451.78"/>
<text text-anchor="middle" x="195.5" y="-445" font-family="Arial" font-size="10.00">on_error</text>
</g>
<!-- Aborted&#45;&gt;Resetting -->
<g id="edge23" class="edge">
<title>Aborted&#45;&gt;Resetting</title>
<path fill="none" stroke="black" d="M311.79,-334.17C261.22,-330.63 149.98,-322.85 90.8,-318.71"/>
<polygon fill="black" stroke="black" points="80.73,-318.01 91.02,-314.22 85.72,-318.36 90.71,-318.71 90.71,-318.71 90.71,-318.71 85.72,-318.36 90.39,-323.2 80.73,-318.01 80.73,-318.01"/>
<text text-anchor="middle" x="195.5" y="-332" font-family="Arial" font-size="10.00">reset()</text>
</g>
<!-- Aborted&#45;&gt;Disabling -->
<g id="edge26" class="edge">
<title>Aborted&#45;&gt;Disabling</title>
<path fill="none" stroke="black" d="M339,-362C339,-386.07 339,-421.78 339,-446.59"/>
<polygon fill="black" stroke="black" points="339,-456.82 334.5,-446.82 339,-451.82 339,-446.82 339,-446.82 339,-446.82 339,-451.82 343.5,-446.82 339,-456.82 339,-456.82"/>
<text text-anchor="middle" x="330.5" y="-403" font-family="Arial" font-size="10.00">disable()</text>
</g>
<!-- Resetting&#45;&gt;Ready -->
<g id="edge20" class="edge">
<title>Resetting&#45;&gt;Ready</title>
<path fill="none" stroke="black" d="M51,-297.97C51,-273.2 51,-248.44 51,-223.67"/>
<polygon fill="black" stroke="black" points="51,-213.43 55.5,-223.43 51,-218.43 51,-223.43 51,-223.43 51,-223.43 51,-218.43 46.5,-223.43 51,-213.43 51,-213.43"/>
</g>
<!-- Aborting&#45;&gt;Aborted -->
<g id="edge22" class="edge">
<title>Aborting&#45;&gt;Aborted</title>
<path fill="none" stroke="black" d="M436.95,-326.54C419.27,-328.27 395.64,-330.57 376.14,-332.47"/>
<polygon fill="black" stroke="black" points="366.09,-333.46 375.6,-328.01 371.06,-332.97 376.04,-332.48 376.04,-332.48 376.04,-332.48 371.06,-332.97 376.47,-336.96 366.09,-333.46 366.09,-333.46"/>
</g>
<!-- Disabling&#45;&gt;Fault -->
<g id="edge30" class="edge">
<title>Disabling&#45;&gt;Fault</title>
<path fill="none" stroke="black" d="M310.19,-480.68C304.37,-481.65 298.25,-482.5 292.5,-483 206.44,-490.51 181.72,-494.16 98.5,-471 94.93,-470.01 91.26,-468.82 87.63,-467.53"/>
<polygon fill="black" stroke="black" points="78.18,-463.94 89.13,-463.29 82.86,-465.72 87.53,-467.49 87.53,-467.49 87.53,-467.49 82.86,-465.72 85.93,-471.7 78.18,-463.94 78.18,-463.94"/>
<text text-anchor="middle" x="195.5" y="-491" font-family="Arial" font-size="10.00">on_error</text>
</g>
<!-- Disabling&#45;&gt;Disabled -->
<g id="edge31" class="edge">
<title>Disabling&#45;&gt;Disabled</title>
<path fill="none" stroke="black" d="M367.6,-461.53C385.18,-452.96 408.12,-441.77 427.1,-432.51"/>
<polygon fill="black" stroke="black" points="436.33,-428.01 429.32,-436.44 431.84,-430.2 427.35,-432.39 427.35,-432.39 427.35,-432.39 431.84,-430.2 425.37,-428.35 436.33,-428.01 436.33,-428.01"/>
</g>
</g>
</svg>
