<?xml version="1.0" encoding="UTF-8" standalone="no"?>
<!DOCTYPE svg PUBLIC "-//W3C//DTD SVG 1.1//EN"
 "http://www.w3.org/Graphics/SVG/1.1/DTD/svg11.dtd">
<!-- Generated by graphviz version 2.43.0 (0)
 -->
<!-- Title: hello_controllers_and_parts Pages: 1 -->
<svg width="406pt" height="169pt"
 viewBox="0.00 0.00 406.00 169.00" xmlns="http://www.w3.org/2000/svg" xmlns:xlink="http://www.w3.org/1999/xlink">
<g id="graph0" class="graph" transform="scale(1 1) rotate(0) translate(4 165)">
<title>hello_controllers_and_parts</title>
<g id="clust1" class="cluster">
<title>cluster_control</title>
<polygon fill="transparent" stroke="black" points="8,-8 8,-153 108,-153 108,-8 8,-8"/>
<text text-anchor="middle" x="58" y="-140.2" font-family="Arial" font-size="11.00">Control</text>
</g>
<g id="clust2" class="cluster">
<title>cluster_view</title>
<polygon fill="transparent" stroke="black" points="116,-8 116,-153 390,-153 390,-8 116,-8"/>
<text text-anchor="middle" x="253" y="-140.2" font-family="Arial" font-size="11.00">View</text>
</g>
<!-- controller -->
<g id="node1" class="node">
<title>controller</title>
<polygon fill="#8bc4e9" stroke="black" points="99.5,-125 16.5,-125 16.5,-89 99.5,-89 99.5,-125"/>
<text text-anchor="start" x="24.5" y="-110" font-family="Arial" font-size="10.00">BasicController</text>
<text text-anchor="start" x="29.5" y="-99" font-family="Arial" font-size="10.00">mri: &#39;HELLO&#39;</text>
</g>
<!-- hello -->
<g id="node2" class="node">
<title>hello</title>
<polygon fill="#8bc4e9" stroke="black" points="99.5,-52 28.5,-52 28.5,-16 99.5,-16 99.5,-52"/>
<text text-anchor="start" x="43.5" y="-37" font-family="Arial" font-size="10.00">HelloPart</text>
<text text-anchor="start" x="36.5" y="-26" font-family="Arial" font-size="10.00">name: &#39;hello&#39;</text>
</g>
<!-- controller&#45;&gt;hello -->
<g id="edge1" class="edge">
<title>controller&#45;&gt;hello</title>
<path fill="none" stroke="black" d="M59.45,-88.81C60.4,-77.65 61.62,-63.16 62.56,-52.03"/>
</g>
<!-- block -->
<g id="node3" class="node">
<title>block</title>
<polygon fill="#8bc4e9" stroke="black" points="261.5,-125 188.5,-125 188.5,-89 261.5,-89 261.5,-125"/>
<text text-anchor="start" x="212.5" y="-110" font-family="Arial" font-size="10.00">Block</text>
<text text-anchor="start" x="196.5" y="-99" font-family="Arial" font-size="10.00">mri: &#39;HELLO&#39;</text>
</g>
<!-- controller&#45;&gt;block -->
<g id="edge8" class="edge">
<title>controller&#45;&gt;block</title>
<path fill="none" stroke="black" stroke-dasharray="5,2" d="M99.71,-107C123.55,-107 153.51,-107 178.16,-107"/>
<polygon fill="black" stroke="black" points="188.36,-107 178.36,-111.5 183.36,-107 178.36,-107 178.36,-107 178.36,-107 183.36,-107 178.36,-102.5 188.36,-107 188.36,-107"/>
<text text-anchor="middle" x="144" y="-113" font-family="Arial" font-size="10.00">produces</text>
</g>
<!-- health -->
<g id="node6" class="node">
<title>health</title>
<polygon fill="#8bc4e9" stroke="black" points="201.5,-52 124.5,-52 124.5,-16 201.5,-16 201.5,-52"/>
<text text-anchor="start" x="144.5" y="-37" font-family="Arial" font-size="10.00">Attribute</text>
<text text-anchor="start" x="132.5" y="-26" font-family="Arial" font-size="10.00">name: &#39;health&#39;</text>
</g>
<!-- controller&#45;&gt;health -->
<g id="edge5" class="edge">
<title>controller&#45;&gt;health</title>
<path fill="none" stroke="black" stroke-dasharray="5,2" d="M83.15,-88.99C99.65,-77.83 121.16,-63.29 137.69,-52.11"/>
</g>
<!-- greet -->
<g id="node4" class="node">
<title>greet</title>
<polygon fill="#8bc4e9" stroke="black" points="292.5,-52 219.5,-52 219.5,-16 292.5,-16 292.5,-52"/>
<text text-anchor="start" x="239.5" y="-37" font-family="Arial" font-size="10.00">Method</text>
<text text-anchor="start" x="227.5" y="-26" font-family="Arial" font-size="10.00">name: &#39;greet&#39;</text>
</g>
<!-- hello&#45;&gt;greet -->
<g id="edge6" class="edge">
<title>hello&#45;&gt;greet</title>
<path fill="none" stroke="black" stroke-dasharray="5,2" d="M85.83,-52.14C95.88,-59.35 108.37,-66.8 121,-70.5 155.55,-80.61 167.58,-81.04 202,-70.5 214.12,-66.79 225.97,-59.34 235.47,-52.13"/>
</g>
<!-- error -->
<g id="node5" class="node">
<title>error</title>
<polygon fill="#8bc4e9" stroke="black" points="381.5,-52 310.5,-52 310.5,-16 381.5,-16 381.5,-52"/>
<text text-anchor="start" x="329.5" y="-37" font-family="Arial" font-size="10.00">Method</text>
<text text-anchor="start" x="318.5" y="-26" font-family="Arial" font-size="10.00">name: &#39;error&#39;</text>
</g>
<!-- hello&#45;&gt;error -->
<g id="edge7" class="edge">
<title>hello&#45;&gt;error</title>
<path fill="none" stroke="black" stroke-dasharray="5,2" d="M85.83,-52.14C95.88,-59.35 108.37,-66.8 121,-70.5 194.37,-91.98 220,-93.2 293,-70.5 304.95,-66.78 316.59,-59.33 325.9,-52.13"/>
</g>
<!-- block&#45;&gt;greet -->
<g id="edge2" class="edge">
<title>block&#45;&gt;greet</title>
<path fill="none" stroke="black" d="M232.5,-88.81C237.38,-77.65 243.7,-63.16 248.56,-52.03"/>
</g>
<!-- block&#45;&gt;error -->
<g id="edge3" class="edge">
<title>block&#45;&gt;error</title>
<path fill="none" stroke="black" d="M253.98,-88.99C273,-77.83 297.78,-63.29 316.83,-52.11"/>
</g>
<!-- block&#45;&gt;health -->
<g id="edge4" class="edge">
<title>block&#45;&gt;health</title>
<path fill="none" stroke="black" d="M209.99,-88.81C200.24,-77.65 187.59,-63.16 177.87,-52.03"/>
</g>
</g>
</svg>
