<?xml version="1.0" encoding="UTF-8" standalone="no"?>
<!DOCTYPE svg PUBLIC "-//W3C//DTD SVG 1.1//EN"
 "http://www.w3.org/Graphics/SVG/1.1/DTD/svg11.dtd">
<!-- Generated by graphviz version 2.43.0 (0)
 -->
<!-- Title: scan_child_connections Pages: 1 -->
<svg width="515pt" height="576pt"
 viewBox="0.00 0.00 515.00 576.00" xmlns="http://www.w3.org/2000/svg" xmlns:xlink="http://www.w3.org/1999/xlink">
<g id="graph0" class="graph" transform="scale(1 1) rotate(0) translate(4 572)">
<title>scan_child_connections</title>
<g id="clust1" class="cluster">
<title>cluster_scan</title>
<polygon fill="lightgrey" stroke="lightgrey" points="8,-400 8,-560 499,-560 499,-400 8,-400"/>
<text text-anchor="middle" x="253.5" y="-548" font-family="Arial" font-size="10.00">Scan Layer</text>
</g>
<g id="clust2" class="cluster">
<title>cluster_scan_block</title>
<polygon fill="white" stroke="white" points="16,-408 16,-533 491,-533 491,-408 16,-408"/>
<text text-anchor="middle" x="253.5" y="-521" font-family="Arial" font-size="10.00">SCAN</text>
</g>
<g id="clust3" class="cluster">
<title>cluster_device</title>
<polygon fill="lightgrey" stroke="lightgrey" points="16,-204 16,-364 441,-364 441,-204 16,-204"/>
<text text-anchor="middle" x="228.5" y="-352" font-family="Arial" font-size="10.00">Device Layer</text>
</g>
<g id="clust4" class="cluster">
<title>cluster_detector</title>
<polygon fill="white" stroke="white" points="233,-212 233,-337 433,-337 433,-212 233,-212"/>
<text text-anchor="middle" x="333" y="-325" font-family="Arial" font-size="10.00">DETECTOR</text>
</g>
<g id="clust6" class="cluster">
<title>cluster_motion</title>
<polygon fill="white" stroke="white" points="24,-212 24,-337 225,-337 225,-212 24,-212"/>
<text text-anchor="middle" x="124.5" y="-325" font-family="Arial" font-size="10.00">MOTION</text>
</g>
<g id="clust7" class="cluster">
<title>cluster_hardware</title>
<polygon fill="lightgrey" stroke="lightgrey" points="11,-8 11,-168 235,-168 235,-8 11,-8"/>
<text text-anchor="middle" x="123" y="-156" font-family="Arial" font-size="10.00">Hardware Layer</text>
</g>
<g id="clust8" class="cluster">
<title>cluster_counterx</title>
<polygon fill="white" stroke="white" points="19,-16 19,-141 119,-141 119,-16 19,-16"/>
<text text-anchor="middle" x="69" y="-129" font-family="Arial" font-size="10.00">COUNTERX</text>
</g>
<g id="clust9" class="cluster">
<title>cluster_countery</title>
<polygon fill="white" stroke="white" points="127,-16 127,-141 227,-141 227,-16 127,-16"/>
<text text-anchor="middle" x="177" y="-129" font-family="Arial" font-size="10.00">COUNTERY</text>
</g>
<!-- scan_c -->
<g id="node1" class="node">
<title>scan_c</title>
<polygon fill="#8bc4e9" stroke="black" points="281,-506 181,-506 181,-470 281,-470 281,-506"/>
<text text-anchor="middle" x="231" y="-485.5" font-family="Arial" font-size="10.00">RunnableController</text>
</g>
<!-- DSET_s -->
<g id="node2" class="node">
<title>DSET_s</title>
<polygon fill="#8bc4e9" stroke="black" points="116,-452 24,-452 24,-416 116,-416 116,-452"/>
<text text-anchor="start" x="32" y="-437" font-family="Arial" font-size="10.00">DatasetTablePart</text>
<text text-anchor="start" x="39" y="-426" font-family="Arial" font-size="10.00">name: &#39;DSET&#39;</text>
</g>
<!-- scan_c&#45;&gt;DSET_s -->
<!-- MOT -->
<g id="node3" class="node">
<title>MOT</title>
<polygon fill="#8bc4e9" stroke="black" points="220,-452 134,-452 134,-416 220,-416 220,-452"/>
<text text-anchor="start" x="142" y="-437" font-family="Arial" font-size="10.00">MotionChildPart</text>
<text text-anchor="start" x="148.5" y="-426" font-family="Arial" font-size="10.00">name: &#39;MOT&#39;</text>
</g>
<!-- scan_c&#45;&gt;MOT -->
<!-- DET -->
<g id="node4" class="node">
<title>DET</title>
<polygon fill="#8bc4e9" stroke="black" points="333.5,-452 238.5,-452 238.5,-416 333.5,-416 333.5,-452"/>
<text text-anchor="start" x="246.5" y="-437" font-family="Arial" font-size="10.00">DetectorChildPart</text>
<text text-anchor="start" x="258.5" y="-426" font-family="Arial" font-size="10.00">name: &#39;DET&#39;</text>
</g>
<!-- scan_c&#45;&gt;DET -->
<!-- SA -->
<g id="node5" class="node">
<title>SA</title>
<polygon fill="#8bc4e9" stroke="black" points="482.5,-452 351.5,-452 351.5,-416 482.5,-416 482.5,-452"/>
<text text-anchor="start" x="367" y="-437" font-family="Arial" font-size="10.00">SimultaneousAxesPart</text>
<text text-anchor="start" x="359.5" y="-426" font-family="Arial" font-size="10.00">name: &#39;simultaneousAxes&#39;</text>
</g>
<!-- scan_c&#45;&gt;SA -->
<!-- motion_c -->
<g id="node9" class="node">
<title>motion_c</title>
<polygon fill="#8bc4e9" stroke="black" points="217,-310 121,-310 121,-274 217,-274 217,-310"/>
<text text-anchor="middle" x="169" y="-289.5" font-family="Arial" font-size="10.00">ManagerController</text>
</g>
<!-- MOT&#45;&gt;motion_c -->
<g id="edge11" class="edge">
<title>MOT&#45;&gt;motion_c</title>
<path fill="none" stroke="black" stroke-dasharray="5,2" d="M176.02,-415.83C175.04,-398.76 173.49,-371.66 172.1,-347.25"/>
<polygon fill="black" stroke="black" points="171.51,-337 176.58,-346.72 171.8,-341.99 172.08,-346.98 172.08,-346.98 172.08,-346.98 171.8,-341.99 167.59,-347.24 171.51,-337 171.51,-337"/>
</g>
<!-- detector_c -->
<g id="node6" class="node">
<title>detector_c</title>
<polygon fill="#8bc4e9" stroke="black" points="341,-310 241,-310 241,-274 341,-274 341,-310"/>
<text text-anchor="middle" x="291" y="-289.5" font-family="Arial" font-size="10.00">RunnableController</text>
</g>
<!-- DET&#45;&gt;detector_c -->
<g id="edge12" class="edge">
<title>DET&#45;&gt;detector_c</title>
<path fill="none" stroke="black" stroke-dasharray="5,2" d="M286.61,-415.83C287.22,-398.76 288.19,-371.66 289.06,-347.25"/>
<polygon fill="black" stroke="black" points="289.43,-337 293.57,-347.15 289.25,-341.99 289.07,-346.99 289.07,-346.99 289.07,-346.99 289.25,-341.99 284.57,-346.83 289.43,-337 289.43,-337"/>
</g>
<!-- FW -->
<g id="node7" class="node">
<title>FW</title>
<polygon fill="#8bc4e9" stroke="black" points="314.5,-256 241.5,-256 241.5,-220 314.5,-220 314.5,-256"/>
<text text-anchor="start" x="249.5" y="-241" font-family="Arial" font-size="10.00">FileWritePart</text>
<text text-anchor="start" x="252.5" y="-230" font-family="Arial" font-size="10.00">name: &#39;FW&#39;</text>
</g>
<!-- detector_c&#45;&gt;FW -->
<!-- DSET -->
<g id="node8" class="node">
<title>DSET</title>
<polygon fill="#8bc4e9" stroke="black" points="425,-256 333,-256 333,-220 425,-220 425,-256"/>
<text text-anchor="start" x="341" y="-241" font-family="Arial" font-size="10.00">DatasetTablePart</text>
<text text-anchor="start" x="348" y="-230" font-family="Arial" font-size="10.00">name: &#39;DSET&#39;</text>
</g>
<!-- detector_c&#45;&gt;DSET -->
<!-- x -->
<g id="node10" class="node">
<title>x</title>
<polygon fill="#8bc4e9" stroke="black" points="115.5,-256 32.5,-256 32.5,-220 115.5,-220 115.5,-256"/>
<text text-anchor="start" x="40.5" y="-241" font-family="Arial" font-size="10.00">MotorMovePart</text>
<text text-anchor="start" x="54" y="-230" font-family="Arial" font-size="10.00">name: &#39;x&#39;</text>
</g>
<!-- motion_c&#45;&gt;x -->
<!-- y -->
<g id="node11" class="node">
<title>y</title>
<polygon fill="#8bc4e9" stroke="black" points="216.5,-256 133.5,-256 133.5,-220 216.5,-220 216.5,-256"/>
<text text-anchor="start" x="141.5" y="-241" font-family="Arial" font-size="10.00">MotorMovePart</text>
<text text-anchor="start" x="155" y="-230" font-family="Arial" font-size="10.00">name: &#39;y&#39;</text>
</g>
<!-- motion_c&#45;&gt;y -->
<!-- counterx_c -->
<g id="node12" class="node">
<title>counterx_c</title>
<polygon fill="#8bc4e9" stroke="black" points="110.5,-114 27.5,-114 27.5,-78 110.5,-78 110.5,-114"/>
<text text-anchor="middle" x="69" y="-93.5" font-family="Arial" font-size="10.00">BasicController</text>
</g>
<!-- x&#45;&gt;counterx_c -->
<g id="edge13" class="edge">
<title>x&#45;&gt;counterx_c</title>
<path fill="none" stroke="black" stroke-dasharray="5,2" d="M73.39,-219.83C72.78,-202.76 71.81,-175.66 70.94,-151.25"/>
<polygon fill="black" stroke="black" points="70.57,-141 75.43,-150.83 70.75,-145.99 70.93,-150.99 70.93,-150.99 70.93,-150.99 70.75,-145.99 66.43,-151.15 70.57,-141 70.57,-141"/>
</g>
<!-- countery_c -->
<g id="node14" class="node">
<title>countery_c</title>
<polygon fill="#8bc4e9" stroke="black" points="218.5,-114 135.5,-114 135.5,-78 218.5,-78 218.5,-114"/>
<text text-anchor="middle" x="177" y="-93.5" font-family="Arial" font-size="10.00">BasicController</text>
</g>
<!-- y&#45;&gt;countery_c -->
<g id="edge14" class="edge">
<title>y&#45;&gt;countery_c</title>
<path fill="none" stroke="black" stroke-dasharray="5,2" d="M175.25,-219.83C175.49,-202.76 175.88,-175.66 176.22,-151.25"/>
<polygon fill="black" stroke="black" points="176.37,-141 180.73,-151.06 176.3,-146 176.23,-151 176.23,-151 176.23,-151 176.3,-146 171.73,-150.93 176.37,-141 176.37,-141"/>
</g>
<!-- counterx_p -->
<g id="node13" class="node">
<title>counterx_p</title>
<polygon fill="#8bc4e9" stroke="black" points="103.5,-60 34.5,-60 34.5,-24 103.5,-24 103.5,-60"/>
<text text-anchor="middle" x="69" y="-39.5" font-family="Arial" font-size="10.00">CounterPart</text>
</g>
<!-- counterx_c&#45;&gt;counterx_p -->
<!-- countery_p -->
<g id="node15" class="node">
<title>countery_p</title>
<polygon fill="#8bc4e9" stroke="black" points="211.5,-60 142.5,-60 142.5,-24 211.5,-24 211.5,-60"/>
<text text-anchor="middle" x="177" y="-39.5" font-family="Arial" font-size="10.00">CounterPart</text>
</g>
<!-- countery_c&#45;&gt;countery_p -->
</g>
</svg>
