<?xml version="1.0" encoding="UTF-8" standalone="no"?>
<!DOCTYPE svg PUBLIC "-//W3C//DTD SVG 1.1//EN"
 "http://www.w3.org/Graphics/SVG/1.1/DTD/svg11.dtd">
<!-- Generated by graphviz version 2.43.0 (0)
 -->
<!-- Title: %3 Pages: 1 -->
<svg width="459pt" height="239pt"
 viewBox="0.00 0.00 458.50 239.00" xmlns="http://www.w3.org/2000/svg" xmlns:xlink="http://www.w3.org/1999/xlink">
<g id="graph0" class="graph" transform="scale(1 1) rotate(0) translate(4 235)">
<title>%3</title>
<text text-anchor="middle" x="225.25" y="-32.2" font-family="Arial" font-size="11.00">Unlabelled transitions take place in response to internal actions</text>
<text text-anchor="middle" x="225.25" y="-7.2" font-family="Arial" font-size="11.00"> &#160;&#160;&#160;&#160;&#160;&#160;&#160;&#160;&#160;&#160;Labelled transitions are triggered externally.</text>
<g id="clust1" class="cluster">
<title>cluster_normal</title>
<polygon fill="transparent" stroke="black" points="118,-117 118,-223 442.5,-223 442.5,-117 118,-117"/>
</g>
<!-- Fault -->
<g id="node1" class="node">
<title>Fault</title>
<polygon fill="#f03232" stroke="black" points="54,-97 0,-97 0,-61 54,-61 54,-97"/>
<text text-anchor="middle" x="27" y="-76.5" font-family="Arial" font-size="10.00">Fault</text>
</g>
<!-- Resetting -->
<g id="node6" class="node">
<title>Resetting</title>
<polygon fill="#8bc4e9" stroke="black" points="185,-161 126,-161 126,-125 185,-125 185,-161"/>
<text text-anchor="middle" x="155.5" y="-140.5" font-family="Arial" font-size="10.00">Resetting</text>
</g>
<!-- Fault&#45;&gt;Resetting -->
<g id="edge8" class="edge">
<title>Fault&#45;&gt;Resetting</title>
<path fill="none" stroke="black" d="M48.03,-97.25C55.22,-103.16 63.63,-109.37 72,-114 85.71,-121.58 101.77,-127.76 116.06,-132.44"/>
<polygon fill="black" stroke="black" points="125.62,-135.44 114.73,-136.74 120.85,-133.94 116.08,-132.44 116.08,-132.44 116.08,-132.44 120.85,-133.94 117.43,-128.15 125.62,-135.44 125.62,-135.44"/>
<text text-anchor="middle" x="90" y="-132" font-family="Arial" font-size="10.00">reset()</text>
</g>
<!-- Disabling -->
<g id="node7" class="node">
<title>Disabling</title>
<polygon fill="#8bc4e9" stroke="black" points="315,-81 258,-81 258,-45 315,-45 315,-81"/>
<text text-anchor="middle" x="286.5" y="-60.5" font-family="Arial" font-size="10.00">Disabling</text>
</g>
<!-- Fault&#45;&gt;Disabling -->
<g id="edge9" class="edge">
<title>Fault&#45;&gt;Disabling</title>
<path fill="none" stroke="black" d="M54.11,-77.38C99.9,-74.53 194.84,-68.63 247.77,-65.34"/>
<polygon fill="black" stroke="black" points="257.77,-64.72 248.07,-69.83 252.78,-65.03 247.79,-65.34 247.79,-65.34 247.79,-65.34 252.78,-65.03 247.51,-60.85 257.77,-64.72 257.77,-64.72"/>
<text text-anchor="middle" x="155.5" y="-77" font-family="Arial" font-size="10.00">disable()</text>
</g>
<!-- Disabled -->
<g id="node2" class="node">
<title>Disabled</title>
<polygon fill="#aaaaaa" stroke="black" points="435,-101 380,-101 380,-65 435,-65 435,-101"/>
<text text-anchor="middle" x="407.5" y="-80.5" font-family="Arial" font-size="10.00">Disabled</text>
</g>
<!-- Disabled&#45;&gt;Resetting -->
<g id="edge12" class="edge">
<title>Disabled&#45;&gt;Resetting</title>
<path fill="none" stroke="black" d="M379.67,-89.44C335.28,-100.09 246.38,-121.43 195.19,-133.71"/>
<polygon fill="black" stroke="black" points="185.18,-136.12 193.85,-129.41 190.04,-134.95 194.9,-133.78 194.9,-133.78 194.9,-133.78 190.04,-134.95 195.95,-138.16 185.18,-136.12 185.18,-136.12"/>
<text text-anchor="middle" x="286.5" y="-120" font-family="Arial" font-size="10.00">reset()</text>
</g>
<!-- Ready -->
<g id="node3" class="node">
<title>Ready</title>
<polygon fill="#bbe7bb" stroke="black" points="313.5,-182 259.5,-182 259.5,-146 313.5,-146 313.5,-182"/>
<text text-anchor="middle" x="286.5" y="-161.5" font-family="Arial" font-size="10.00">Ready</text>
</g>
<!-- Saving -->
<g id="node4" class="node">
<title>Saving</title>
<polygon fill="#8bc4e9" stroke="black" points="434.5,-161 380.5,-161 380.5,-125 434.5,-125 434.5,-161"/>
<text text-anchor="middle" x="407.5" y="-140.5" font-family="Arial" font-size="10.00">Saving</text>
</g>
<!-- Ready&#45;&gt;Saving -->
<g id="edge1" class="edge">
<title>Ready&#45;&gt;Saving</title>
<path fill="none" stroke="black" d="M313.5,-151.99C319.76,-149.58 326.52,-147.37 333,-146 344.98,-143.46 358.3,-142.4 370.28,-142.07"/>
<polygon fill="black" stroke="black" points="380.38,-141.95 370.44,-146.57 375.39,-142.01 370.39,-142.07 370.39,-142.07 370.39,-142.07 375.39,-142.01 370.33,-137.57 380.38,-141.95 380.38,-141.95"/>
<text text-anchor="middle" x="347.5" y="-149" font-family="Arial" font-size="10.00">save()</text>
</g>
<!-- Loading -->
<g id="node5" class="node">
<title>Loading</title>
<polygon fill="#8bc4e9" stroke="black" points="434.5,-215 380.5,-215 380.5,-179 434.5,-179 434.5,-215"/>
<text text-anchor="middle" x="407.5" y="-194.5" font-family="Arial" font-size="10.00">Loading</text>
</g>
<!-- Ready&#45;&gt;Loading -->
<g id="edge3" class="edge">
<title>Ready&#45;&gt;Loading</title>
<path fill="none" stroke="black" d="M313.62,-171.24C330.36,-175.88 352.31,-181.97 370.67,-187.06"/>
<polygon fill="black" stroke="black" points="380.45,-189.77 369.61,-191.44 375.63,-188.44 370.81,-187.1 370.81,-187.1 370.81,-187.1 375.63,-188.44 372.01,-182.77 380.45,-189.77 380.45,-189.77"/>
<text text-anchor="middle" x="347.5" y="-198" font-family="Arial" font-size="10.00">put</text>
<text text-anchor="middle" x="347.5" y="-187" font-family="Arial" font-size="10.00">design</text>
</g>
<!-- Saving&#45;&gt;Ready -->
<g id="edge2" class="edge">
<title>Saving&#45;&gt;Ready</title>
<path fill="none" stroke="black" d="M380.39,-152.22C374.41,-154.05 368.03,-155.78 362,-157 349.69,-159.49 336.05,-161.09 323.84,-162.13"/>
<polygon fill="black" stroke="black" points="313.56,-162.9 323.19,-157.67 318.54,-162.53 323.53,-162.15 323.53,-162.15 323.53,-162.15 318.54,-162.53 323.86,-166.64 313.56,-162.9 313.56,-162.9"/>
</g>
<!-- Loading&#45;&gt;Ready -->
<g id="edge4" class="edge">
<title>Loading&#45;&gt;Ready</title>
<path fill="none" stroke="black" d="M380.2,-208.04C365.82,-212.43 347.95,-215.14 333,-209 323.13,-204.95 314.27,-197.6 307.04,-190.01"/>
<polygon fill="black" stroke="black" points="300.38,-182.45 310.37,-186.98 303.69,-186.2 306.99,-189.95 306.99,-189.95 306.99,-189.95 303.69,-186.2 303.61,-192.93 300.38,-182.45 300.38,-182.45"/>
</g>
<!-- Resetting&#45;&gt;Fault -->
<g id="edge7" class="edge">
<title>Resetting&#45;&gt;Fault</title>
<path fill="none" stroke="black" d="M128.09,-117C121.86,-111.83 114.99,-106.83 108,-103 94.49,-95.6 78.42,-90.21 64.24,-86.44"/>
<polygon fill="black" stroke="black" points="54.31,-83.97 65.1,-82.01 59.16,-85.17 64.01,-86.38 64.01,-86.38 64.01,-86.38 59.16,-85.17 62.93,-90.75 54.31,-83.97 54.31,-83.97"/>
<text text-anchor="middle" x="90" y="-106" font-family="Arial" font-size="10.00">on_error</text>
</g>
<!-- Resetting&#45;&gt;Ready -->
<g id="edge5" class="edge">
<title>Resetting&#45;&gt;Ready</title>
<path fill="none" stroke="black" d="M185.13,-147.66C203.97,-150.73 228.79,-154.77 249.03,-158.06"/>
<polygon fill="black" stroke="black" points="259.15,-159.71 248.55,-162.54 254.21,-158.91 249.28,-158.1 249.28,-158.1 249.28,-158.1 254.21,-158.91 250,-153.66 259.15,-159.71 259.15,-159.71"/>
</g>
<!-- Resetting&#45;&gt;Disabling -->
<g id="edge6" class="edge">
<title>Resetting&#45;&gt;Disabling</title>
<path fill="none" stroke="black" d="M179.23,-117C186.34,-109.89 194.55,-102.6 203,-97 216.74,-87.89 233.32,-80.48 248,-74.93"/>
<polygon fill="black" stroke="black" points="257.8,-71.38 249.92,-79.01 253.1,-73.08 248.39,-74.78 248.39,-74.78 248.39,-74.78 253.1,-73.08 246.86,-70.55 257.8,-71.38 257.8,-71.38"/>
<text text-anchor="middle" x="221.5" y="-100" font-family="Arial" font-size="10.00">disable()</text>
</g>
<!-- Disabling&#45;&gt;Fault -->
<g id="edge10" class="edge">
<title>Disabling&#45;&gt;Fault</title>
<path fill="none" stroke="black" d="M257.81,-58.68C224.49,-54.17 166.93,-48.59 118,-55 99.81,-57.38 80.07,-62.37 63.72,-67.18"/>
<polygon fill="black" stroke="black" points="54.02,-70.13 62.28,-62.91 58.81,-68.67 63.59,-67.22 63.59,-67.22 63.59,-67.22 58.81,-68.67 64.9,-71.52 54.02,-70.13 54.02,-70.13"/>
<text text-anchor="middle" x="155.5" y="-58" font-family="Arial" font-size="10.00">on_error</text>
</g>
<!-- Disabling&#45;&gt;Disabled -->
<g id="edge11" class="edge">
<title>Disabling&#45;&gt;Disabled</title>
<path fill="none" stroke="black" d="M315.1,-67.64C331.4,-70.38 352.24,-73.88 369.9,-76.85"/>
<polygon fill="black" stroke="black" points="379.87,-78.52 369.26,-81.3 374.94,-77.7 370.01,-76.87 370.01,-76.87 370.01,-76.87 374.94,-77.7 370.75,-72.43 379.87,-78.52 379.87,-78.52"/>
</g>
</g>
</svg>
