<?xml version="1.0" encoding="UTF-8" standalone="no"?>
<!DOCTYPE svg PUBLIC "-//W3C//DTD SVG 1.1//EN"
 "http://www.w3.org/Graphics/SVG/1.1/DTD/svg11.dtd">
<!-- Generated by graphviz version 2.43.0 (0)
 -->
<!-- Title: malcolm_dls_usage Pages: 1 -->
<svg width="308pt" height="349pt"
 viewBox="0.00 0.00 308.00 349.40" xmlns="http://www.w3.org/2000/svg" xmlns:xlink="http://www.w3.org/1999/xlink">
<g id="graph0" class="graph" transform="scale(1 1) rotate(0) translate(4 345.4)">
<title>malcolm_dls_usage</title>
<!-- Detector -->
<g id="node1" class="node">
<title>Detector</title>
<polygon fill="#8bc4e9" stroke="black" points="54,-119 0,-119 0,-83 54,-83 54,-119"/>
<text text-anchor="middle" x="27" y="-98.5" font-family="Arial" font-size="10.00">Detector</text>
</g>
<!-- EPICS -->
<g id="node2" class="node">
<title>EPICS</title>
<polygon fill="#8bc4e9" stroke="black" points="176,-119 122,-119 122,-83 176,-83 176,-119"/>
<text text-anchor="middle" x="149" y="-98.5" font-family="Arial" font-size="10.00">EPICS</text>
</g>
<!-- Detector&#45;&gt;EPICS -->
<g id="edge3" class="edge">
<title>Detector&#45;&gt;EPICS</title>
<path fill="none" stroke="black" d="M54.08,-101C71.06,-101 93.18,-101 111.79,-101"/>
<polygon fill="black" stroke="black" points="122,-101 112,-105.5 117,-101 112,-101 112,-101 112,-101 117,-101 112,-96.5 122,-101 122,-101"/>
<text text-anchor="middle" x="88" y="-107" font-family="Arial" font-size="10.00">Frame data</text>
</g>
<!-- HDF File -->
<g id="node3" class="node">
<title>HDF File</title>
<polygon fill="#8bc4e9" stroke="black" points="300,-119 244,-119 244,-83 300,-83 300,-119"/>
<text text-anchor="middle" x="272" y="-98.5" font-family="Arial" font-size="10.00">HDF File</text>
</g>
<!-- EPICS&#45;&gt;HDF File -->
<g id="edge4" class="edge">
<title>EPICS&#45;&gt;HDF File</title>
<path fill="none" stroke="black" d="M176.3,-101C193.18,-101 215.1,-101 233.7,-101"/>
<polygon fill="black" stroke="black" points="243.93,-101 233.93,-105.5 238.93,-101 233.93,-101 233.93,-101 233.93,-101 238.93,-101 233.93,-96.5 243.93,-101 243.93,-101"/>
<text text-anchor="middle" x="210" y="-107" font-family="Arial" font-size="10.00">Frame data</text>
</g>
<!-- Motor Controller -->
<g id="node6" class="node">
<title>Motor Controller</title>
<polygon fill="#8bc4e9" stroke="black" points="192,-36 106,-36 106,0 192,0 192,-36"/>
<text text-anchor="middle" x="149" y="-15.5" font-family="Arial" font-size="10.00">Motor Controller</text>
</g>
<!-- EPICS&#45;&gt;Motor Controller -->
<g id="edge5" class="edge">
<title>EPICS&#45;&gt;Motor Controller</title>
<path fill="none" stroke="black" d="M149,-82.82C149,-72.19 149,-58.31 149,-46.2"/>
<polygon fill="black" stroke="black" points="149,-36.15 153.5,-46.15 149,-41.15 149,-46.15 149,-46.15 149,-46.15 149,-41.15 144.5,-46.15 149,-36.15 149,-36.15"/>
<text text-anchor="middle" x="185.5" y="-57" font-family="Arial" font-size="10.00">Motion trajectory</text>
</g>
<!-- Malcolm -->
<g id="node4" class="node">
<title>Malcolm</title>
<ellipse fill="#8bc4e9" stroke="black" cx="149" cy="-212.2" rx="31.38" ry="31.38"/>
<ellipse fill="none" stroke="black" cx="149" cy="-212.2" rx="35.4" ry="35.4"/>
<text text-anchor="middle" x="149" y="-209.7" font-family="Arial" font-size="10.00">Malcolm</text>
</g>
<!-- Malcolm&#45;&gt;EPICS -->
<g id="edge2" class="edge">
<title>Malcolm&#45;&gt;EPICS</title>
<path fill="none" stroke="black" d="M149,-176.95C149,-161.6 149,-143.74 149,-129.31"/>
<polygon fill="black" stroke="black" points="149,-119.04 153.5,-129.04 149,-124.04 149,-129.04 149,-129.04 149,-129.04 149,-124.04 144.5,-129.04 149,-119.04 149,-119.04"/>
<text text-anchor="middle" x="170.5" y="-151" font-family="Arial" font-size="10.00">caput</text>
<text text-anchor="middle" x="170.5" y="-140" font-family="Arial" font-size="10.00">camonitor</text>
</g>
<!-- GDA -->
<g id="node5" class="node">
<title>GDA</title>
<polygon fill="#8bc4e9" stroke="black" points="176,-341.4 122,-341.4 122,-305.4 176,-305.4 176,-341.4"/>
<text text-anchor="middle" x="149" y="-320.9" font-family="Arial" font-size="10.00">GDA</text>
</g>
<!-- GDA&#45;&gt;Malcolm -->
<g id="edge1" class="edge">
<title>GDA&#45;&gt;Malcolm</title>
<path fill="none" stroke="black" d="M149,-305.34C149,-292.62 149,-274.64 149,-257.93"/>
<polygon fill="black" stroke="black" points="149,-247.75 153.5,-257.75 149,-252.75 149,-257.75 149,-257.75 149,-257.75 149,-252.75 144.5,-257.75 149,-247.75 149,-247.75"/>
<text text-anchor="middle" x="184" y="-279.4" font-family="Arial" font-size="10.00">scan.configure()</text>
<text text-anchor="middle" x="184" y="-268.4" font-family="Arial" font-size="10.00">scan.run()</text>
</g>
</g>
</svg>
