<?xml version="1.0" encoding="UTF-8" standalone="no"?>
<svg
   xmlns:dc="http://purl.org/dc/elements/1.1/"
   xmlns:cc="http://creativecommons.org/ns#"
   xmlns:rdf="http://www.w3.org/1999/02/22-rdf-syntax-ns#"
   xmlns:svg="http://www.w3.org/2000/svg"
   xmlns="http://www.w3.org/2000/svg"
   xmlns:sodipodi="http://sodipodi.sourceforge.net/DTD/sodipodi-0.dtd"
   xmlns:inkscape="http://www.inkscape.org/namespaces/inkscape"
   version="1.1"
   x="0px"
   y="0px"
   width="100px"
   height="50px"
   viewBox="0 0 100 50"
   xml:space="preserve"
   id="svg2915"
   inkscape:version="0.47 r22583"
   sodipodi:docname="win_epics.svg"><metadata
   id="metadata2954"><rdf:RDF><cc:Work
       rdf:about=""><dc:format>image/svg+xml</dc:format><dc:type
         rdf:resource="http://purl.org/dc/dcmitype/StillImage" /></cc:Work></rdf:RDF></metadata><defs
   id="defs2952"><inkscape:perspective
     sodipodi:type="inkscape:persp3d"
     inkscape:vp_x="0 : 25 : 1"
     inkscape:vp_y="0 : 1000 : 0"
     inkscape:vp_z="100 : 25 : 1"
     inkscape:persp3d-origin="50 : 16.666667 : 1"
     id="perspective2956" /></defs><sodipodi:namedview
   pagecolor="#ffffff"
   bordercolor="#666666"
   borderopacity="1"
   objecttolerance="10"
   gridtolerance="10"
   guidetolerance="10"
   inkscape:pageopacity="0"
   inkscape:pageshadow="2"
   inkscape:window-width="1920"
   inkscape:window-height="1054"
   id="namedview2950"
   showgrid="false"
   inkscape:zoom="4.72"
   inkscape:cx="-40.81225"
   inkscape:cy="21.990545"
   inkscape:window-x="0"
   inkscape:window-y="0"
   inkscape:window-maximized="1"
   inkscape:current-layer="svg2915" />
<g
   id="logo"
   transform="matrix(0.06,0,0,0.06,-10.871186,-5.3262712)">
<path
   id="S"
   d="m 880.5,474.714 24.796,-29.844 c 13.879,11.817 31.589,20.094 47.529,20.094 18.003,0 26.866,-7.098 26.866,-18.622 0,-12.118 -10.922,-15.954 -27.753,-23.056 l -25.089,-10.628 c -19.785,-7.985 -38.679,-24.537 -38.679,-52.604 0,-31.927 28.343,-57.334 68.493,-57.334 22.141,0 45.46,8.863 61.998,25.407 l -22.143,27.485 c -12.691,-9.751 -24.504,-15.359 -39.855,-15.359 -15.057,0 -24.511,6.496 -24.511,17.438 0,11.817 12.704,15.954 29.23,22.751 l 24.795,10.047 c 23.333,9.461 38.089,25.122 38.089,52.31 0,31.915 -26.573,59.693 -72.621,59.693 -25.088,10e-4 -51.657,-9.461 -71.145,-27.778"
   style="fill:#69ccff" />
<path
   id="C"
   d="m 720.193,403.782 c 0,-63.822 42.208,-101.057 90.926,-101.057 24.796,0 44.865,11.821 57.849,25.118 l -23.018,27.774 c -9.742,-8.867 -20.073,-15.359 -33.949,-15.359 -26.272,0 -47.228,23.336 -47.228,62.057 0,39.595 18.295,62.65 46.63,62.65 15.653,0 28.042,-7.985 37.496,-18.028 l 23.03,27.185 c -15.945,18.617 -37.211,28.372 -62.291,28.372 -48.704,-0.001 -89.445,-33.991 -89.445,-98.712"
   style="fill:#69ccff" />
<rect
   id="I"
   x="640.46997"
   y="306.263"
   width="43.398998"
   height="192.687"
   style="fill:#69ccff" />
<path
   id="P"
   d="m 529.165,399.056 c 23.905,0 35.422,-10.641 35.422,-30.731 0,-20.095 -12.992,-27.486 -36.61,-27.486 h -20.076 v 58.217 h 21.264 z m -64.647,-92.793 h 66.115 c 42.215,0 76.456,15.373 76.456,62.062 0,45.212 -34.536,65.31 -75.275,65.31 h -23.913 v 65.311 H 464.518 V 306.263 z"
   style="fill:#69ccff" />
<polygon
   id="E"
   points="302.721,498.95 426.121,498.95 426.121,462.304 346.117,462.304 346.117,417.966 411.651,417.966 411.651,381.617 346.117,381.617 346.117,342.909 423.166,342.909 423.166,306.263 302.721,306.263 "
   style="fill:#69ccff" />
<polygon
   id="signe"
   points="892.313,645.119 853.5,645.119 853.5,531.786 721.535,531.786 721.535,645.119 682.819,645.119 682.819,531.786 302.723,531.786 302.723,683.702 434.676,683.702 434.676,570.368 473.495,570.368 473.495,683.702 605.444,683.702 605.444,570.368 644.246,570.368 644.246,683.702 1024.268,683.702 1024.268,531.786 892.313,531.786 "
   style="fill:#69ccff" />
</g>
    <g
   clip-rule="evenodd"
   id="g4"
   transform="matrix(0.20930774,0,0,0.20930774,56.127341,10.590411)"
   style="fill-rule:evenodd">
    <path
   d="m 173.066,155.42 0.108,-0.322 -0.967,0 0,2.472 0.43,0 0,-1.076 0.429,-0.322 -0.429,0 0,-0.752 0.537,0 -0.108,0 z m 1.184,32.137 -0.537,0 0,2.365 0.322,0 0,-1.826 0.752,1.826 0.43,0 0.644,-1.826 0,1.826 0.43,0 0,-2.365 -0.645,0 -0.644,1.828 -0.752,-1.828 z m -1.076,0 -1.934,0 0,0.322 0.86,0 0,2.043 0.322,0 0,-2.043 0.752,0 0,-0.322 z m -71.369,-177.131 0,105.548 c 22.572,-13.113 46.541,-11.824 71.584,0.322 l 0,-104.687 C 148.561,-0.215 124.807,0.43 101.805,10.426 z m -15.476,7.416 0,13.328 13.327,-6.987 0,-12.789 -13.327,6.448 z m 0,15.262 0,13.329 13.327,-6.987 0,-12.898 -13.327,6.556 z m 0,15.048 0,13.328 13.327,-6.879 0,-12.897 -13.327,6.448 z m 0,15.263 0,13.328 13.327,-6.987 0,-12.791 -13.327,6.45 z m 0,15.047 0,13.221 13.327,-6.88 0,-12.897 -13.327,6.556 z m 0,15.477 0,13.329 13.327,-6.879 0,-12.898 -13.327,6.448 z m 0,15.262 0,13.328 13.327,-6.984 0,-12.793 -13.327,6.449 z m -15.047,-86.737 12.359,-6.235 0,12.039 -12.359,6.234 0,-12.038 z"
   id="path32" />
    <path
   d="M 71.282,37.834 83.641,31.6 V 43.638 L 71.282,49.872 V 37.834 z m 0,14.617 12.359,-6.234 V 58.256 L 71.282,64.49 V 52.451 z"
   id="path34"
   style="fill:#d97941" />
    <path
   d="M 71.282,67.714 83.641,61.48 V 73.518 L 71.282,79.86 V 67.714 z"
   id="path36" />
    <path
   d="M 71.282,83.084 83.641,76.85 V 88.888 L 71.282,95.23 V 83.084 z m 0,14.727 12.359,-6.237 v 12.039 l -12.359,6.342 V 97.811 z"
   id="path38"
   style="fill:#4f89c8" />
    <path
   d="m 71.282,113.072 12.359,-6.234 v 12.037 l -12.359,6.232 V 113.072 z M 57.955,21.926 68.487,16.982 V 27.515 L 57.955,32.568 V 21.926 z"
   id="path40" />
    <path
   d="m 57.955,37.403 10.532,-5.05 v 10.64 L 57.955,48.045 V 37.403 z m 0,14.618 10.532,-4.944 V 57.611 L 57.955,62.663 V 52.021 z"
   id="path42"
   style="fill:#d97941" />
    <path
   d="M 57.955,67.284 68.487,62.34 V 72.874 L 57.955,77.925 V 67.284 z"
   id="path44" />
    <path
   d="m 57.955,82.762 10.532,-5.053 v 10.642 l -10.532,5.051 v -10.64 z m 0,14.617 10.532,-5.051 v 10.641 l -10.532,4.943 V 97.379 z"
   id="path46"
   style="fill:#4f89c8" />
    <path
   d="m 57.955,112.533 10.532,-4.943 v 10.533 l -10.532,5.053 V 112.533 z M 45.592,30.095 54.191,26.226 V 18.38 l -8.599,4.084 v 7.631 z"
   id="path48" />
    <path
   d="m 45.592,45.465 8.599,-3.869 V 33.75 l -8.599,4.084 v 7.631 z m 0,14.618 8.599,-3.87 v -7.954 l -8.599,4.192 v 7.632 z"
   id="path50"
   style="fill:#d97941" />
    <path
   d="m 45.592,75.345 8.599,-3.87 v -7.847 l -8.599,4.086 v 7.631 z"
   id="path52" />
    <path
   d="m 45.592,90.823 8.599,-3.977 V 79 l -8.599,4.084 v 7.739 z m 0,14.726 8.599,-3.977 v -7.847 l -8.599,4.086 v 7.738 z"
   id="path54"
   style="fill:#4f89c8" />
    <path
   d="m 45.592,120.701 8.599,-3.869 v -7.846 l -8.599,4.086 v 7.629 z M 33.984,17.412 40.218,13.651 v 6.556 l -6.234,3.546 v -6.341 z"
   id="path56" />
    <path
   d="m 33.984,32.783 6.234,-3.762 v 6.663 l -6.234,3.44 v -6.341 z m 0,14.617 6.234,-3.762 v 6.663 l -6.234,3.548 V 47.4 z"
   id="path58"
   style="fill:#d97941" />
    <path
   d="M 33.984,62.663 40.218,58.9 v 6.664 l -6.234,3.547 v -6.448 z"
   id="path60" />
    <path
   d="m 33.984,78.138 6.234,-3.761 v 6.557 l -6.234,3.547 v -6.343 z m 0,14.619 6.234,-3.761 v 6.663 l -6.234,3.546 v -6.448 z"
   id="path62"
   style="fill:#4f89c8" />
    <path
   d="m 33.984,108.02 6.234,-3.762 v 6.664 l -6.234,3.439 V 108.02 z M 23.344,13.865 28.18,11.394 v 4.729 l -4.836,2.149 v -4.407 z"
   id="path64" />
    <path
   d="m 23.344,29.127 4.836,-2.364 v 4.729 l -4.836,2.15 v -4.515 z m 0,14.618 4.836,-2.256 v 4.728 l -4.836,2.042 v -4.514 z"
   id="path66"
   style="fill:#d97941" />
    <path
   d="m 23.344,59.008 4.836,-2.364 v 4.728 l -4.836,2.15 v -4.514 z"
   id="path68" />
    <path
   d="m 23.344,74.486 4.836,-2.365 v 4.622 l -4.836,2.149 v -4.406 z m 0,14.724 4.836,-2.364 v 4.622 l -4.836,2.15 V 89.21 z"
   id="path70"
   style="fill:#4f89c8" />
    <path
   d="M 23.344,104.473 28.18,102 v 4.73 l -4.836,2.151 v -4.408 z"
   id="path72" />
    <path
   d="m 101.697,25.151 c 9.459,-4.191 17.197,-6.449 23.971,-6.879 v 33.32 c -8.062,0.644 -16.016,3.117 -23.971,6.771 V 25.151 z"
   id="path74"
   style="fill:#d97941" />
    <path
   d="m 135.018,16.767 v 34.072 h 9.459 c 4.191,0 11.07,2.149 14.188,3.332 V 20.529 c -7.847,-3.331 -15.8,-4.514 -23.647,-3.762 z"
   id="path76"
   style="fill:#8abe6c" />
    <path
   d="m 135.018,60.62 v 32.782 c 9.137,-0.43 16.123,0.968 23.646,3.439 V 63.737 C 150.818,60.62 142.865,59.653 135.018,60.62 z"
   id="path78"
   style="fill:#f2ca30" />
    <path
   d="m 101.697,68.789 c 8.814,-4.299 16.768,-6.234 23.971,-6.771 v 31.813 c -8.492,1.506 -16.66,3.765 -23.971,7.202 V 68.789 z"
   id="path80"
   style="fill:#4f89c8" />
  </g>
</svg>