<svg version="1.1" viewBox="0 0 120 80" xmlns="http://www.w3.org/2000/svg">
 <rect x="30" y="65" width="60" height="10" fill="#e6e6e6" stroke="#000"/>
 <rect x="35" y="5" width="5" height="60" fill="#e6e6e6" stroke="#000"/>
 <rect x="80" y="5" width="4.5" height="60" fill="#e6e6e6" stroke="#000"/>
 <path d="m40 50h40" fill="none" stroke="#000" stroke-width="1px"/>
 <path d="m40 30h40" fill="none" stroke="#000" stroke-width="1px"/>
 <path d="m80 10h-40" fill="none" stroke="#000" stroke-width="1px"/>
 <circle transform="translate(1,10)" cx="45" cy="40" r="5" d="m 50,40 c 0,2.761424 -2.238576,5 -5,5 -2.761424,0 -5,-2.238576 -5,-5 0,-2.761424 2.238576,-5 5,-5 2.761424,0 5,2.238576 5,5 z" fill="#e6e6e6" stroke="#000"/>
 <circle transform="translate(2,10)" cx="55" cy="40" r="5" d="m 60,40 c 0,2.761424 -2.238576,5 -5,5 -2.761424,0 -5,-2.238576 -5,-5 0,-2.761424 2.238576,-5 5,-5 2.761424,0 5,2.238576 5,5 z" fill="#e6e6e6" stroke="#000"/>
 <circle transform="translate(6,10)" cx="40" cy="20" r="5" d="m 45,20 c 0,2.761424 -2.238576,5 -5,5 -2.761424,0 -5,-2.238576 -5,-5 0,-2.761424 2.238576,-5 5,-5 2.761424,0 5,2.238576 5,5 z" fill="#e6e6e6" stroke="#000"/>
 <circle transform="translate(4,10)" cx="70" cy="20" r="5" d="m 75,20 c 0,2.761424 -2.238576,5 -5,5 -2.761424,0 -5,-2.238576 -5,-5 0,-2.761424 2.238576,-5 5,-5 2.761424,0 5,2.238576 5,5 z" fill="#e6e6e6" stroke="#000"/>
 <circle transform="translate(4,10)" cx="70" r="5" d="m 75,0 c 0,2.7614237 -2.238576,5 -5,5 -2.761424,0 -5,-2.2385763 -5,-5 0,-2.7614237 2.238576,-5 5,-5 2.761424,0 5,2.2385763 5,5 z" fill="#e6e6e6" stroke="#000"/>
 <circle transform="translate(3,10)" cx="60" r="5" d="m 65,0 c 0,2.7614237 -2.238576,5 -5,5 -2.761424,0 -5,-2.2385763 -5,-5 0,-2.7614237 2.238576,-5 5,-5 2.761424,0 5,2.2385763 5,5 z" fill="#e6e6e6" stroke="#000"/>
 <circle transform="translate(-4,10)" cx="50" r="5" d="m 55,0 c 0,2.7614237 -2.238576,5 -5,5 -2.761424,0 -5,-2.2385763 -5,-5 0,-2.7614237 2.238576,-5 5,-5 2.761424,0 5,2.2385763 5,5 z" fill="#e6e6e6" stroke="#000"/>
</svg>
