<svg version="1.1" viewBox="0 0 120 160" xmlns="http://www.w3.org/2000/svg">
 <path d="m70 30h20" fill="none" stroke="#000" stroke-width="1px"/>
 <path d="m70 50h20" fill="none" stroke="#000" stroke-width="1px"/>
 <path d="m70 70h20" fill="none" stroke="#000" stroke-width="1px"/>
 <path d="m70 90h20" fill="none" stroke="#000" stroke-width="1px"/>
 <path d="m70 110h20" fill="none" stroke="#000" stroke-width="1px"/>
 <path d="m70 130h20" fill="none" stroke="#000" stroke-width="1px"/>
 <rect x="55" y="20" width="20" height="120" fill="#e6e6e6" stroke="#000"/>
 <path d="m45 37h17c5 0 8 5 8 10v66c0 5-3 10-8 10h-17" fill="#e6e6e6" fill-rule="evenodd" stroke="#000" stroke-width="1px"/>
 <path d="m45 37c5 0 8 5 8 10v66c0 5-3 10-8 10-3 0-5-2-5-5v-76c0-3.001 2-5 5-5z" fill="#e6e6e6" fill-rule="evenodd" stroke="#000" stroke-width="1px"/>
 <ellipse transform="matrix(-1,0,0,1,0,90)" cx="-50" cy="-10" rx="1.5" ry="2.75" d="m -48.5,-10 c 0,1.5187831 -0.671573,2.75 -1.5,2.75 -0.828427,0 -1.5,-1.2312169 -1.5,-2.75 0,-1.518783 0.671573,-2.75 1.5,-2.75 0.828427,0 1.5,1.231217 1.5,2.75 z"/>
 <ellipse transform="matrix(-1,0,0,1,0,90)" cx="-45" cy="-45" rx="1.5" ry="2.75" d="m -43.5,-45 c 0,1.518783 -0.671573,2.75 -1.5,2.75 -0.828427,0 -1.5,-1.231217 -1.5,-2.75 0,-1.518783 0.671573,-2.75 1.5,-2.75 0.828427,0 1.5,1.231217 1.5,2.75 z"/>
 <ellipse transform="matrix(-1,0,0,1,0,90)" cx="-50" cy="-20" rx="1.5" ry="2.75" d="m -48.5,-20 c 0,1.518783 -0.671573,2.75 -1.5,2.75 -0.828427,0 -1.5,-1.231217 -1.5,-2.75 0,-1.518783 0.671573,-2.75 1.5,-2.75 0.828427,0 1.5,1.231217 1.5,2.75 z"/>
 <ellipse transform="matrix(-1,0,0,1,0,90)" cx="-50" cy="-30" rx="1.5" ry="2.75" d="m -48.5,-30 c 0,1.518783 -0.671573,2.75 -1.5,2.75 -0.828427,0 -1.5,-1.231217 -1.5,-2.75 0,-1.518783 0.671573,-2.75 1.5,-2.75 0.828427,0 1.5,1.231217 1.5,2.75 z"/>
 <ellipse transform="matrix(-1,0,0,1,0,90)" cx="-50" cy="-40" rx="1.5" ry="2.75" d="m -48.5,-40 c 0,1.518783 -0.671573,2.75 -1.5,2.75 -0.828427,0 -1.5,-1.231217 -1.5,-2.75 0,-1.518783 0.671573,-2.75 1.5,-2.75 0.828427,0 1.5,1.231217 1.5,2.75 z"/>
 <ellipse transform="matrix(-1,0,0,1,0,90)" cx="-50" cy="20" rx="1.5" ry="2.75" d="m -48.5,20 c 0,1.518783 -0.671573,2.75 -1.5,2.75 -0.828427,0 -1.5,-1.231217 -1.5,-2.75 0,-1.518783 0.671573,-2.75 1.5,-2.75 0.828427,0 1.5,1.231217 1.5,2.75 z"/>
 <ellipse transform="matrix(-1,0,0,1,0,90)" cx="-50" cy="10" rx="1.5" ry="2.75" d="m -48.5,10 c 0,1.518783 -0.671573,2.75 -1.5,2.75 -0.828427,0 -1.5,-1.231217 -1.5,-2.75 0,-1.5187831 0.671573,-2.75 1.5,-2.75 0.828427,0 1.5,1.2312169 1.5,2.75 z"/>
 <ellipse transform="matrix(-1,0,0,1,0,90)" cx="-50" rx="1.5" ry="2.75" d="m -48.5,0 c 0,1.5187831 -0.671573,2.75 -1.5,2.75 -0.828427,0 -1.5,-1.2312169 -1.5,-2.75 0,-1.5187831 0.671573,-2.75 1.5,-2.75 0.828427,0 1.5,1.2312169 1.5,2.75 z"/>
 <ellipse transform="matrix(-1,0,0,1,0,90)" cx="-45" cy="5" rx="1.5" ry="2.75" d="m -43.5,5 c 0,1.5187831 -0.671573,2.75 -1.5,2.75 -0.828427,0 -1.5,-1.2312169 -1.5,-2.75 0,-1.5187831 0.671573,-2.75 1.5,-2.75 0.828427,0 1.5,1.2312169 1.5,2.75 z"/>
 <ellipse transform="matrix(-1,0,0,1,0,90)" cx="-45" cy="-5" rx="1.5" ry="2.75" d="m -43.5,-5 c 0,1.5187831 -0.671573,2.75 -1.5,2.75 -0.828427,0 -1.5,-1.2312169 -1.5,-2.75 0,-1.5187831 0.671573,-2.75 1.5,-2.75 0.828427,0 1.5,1.2312169 1.5,2.75 z"/>
 <ellipse transform="matrix(-1,0,0,1,0,90)" cx="-45" cy="-15" rx="1.5" ry="2.75" d="m -43.5,-15 c 0,1.518783 -0.671573,2.75 -1.5,2.75 -0.828427,0 -1.5,-1.231217 -1.5,-2.75 0,-1.518783 0.671573,-2.75 1.5,-2.75 0.828427,0 1.5,1.231217 1.5,2.75 z"/>
 <ellipse transform="matrix(-1,0,0,1,0,90)" cx="-45" cy="-25" rx="1.5" ry="2.75" d="m -43.5,-25 c 0,1.518783 -0.671573,2.75 -1.5,2.75 -0.828427,0 -1.5,-1.231217 -1.5,-2.75 0,-1.518783 0.671573,-2.75 1.5,-2.75 0.828427,0 1.5,1.231217 1.5,2.75 z"/>
 <ellipse transform="matrix(-1,0,0,1,0,90)" cx="-45" cy="25" rx="1.5" ry="2.75" d="m -43.5,25 c 0,1.518783 -0.671573,2.75 -1.5,2.75 -0.828427,0 -1.5,-1.231217 -1.5,-2.75 0,-1.518783 0.671573,-2.75 1.5,-2.75 0.828427,0 1.5,1.231217 1.5,2.75 z"/>
 <ellipse transform="matrix(-1,0,0,1,0,90)" cx="-45" cy="15" rx="1.5" ry="2.75" d="m -43.5,15 c 0,1.518783 -0.671573,2.75 -1.5,2.75 -0.828427,0 -1.5,-1.231217 -1.5,-2.75 0,-1.518783 0.671573,-2.75 1.5,-2.75 0.828427,0 1.5,1.231217 1.5,2.75 z"/>
 <ellipse transform="matrix(-1,0,0,1,0,90)" cx="-45" cy="-35" rx="1.5" ry="2.75" d="m -43.5,-35 c 0,1.518783 -0.671573,2.75 -1.5,2.75 -0.828427,0 -1.5,-1.231217 -1.5,-2.75 0,-1.518783 0.671573,-2.75 1.5,-2.75 0.828427,0 1.5,1.231217 1.5,2.75 z"/>
 <path d="m60 134h5c1 0 2-2 2-4s-1-4-2-4h-5" fill="#e6e6e6" stroke="#000"/>
 <ellipse transform="matrix(-1,0,0,1,0,90)" cx="-60" cy="40" rx="2" ry="4" d="m -58,40 c 0,2.209139 -0.895431,4 -2,4 -1.104569,0 -2,-1.790861 -2,-4 0,-2.209139 0.895431,-4 2,-4 1.104569,0 2,1.790861 2,4 z" fill="#e6e6e6" stroke="#000"/>
 <path d="m61 34h4c1 0 2-2 2-4s-1-4-2-4h-5" fill="#e6e6e6" stroke="#000"/>
 <ellipse transform="matrix(-1,0,0,1,0,90)" cx="-60" cy="-60" rx="2" ry="4" d="m -58,-60 c 0,2.209139 -0.895431,4 -2,4 -1.104569,0 -2,-1.790861 -2,-4 0,-2.209139 0.895431,-4 2,-4 1.104569,0 2,1.790861 2,4 z" fill="#e6e6e6" stroke="#000"/>
</svg>
