<svg version="1.1" viewBox="0 0 120 140" xmlns="http://www.w3.org/2000/svg">
 <path id="E" d="m55 90h-15v20h-10" color="#000000" fill="none" stroke="#000" stroke-linecap="square" stroke-width=".98616"/>
 <path id="D" d="m55 80h-20v10h-5" color="#000000" fill="none" stroke="#000" stroke-linecap="square" stroke-width=".98984"/>
 <path id="C" d="m55 70h-25" color="#000000" fill="none" stroke="#000" stroke-linecap="square" stroke-width=".99913"/>
 <path id="B" d="m55 60h-20v-10h-5" color="#000000" fill="none" stroke="#000" stroke-linecap="square" stroke-width=".99963"/>
 <path id="A" d="m55 50h-15v-20h-10" color="#000000" fill="none" stroke="#000" stroke-linecap="square" stroke-width="1.0017"/>
 <ellipse id="notE" transform="translate(0,108)" cx="46.818" cy="-18.17" rx="2.8176" ry="2.8304" d="m 49.635601,-18.17 c 0,1.563187 -1.261483,2.8304 -2.8176,2.8304 -1.556118,0 -2.8176,-1.267213 -2.8176,-2.8304 0,-1.563187 1.261482,-2.8304 2.8176,-2.8304 1.556117,0 2.8176,1.267213 2.8176,2.8304 z" color="#000000" fill="#fff" fill-rule="evenodd" stroke="#000" stroke-linecap="square"/>
 <ellipse id="notD" transform="translate(0,108)" cx="46.818" cy="-28.085" rx="2.8176" ry="2.9152" d="m 49.635601,-28.084999 c 0,1.61002 -1.261483,2.9152 -2.8176,2.9152 -1.556118,0 -2.8176,-1.30518 -2.8176,-2.9152 0,-1.610021 1.261482,-2.9152 2.8176,-2.9152 1.556117,0 2.8176,1.305179 2.8176,2.9152 z" color="#000000" fill="#fff" fill-rule="evenodd" stroke="#000" stroke-linecap="square"/>
 <ellipse id="notC" transform="translate(0,108)" cx="46.818" cy="-38" rx="2.8176" ry="3" d="m 49.635601,-38 c 0,1.656854 -1.261483,3 -2.8176,3 -1.556118,0 -2.8176,-1.343146 -2.8176,-3 0,-1.656854 1.261482,-3 2.8176,-3 1.556117,0 2.8176,1.343146 2.8176,3 z" color="#000000" fill="#fff" fill-rule="evenodd" stroke="#000" stroke-linecap="square"/>
 <ellipse id="notB" transform="translate(0,108)" cx="46.818" cy="-47.915" rx="2.8176" ry="3.0848" d="m 49.635601,-47.915001 c 0,1.703688 -1.261483,3.0848 -2.8176,3.0848 -1.556118,0 -2.8176,-1.381112 -2.8176,-3.0848 0,-1.703688 1.261482,-3.0848 2.8176,-3.0848 1.556117,0 2.8176,1.381112 2.8176,3.0848 z" color="#000000" fill="#fff" fill-rule="evenodd" stroke="#000" stroke-linecap="square"/>
 <ellipse id="notA" transform="translate(0,108)" cx="46.818" cy="-57.83" rx="2.8176" ry="3.1696" d="m 49.635601,-57.830002 c 0,1.750522 -1.261483,3.1696 -2.8176,3.1696 -1.556118,0 -2.8176,-1.419078 -2.8176,-3.1696 0,-1.750522 1.261482,-3.1696 2.8176,-3.1696 1.556117,0 2.8176,1.419078 2.8176,3.1696 z" color="#000000" fill="#fff" fill-rule="evenodd" stroke="#000" stroke-linecap="square"/>
 <path id="OUT" d="m90 30h-5v40h-10" color="#000000" fill="none" stroke="#000" stroke-linecap="square" stroke-width=".99913"/>
 <rect id="LUT" x="45" y="40" width="35" height="60" fill="#e6e6e6" stroke="#000"/>
 <path id="OR" d="m45 40c5 10 10 15 10 30s-5 20-10 30h15c15 0 20-16.217 20-30s-5-30-20-30z" color="#000000" fill="#e6e6e6" fill-rule="evenodd" stroke="#000" stroke-linecap="square" stroke-width=".99516"/>
 <path id="AND" d="m50 40c0 15-0.0076 12.569 0 30s0 20 0 30h10c15 0 20-16.217 20-30s-5-30-20-30h-10z" color="#000000" fill="#e6e6e6" fill-rule="evenodd" stroke="#000" stroke-linecap="square" stroke-width=".99516"/>
 <g id="NOT" transform="translate(-.0012096 108)" fill-rule="evenodd" stroke="#000" stroke-linecap="square">
  <path d="m45-68v60l35-30z" color="#000000" fill="#e6e6e6" stroke-width=".99516"/>
  <circle cx="80" cy="-38" r="3" d="m 83,-38 c 0,1.656854 -1.343146,3 -3,3 -1.656854,0 -3,-1.343146 -3,-3 0,-1.656854 1.343146,-3 3,-3 1.656854,0 3,1.343146 3,3 z" color="#000000" fill="#fff"/>
 </g>
</svg>
