<svg version="1.1" viewBox="0 0 120 140" xmlns="http://www.w3.org/2000/svg">
 <path d="m57.119 30h-20" fill="none" stroke="#000" stroke-width="1px"/>
 <path d="m57.119 50h-20" fill="none" stroke="#000" stroke-width="1px"/>
 <path d="m57.119 70h-20" fill="none" stroke="#000" stroke-width="1px"/>
 <path d="m57.119 90h-20" fill="none" stroke="#000" stroke-width="1px"/>
 <path d="m57.119 110h-20" fill="none" stroke="#000" stroke-width="1px"/>
 <path d="m57.119 130h-20" fill="none" stroke="#000" stroke-width="1px"/>
 <rect transform="scale(-1,1)" x="-72.119" y="21" width="20" height="118" fill="#e6e6e6" stroke="#000"/>
 <path d="m82.119 37h-17c-5 0-8 5-8 10v66c0 5 3 10 8 10h17" fill="#e6e6e6" fill-rule="evenodd" stroke="#000" stroke-width="1px"/>
 <path d="m82.119 37c-5 0-8 5-8 10v66c0 5 3 10 8 10 3 0 5-2 5-5v-76c0-3.001-2-5-5-5z" fill="#e6e6e6" fill-rule="evenodd" stroke="#000" stroke-width="1px"/>
 <ellipse cx="77.119" cy="80" rx="1.5" ry="2.75"/>
 <ellipse cx="82.119" cy="45" rx="1.5" ry="2.75"/>
 <ellipse cx="77.119" cy="70" rx="1.5" ry="2.75"/>
 <ellipse cx="77.119" cy="60" rx="1.5" ry="2.75"/>
 <ellipse cx="77.119" cy="50" rx="1.5" ry="2.75"/>
 <ellipse cx="77.119" cy="110" rx="1.5" ry="2.75"/>
 <ellipse cx="77.119" cy="100" rx="1.5" ry="2.75"/>
 <ellipse cx="77.119" cy="90" rx="1.5" ry="2.75"/>
 <ellipse cx="82.119" cy="95" rx="1.5" ry="2.75"/>
 <ellipse cx="82.119" cy="85" rx="1.5" ry="2.75"/>
 <ellipse cx="82.119" cy="75" rx="1.5" ry="2.75"/>
 <ellipse cx="82.119" cy="65" rx="1.5" ry="2.75"/>
 <ellipse cx="82.119" cy="115" rx="1.5" ry="2.75"/>
 <ellipse cx="82.119" cy="105" rx="1.5" ry="2.75"/>
 <ellipse cx="82.119" cy="55" rx="1.5" ry="2.75"/>
 <path d="m67.119 134h-5c-1 0-2-2-2-4s1-4 2-4h5" fill="#e6e6e6" stroke="#000"/>
 <ellipse cx="67.119" cy="130" rx="2" ry="4" fill="#e6e6e6" stroke="#000"/>
 <path d="m66.119 34h-4c-1 0-2-2-2-4s1-4 2-4h5" fill="#e6e6e6" stroke="#000"/>
 <ellipse cx="67.119" cy="30" rx="2" ry="4" fill="#e6e6e6" stroke="#000"/>
</svg>
