<svg width="60px" height="60px" version="1.1" viewBox="0 0 100 100" xmlns="http://www.w3.org/2000/svg">
 <g transform="translate(0 -952.36)">
  <path d="m36.286 1027.4c-10.894-2.8041-16.771-8.5819-16.771-20.944 0-5.5508 3.147-12.553 5.7043-17.104 5.5927-9.9542 12.666-19.546 25.641-19.546s20.048 9.5914 25.641 19.546c2.5573 4.5516 5.7043 11.554 5.7043 17.104 0 10.618-10.367 17.816-18.512 21.007" fill="#fff" stroke="#000" stroke-linecap="round" stroke-linejoin="round" stroke-width=".95742"/>
  <path d="m62.343 1004.1c3.8578 3.2049 5.4138 7.9127 5.4138 13.12 0 5.9711-2.9428 10.389-7.5678 12.284-3.2092 5.5874-5.7278 7.305-10.147 7.305-4.4187 0-7.8655-1.7559-10.137-7.2956-4.6637-1.8486-7.663-6.3115-7.663-12.294 0-5.2928 1.5116-9.9118 5.4802-13.12" fill="#fff" stroke="#000" stroke-width=".82163"/>
  <path d="m57.462 1017.5c-6.7857 2.9265-3.2779 5.1785-7.3214 5.1785s-1.1607-2.0734-7.3214-5.1785c-1.4972-0.7546 3.2779-3.0357 7.3214-3.0357s7.3214 1.3591 7.3214 3.0357z"/>
  <path d="m40.431 973.63c0 5.8579-8.4634 11.49-12.374 14.268-4.3209 3.0691-10.607-2.3496-10.607-8.2075s7.0744-17.299 12.374-17.299c5.3 0 10.607 5.3801 10.607 11.238z"/>
  <path d="m60.862 973.63c0 5.8579 8.4634 11.49 12.374 14.268 4.3209 3.0691 10.607-2.3496 10.607-8.2075s-7.0744-17.299-12.374-17.299-10.607 5.3801-10.607 11.238z"/>
  <path d="m61.495 1028.8s-0.9437 3.714-11.495 3.7236c-10.421 0.01-11.495-3.7236-11.495-3.7236s6.2841 1.9996 9.7475 0c1.4139-1.4139 1.748-6.143 1.748-6.143s0.33502 4.7303 1.7477 6.143c3.4635 1.9996 9.7256 0.01 9.7256 0.01l0.02209-0.01z" color="#000000" fill-rule="evenodd"/>
  <path d="m0.68214 1030.6c0.2585-1.5026 0.51701-2.911 0.77551-4.1439 0.2585-1.233 0.51701-2.2894 0.77551-3.1193 0.2585-0.8298 0.51701-1.4317 0.77551-1.7898 0.2585-0.358 0.51701-0.4709 0.77551-0.3556s0.51701 0.4598 0.77551 0.9885 0.51701 1.2422 0.77551 2.0756 0.51701 1.7868 0.77551 2.7853 0.51701 2.0417 0.77551 3.0552 0.51701 1.9966 0.77551 2.8848 0.51701 1.6807 0.77551 2.3309 0.51701 1.1571 0.77551 1.4969c0.2585 0.3397 0.51701 0.5115 0.77551 0.5157 0.2585 0 0.51701-0.1598 0.77551-0.4688s0.51701-0.7635 0.77551-1.3221 0.51701-1.2214 0.77551-1.9357c0.2585-0.7144 0.51701-1.48 0.77551-2.2407s0.51701-1.5158 0.77551-2.2135 0.51701-1.3373 0.77551-1.8779c0.2585-0.5407 0.51701-0.9815 0.77551-1.298 0.2585-0.3166 0.51701-0.5079 0.77551-0.5681 0.2585-0.06 0.51701 0.011 0.77551 0.2021 0.2585 0.1908 0.51701 0.5013 0.77551 0.9031s0.51701 0.8952 0.77551 1.4406 0.51701 1.1428 0.77551 1.7475c0.2585 0.6048 0.51701 1.2167 0.77551 1.7924 0.2585 0.5758 0.51701 1.1148 0.77551 1.5814 0.2585 0.4665 0.51701 0.8599 0.77551 1.1562 0.2585 0.2962 0.51701 0.4947 0.77551 0.5864 0.2585 0.092 0.51701 0.076 0.77551-0.041s0.51701-0.3355 0.77551-0.6354c0.2585-0.3 0.51701-0.6815 0.77551-1.1141 0.2585-0.4325 0.51701-0.916 0.77551-1.4141s0.51701-1.0105 0.77551-1.5006 0.51701-0.9574 0.77551-1.37 0.51701-0.7699 0.77551-1.0491c0.2585-0.2793 0.51701-0.4799 0.77551-0.5911s0.51701-0.1324 0.77551-0.066c0.2585 0.066 0.51701 0.221 0.77551 0.449s0.51701 0.5298 0.77551 0.881 0.51701 0.7518 0.77551 1.1716c0.2585 0.4199 0.51701 0.8586 0.77551 1.2846s0.51701 0.8388 0.77551 1.2098 0.51701 0.6997 0.77551 0.9644c0.2585 0.2648 0.51701 0.4651 0.77551 0.5892s0.51701 0.1716 0.77551 0.1419c0.2585-0.03 0.51701-0.137 0.77551-0.3113 0.2585-0.1744 0.51701-0.416 0.77551-0.7054s0.51701-0.6266 0.77551-0.986 1.2683-1.5363 1.7036-1.912" fill="none" stroke="#fff" stroke-linecap="round" stroke-linejoin="round" stroke-width="1.6" title="sin(x)*3*pi/x"/>
  <path d="m58.867 1030.2h13.837c0.01128 0 0.02257-6.3125 0.03385-6.3125h2.3354c0.01128 0 0.02257 6.3125 0.03385 6.3125h7.1078c0.01128 0 0.02257-6.3125 0.03385-6.3125h2.3354c0.01127 0 0.02257 6.3125 0.03384 6.3125h7.1078c0.01127 0 0.02257-6.3125 0.03384-6.3125h2.3693c0.01128 0 0.02257 6.3125 0.03385 6.3125h5.2124" fill="none" stroke="#fff" stroke-linecap="round" stroke-linejoin="round" stroke-width="1.5" title="x%2&gt;1.5"/>
  <path d="m45.089 996.17c0 1.9229-0.87741 3.9812-2.7155 4.307-2.7799 0.4925-3.4654 4.3537-5.6327 4.3537-3.6244 0-4.6875-1.2883-4.6875-6.0714 0-1.7872 2.0985-3.1987 3.2387-4.2657 1.9113-1.7886 3.9108-5.3771 6.1809-5.3771 3.6244 0 3.6161 2.2704 3.6161 7.0536z" stroke="#000" stroke-linecap="round" stroke-linejoin="round"/>
  <path d="m55.268 996.17c0 1.9229 0.87741 3.9812 2.7155 4.307 2.7799 0.4925 3.4654 4.3537 5.6327 4.3537 3.6244 0 4.6875-1.2883 4.6875-6.0714 0-1.7872-2.0985-3.1987-3.2387-4.2657-1.9113-1.7886-3.9108-5.3771-6.1809-5.3771-3.6244 0-3.6161 2.2704-3.6161 7.0536z" stroke="#000" stroke-linecap="round" stroke-linejoin="round"/>
 </g>
</svg>
