<?xml version="1.0" encoding="UTF-8" standalone="no"?>
<!-- Created with Inkscape (http://www.inkscape.org/) -->

<svg
   xmlns:dc="http://purl.org/dc/elements/1.1/"
   xmlns:cc="http://creativecommons.org/ns#"
   xmlns:rdf="http://www.w3.org/1999/02/22-rdf-syntax-ns#"
   xmlns:svg="http://www.w3.org/2000/svg"
   xmlns="http://www.w3.org/2000/svg"
   xmlns:sodipodi="http://sodipodi.sourceforge.net/DTD/sodipodi-0.dtd"
   xmlns:inkscape="http://www.inkscape.org/namespaces/inkscape"
   width="120"
   height="60"
   id="svg2816"
   version="1.1"
   inkscape:version="0.47 r22583"
   sodipodi:docname="TTLIN.svg">
  <defs
     id="defs2818" />
  <sodipodi:namedview
     id="base"
     pagecolor="#ffffff"
     bordercolor="#666666"
     borderopacity="1.0"
     inkscape:pageopacity="0.0"
     inkscape:pageshadow="2"
     inkscape:zoom="11.78"
     inkscape:cx="51.68748"
     inkscape:cy="30.094414"
     inkscape:current-layer="layer2"
     showgrid="true"
     inkscape:grid-bbox="true"
     inkscape:document-units="px"
     inkscape:window-width="1920"
     inkscape:window-height="1147"
     inkscape:window-x="1920"
     inkscape:window-y="0"
     inkscape:window-maximized="1"
     inkscape:snap-others="false"
     inkscape:snap-grids="true"
     inkscape:snap-to-guides="false"
     showguides="false">
    <inkscape:grid
       type="xygrid"
       id="grid3706"
       empspacing="5"
       visible="true"
       enabled="true"
       snapvisiblegridlinesonly="true" />
  </sodipodi:namedview>
  <metadata
     id="metadata2821">
    <rdf:RDF>
      <cc:Work
         rdf:about="">
        <dc:format>image/svg+xml</dc:format>
        <dc:type
           rdf:resource="http://purl.org/dc/dcmitype/StillImage" />
        <dc:title />
        <dc:creator>
          <cc:Agent>
            <dc:title>Frederic TA</dc:title>
          </cc:Agent>
        </dc:creator>
      </cc:Work>
    </rdf:RDF>
  </metadata>
  <g
     id="layer1"
     inkscape:label="Layer 1"
     inkscape:groupmode="layer"
     transform="translate(0,28)" />
  <g
     inkscape:groupmode="layer"
     id="layer2"
     inkscape:label="Layer 2"
     transform="translate(0,-10)">
    <ellipse
       sodipodi:ry="12.566152"
       sodipodi:rx="5.4927688"
       sodipodi:cy="32.543751"
       sodipodi:cx="-25.927784"
       d="m -20.435015,32.543751 c 0,6.940094 -2.459197,12.566151 -5.492769,12.566151 -3.033572,0 -5.492769,-5.626057 -5.492769,-12.566151 0,-6.940094 2.459197,-12.566152 5.492769,-12.566152 3.033572,0 5.492769,5.626058 5.492769,12.566152 z"
       style="fill:#e6e6e6;fill-opacity:1;fill-rule:evenodd;stroke:#000000;stroke-width:0.60743392px;stroke-linecap:butt;stroke-linejoin:miter;stroke-opacity:1"
       id="path3374-5-0-9"
       cx="-25.927784"
       cy="32.543751"
       rx="5.4927688"
       ry="12.566152"
       transform="matrix(2.0026333,0,0,2.228208,116.92384,-32.514245)" />
    <ellipse
       sodipodi:ry="10.001989"
       sodipodi:rx="4.0110493"
       sodipodi:cy="32.633732"
       sodipodi:cx="-26.621288"
       d="m -22.610239,32.633732 c 0,5.523946 -1.795808,10.001989 -4.011049,10.001989 -2.215242,0 -4.01105,-4.478043 -4.01105,-10.001989 0,-5.523946 1.795808,-10.00199 4.01105,-10.00199 2.215241,0 4.011049,4.478044 4.011049,10.00199 z"
       style="fill:#e6e6e6;fill-rule:evenodd;stroke:#000000;stroke-width:0.56563293999999997px;stroke-linecap:butt;stroke-linejoin:miter;stroke-opacity:1;fill-opacity:1"
       id="path3374-5-9"
       cx="-26.621288"
       cy="32.633732"
       rx="4.0110493"
       ry="10.001989"
       transform="matrix(1.495868,0,0,1.9996023,104.82193,-25.254484)" />
    <rect
       style="fill:#e6e6e6;fill-opacity:1"
       id="rect3429-4"
       width="29.999998"
       height="40"
       x="35"
       y="20" />
    <path
       style="fill:none;stroke:#000000;stroke-width:1.00090218px;stroke-linecap:butt;stroke-linejoin:miter;stroke-opacity:1"
       d="M 65,20 C 35,20 35,20 35,20"
       id="path3419-2"
       inkscape:connector-curvature="0" />
    <path
       style="fill:none;stroke:#000000;stroke-width:1.00090218px;stroke-linecap:butt;stroke-linejoin:miter;stroke-opacity:1"
       d="M 64.999999,60 C 35,60 35,60 35,60"
       id="path3421-3"
       inkscape:connector-curvature="0" />
    <ellipse
       sodipodi:ry="0.73627424"
       sodipodi:rx="0.70906204"
       sodipodi:cy="32.671085"
       sodipodi:cx="-35.686481"
       d="m -34.977419,32.671085 c 0,0.406633 -0.317458,0.736275 -0.709062,0.736275 -0.391605,0 -0.709063,-0.329642 -0.709063,-0.736275 0,-0.406633 0.317458,-0.736274 0.709063,-0.736274 0.391604,0 0.709062,0.329641 0.709062,0.736274 z"
       style="fill:#000000;fill-rule:evenodd;stroke:#000000;stroke-width:0.05729416px;stroke-linecap:butt;stroke-linejoin:miter;stroke-opacity:1"
       id="path3374-56-9"
       cx="-35.686481"
       cy="32.671085"
       rx="0.70906204"
       ry="0.73627424"
       transform="matrix(1.9650388,0,0,1.9306069,119.12532,-32.496479)" />
    <ellipse
       sodipodi:ry="0.73627424"
       sodipodi:rx="0.70906204"
       sodipodi:cy="33.337044"
       sodipodi:cx="-35.039249"
       d="m -34.330187,33.337044 c 0,0.406633 -0.317458,0.736274 -0.709062,0.736274 -0.391605,0 -0.709062,-0.329641 -0.709062,-0.736274 0,-0.406633 0.317457,-0.736274 0.709062,-0.736274 0.391604,0 0.709062,0.329641 0.709062,0.736274 z"
       style="fill:#ffffff;fill-opacity:1;fill-rule:evenodd;stroke:none"
       id="path3374-56-7-0"
       cx="-35.039249"
       cy="33.337044"
       rx="0.70906204"
       ry="0.73627424"
       transform="matrix(1.9650388,0,0,1.9306069,118.85348,-34.782183)" />
    <path
       style="fill:none;stroke:#000000;stroke-width:1px;stroke-linecap:butt;stroke-linejoin:miter;stroke-opacity:1"
       d="m 76,40 14,0"
       id="path2843"
       sodipodi:nodetypes="cc" />
    <ellipse
       sodipodi:ry="10.001989"
       sodipodi:rx="4.0110493"
       sodipodi:cy="32.633732"
       sodipodi:cx="-26.621288"
       d="m -22.610239,32.633732 c 0,5.523946 -1.795808,10.001989 -4.011049,10.001989 -2.215242,0 -4.01105,-4.478043 -4.01105,-10.001989 0,-5.523946 1.795808,-10.00199 4.01105,-10.00199 2.215241,0 4.011049,4.478044 4.011049,10.00199 z"
       style="fill:#e6e6e6;fill-rule:evenodd;stroke:#000000;stroke-width:0.56563293999999997px;stroke-linecap:butt;stroke-linejoin:miter;stroke-opacity:1;fill-opacity:1"
       id="path3374-5-9-9"
       cx="-26.621288"
       cy="32.633732"
       rx="4.0110493"
       ry="10.001989"
       transform="matrix(1.495868,0,0,1.9996023,74.821933,-25.254485)" />
    <ellipse
       sodipodi:ry="10.001989"
       sodipodi:rx="4.0110493"
       sodipodi:cy="32.633732"
       sodipodi:cx="-26.621288"
       d="m -22.610239,32.633732 c 0,5.523946 -1.795808,10.001989 -4.011049,10.001989 -2.215242,0 -4.01105,-4.478043 -4.01105,-10.001989 0,-5.523946 1.795808,-10.00199 4.01105,-10.00199 2.215241,0 4.011049,4.478044 4.011049,10.00199 z"
       style="fill:#ffffff;fill-rule:evenodd;stroke:#000000;stroke-width:1.13126587999999995px;stroke-linecap:butt;stroke-linejoin:miter;stroke-opacity:1;fill-opacity:1"
       id="path3374-5-9-9-2"
       cx="-26.621288"
       cy="32.633732"
       rx="4.0110493"
       ry="10.001989"
       transform="matrix(0.74793412,0,0,0.99980113,57.91097,7.372758)" />
    <circle
       sodipodi:ry="1"
       sodipodi:rx="1"
       sodipodi:cy="32.772594"
       sodipodi:cx="40.368824"
       d="m 41.368824,32.772594 c 0,0.552285 -0.447715,1 -1,1 -0.552285,0 -1,-0.447715 -1,-1 0,-0.552284 0.447715,-1 1,-1 0.552285,0 1,0.447716 1,1 z"
       style="fill:#000000;stroke:none;stroke-opacity:1;stroke-width:0.38490017999999998;stroke-miterlimit:4;stroke-dasharray:none;fill-opacity:1"
       id="path3456"
       cx="40.368824"
       cy="32.772594"
       r="1"
       transform="matrix(-1.5,0,0,4.5,100.05324,-107.47668)" />
  </g>
</svg>
