<svg version="1.1" viewBox="0 0 120 60" xmlns="http://www.w3.org/2000/svg">
 <ellipse transform="matrix(2.0026,0,0,2.2282,116.92,-42.514)" cx="-25.928" cy="32.544" rx="5.4928" ry="12.566" d="m -20.435199,32.543999 c 0,6.94001 -2.459211,12.566 -5.4928,12.566 -3.03359,0 -5.492801,-5.62599 -5.492801,-12.566 0,-6.94001 2.459211,-12.566 5.492801,-12.566 3.033589,0 5.4928,5.62599 5.4928,12.566 z" fill="#e6e6e6" fill-rule="evenodd" stroke="#000" stroke-width=".60743px"/>
 <ellipse transform="matrix(1.4959,0,0,1.9996,104.82,-35.254)" cx="-26.621" cy="32.634" rx="4.011" ry="10.002" d="m -22.61,32.633999 c 0,5.523952 -1.795786,10.002 -4.011,10.002 -2.215215,0 -4.011,-4.478048 -4.011,-10.002 0,-5.523952 1.795785,-10.002 4.011,-10.002 2.215214,0 4.011,4.478048 4.011,10.002 z" fill="#e6e6e6" fill-rule="evenodd" stroke="#000" stroke-width=".56563px"/>
 <rect x="35" y="10" width="30" height="40" fill="#e6e6e6"/>
 <path d="m65 10h-30" fill="none" stroke="#000" stroke-width="1.0009px"/>
 <path d="m65 50h-30" fill="none" stroke="#000" stroke-width="1.0009px"/>
 <ellipse transform="matrix(1.965,0,0,1.9306,119.13,-42.496)" cx="-35.686" cy="32.671" rx=".70906" ry=".73627" d="m -34.976941,32.671001 c 0,0.406631 -0.317457,0.73627 -0.70906,0.73627 -0.391603,0 -0.70906,-0.329639 -0.70906,-0.73627 0,-0.40663 0.317457,-0.73627 0.70906,-0.73627 0.391603,0 0.70906,0.32964 0.70906,0.73627 z" fill-rule="evenodd" stroke="#000" stroke-width=".057294px"/>
 <ellipse transform="matrix(1.965,0,0,1.9306,118.85,-44.782)" cx="-35.039" cy="33.337" rx=".70906" ry=".73627" d="m -34.329941,33.337002 c 0,0.40663 -0.317457,0.73627 -0.70906,0.73627 -0.391603,0 -0.70906,-0.32964 -0.70906,-0.73627 0,-0.406631 0.317457,-0.73627 0.70906,-0.73627 0.391603,0 0.70906,0.329639 0.70906,0.73627 z" fill="#fff" fill-rule="evenodd"/>
 <path d="m76 30h14" fill="none" stroke="#000" stroke-width="1px"/>
 <ellipse transform="matrix(1.4959,0,0,1.9996,74.822,-35.254)" cx="-26.621" cy="32.634" rx="4.011" ry="10.002" d="m -22.61,32.633999 c 0,5.523952 -1.795786,10.002 -4.011,10.002 -2.215215,0 -4.011,-4.478048 -4.011,-10.002 0,-5.523952 1.795785,-10.002 4.011,-10.002 2.215214,0 4.011,4.478048 4.011,10.002 z" fill="#e6e6e6" fill-rule="evenodd" stroke="#000" stroke-width=".56563px"/>
 <ellipse transform="matrix(.74793 0 0 .9998 57.911 -2.6272)" cx="-26.621" cy="32.634" rx="4.011" ry="10.002" d="m -22.61,32.633999 c 0,5.523952 -1.795786,10.002 -4.011,10.002 -2.215215,0 -4.011,-4.478048 -4.011,-10.002 0,-5.523952 1.795785,-10.002 4.011,-10.002 2.215214,0 4.011,4.478048 4.011,10.002 z" fill="#fff" fill-rule="evenodd" stroke="#000" stroke-width="1.1313px"/>
 <circle transform="matrix(-1.5,0,0,4.5,100.05,-117.48)" cx="40.369" cy="32.773" r="1" d="m 41.368999,32.772999 c 0,0.552285 -0.447715,1 -1,1 -0.552284,0 -1,-0.447715 -1,-1 0,-0.552285 0.447716,-1 1,-1 0.552285,0 1,0.447715 1,1 z"/>
</svg>
