<?xml version="1.0" encoding="UTF-8" standalone="no"?>
<!DOCTYPE svg PUBLIC "-//W3C//DTD SVG 1.1//EN"
 "http://www.w3.org/Graphics/SVG/1.1/DTD/svg11.dtd">
<!-- Generated by graphviz version 2.43.0 (0)
 -->
<!-- Title: controllers_and_parts Pages: 1 -->
<svg width="273pt" height="226pt"
 viewBox="0.00 0.00 273.00 226.00" xmlns="http://www.w3.org/2000/svg" xmlns:xlink="http://www.w3.org/1999/xlink">
<g id="graph0" class="graph" transform="scale(1 1) rotate(0) translate(4 222)">
<title>controllers_and_parts</title>
<g id="clust1" class="cluster">
<title>cluster_control</title>
<polygon fill="transparent" stroke="black" points="8,-8 8,-153 84,-153 84,-8 8,-8"/>
<text text-anchor="middle" x="46" y="-15.2" font-family="Arial" font-size="11.00">Control</text>
</g>
<g id="clust2" class="cluster">
<title>cluster_view</title>
<polygon fill="transparent" stroke="black" points="109,-8 109,-153 257,-153 257,-8 109,-8"/>
<text text-anchor="middle" x="183" y="-15.2" font-family="Arial" font-size="11.00">View</text>
</g>
<!-- Controller -->
<g id="node1" class="node">
<title>Controller</title>
<polygon fill="#8bc4e9" stroke="black" points="75.5,-145 16.5,-145 16.5,-109 75.5,-109 75.5,-145"/>
<text text-anchor="middle" x="46" y="-124.5" font-family="Arial" font-size="10.00">Controller</text>
</g>
<!-- Parts -->
<g id="node2" class="node">
<title>Parts</title>
<polygon fill="#8bc4e9" stroke="black" points="73,-72 19,-72 19,-36 73,-36 73,-72"/>
<text text-anchor="middle" x="46" y="-51.5" font-family="Arial" font-size="10.00">Parts</text>
</g>
<!-- Controller&#45;&gt;Parts -->
<g id="edge1" class="edge">
<title>Controller&#45;&gt;Parts</title>
<path fill="none" stroke="black" d="M46,-108.81C46,-97.65 46,-83.16 46,-72.03"/>
</g>
<!-- Block -->
<g id="node3" class="node">
<title>Block</title>
<polygon fill="#8bc4e9" stroke="black" points="187,-145 133,-145 133,-109 187,-109 187,-145"/>
<text text-anchor="middle" x="160" y="-124.5" font-family="Arial" font-size="10.00">Block</text>
</g>
<!-- Controller&#45;&gt;Block -->
<g id="edge5" class="edge">
<title>Controller&#45;&gt;Block</title>
<path fill="none" stroke="black" stroke-dasharray="5,2" d="M75.65,-127C90.02,-127 107.42,-127 122.68,-127"/>
<polygon fill="black" stroke="black" points="132.84,-127 122.84,-131.5 127.84,-127 122.84,-127 122.84,-127 122.84,-127 127.84,-127 122.84,-122.5 132.84,-127 132.84,-127"/>
<text text-anchor="middle" x="104.25" y="-133" font-family="Arial" font-size="10.00">produces</text>
</g>
<!-- Methods -->
<g id="node4" class="node">
<title>Methods</title>
<polygon fill="#8bc4e9" stroke="black" points="171,-72 117,-72 117,-36 171,-36 171,-72"/>
<text text-anchor="middle" x="144" y="-51.5" font-family="Arial" font-size="10.00">Methods</text>
</g>
<!-- Block&#45;&gt;Methods -->
<g id="edge2" class="edge">
<title>Block&#45;&gt;Methods</title>
<path fill="none" stroke="black" d="M156.13,-108.81C153.61,-97.65 150.35,-83.16 147.84,-72.03"/>
</g>
<!-- Attributes -->
<g id="node5" class="node">
<title>Attributes</title>
<polygon fill="#8bc4e9" stroke="black" points="248.5,-72 189.5,-72 189.5,-36 248.5,-36 248.5,-72"/>
<text text-anchor="middle" x="219" y="-51.5" font-family="Arial" font-size="10.00">Attributes</text>
</g>
<!-- Block&#45;&gt;Attributes -->
<g id="edge3" class="edge">
<title>Block&#45;&gt;Attributes</title>
<path fill="none" stroke="black" d="M174.28,-108.81C183.56,-97.65 195.6,-83.16 204.85,-72.03"/>
</g>
<!-- Process -->
<g id="node6" class="node">
<title>Process</title>
<polygon fill="#8bc4e9" stroke="black" points="73,-218 19,-218 19,-182 73,-182 73,-218"/>
<text text-anchor="middle" x="46" y="-197.5" font-family="Arial" font-size="10.00">Process</text>
</g>
<!-- Process&#45;&gt;Controller -->
<g id="edge4" class="edge">
<title>Process&#45;&gt;Controller</title>
<path fill="none" stroke="black" d="M46,-181.81C46,-170.65 46,-156.16 46,-145.03"/>
</g>
</g>
</svg>
