<?xml version="1.0" encoding="UTF-8" standalone="no"?>
<!DOCTYPE svg PUBLIC "-//W3C//DTD SVG 1.1//EN"
 "http://www.w3.org/Graphics/SVG/1.1/DTD/svg11.dtd">
<!-- Generated by graphviz version 2.43.0 (0)
 -->
<!-- Title: motion_child_connections Pages: 1 -->
<svg width="259pt" height="380pt"
 viewBox="0.00 0.00 259.00 380.00" xmlns="http://www.w3.org/2000/svg" xmlns:xlink="http://www.w3.org/1999/xlink">
<g id="graph0" class="graph" transform="scale(1 1) rotate(0) translate(4 376)">
<title>motion_child_connections</title>
<g id="clust1" class="cluster">
<title>cluster_device</title>
<polygon fill="lightgrey" stroke="lightgrey" points="8,-204 8,-364 243,-364 243,-204 8,-204"/>
<text text-anchor="middle" x="125.5" y="-352" font-family="Arial" font-size="10.00">Device Layer</text>
</g>
<g id="clust2" class="cluster">
<title>cluster_motion</title>
<polygon fill="white" stroke="white" points="16,-212 16,-337 235,-337 235,-212 16,-212"/>
<text text-anchor="middle" x="125.5" y="-325" font-family="Arial" font-size="10.00">MOTION</text>
</g>
<g id="clust3" class="cluster">
<title>cluster_hardware</title>
<polygon fill="lightgrey" stroke="lightgrey" points="14,-8 14,-168 238,-168 238,-8 14,-8"/>
<text text-anchor="middle" x="126" y="-156" font-family="Arial" font-size="10.00">Hardware Layer</text>
</g>
<g id="clust4" class="cluster">
<title>cluster_counterx</title>
<polygon fill="white" stroke="white" points="22,-16 22,-141 122,-141 122,-16 22,-16"/>
<text text-anchor="middle" x="72" y="-129" font-family="Arial" font-size="10.00">COUNTERX</text>
</g>
<g id="clust5" class="cluster">
<title>cluster_countery</title>
<polygon fill="white" stroke="white" points="130,-16 130,-141 230,-141 230,-16 130,-16"/>
<text text-anchor="middle" x="180" y="-129" font-family="Arial" font-size="10.00">COUNTERY</text>
</g>
<!-- motion_c -->
<g id="node1" class="node">
<title>motion_c</title>
<polygon fill="#8bc4e9" stroke="black" points="173,-310 77,-310 77,-274 173,-274 173,-310"/>
<text text-anchor="middle" x="125" y="-289.5" font-family="Arial" font-size="10.00">ManagerController</text>
</g>
<!-- x -->
<g id="node2" class="node">
<title>x</title>
<polygon fill="#8bc4e9" stroke="black" points="116.5,-256 23.5,-256 23.5,-220 116.5,-220 116.5,-256"/>
<text text-anchor="start" x="31.5" y="-241" font-family="Arial" font-size="10.00">CounterMovePart</text>
<text text-anchor="start" x="50" y="-230" font-family="Arial" font-size="10.00">name: &#39;x&#39;</text>
</g>
<!-- motion_c&#45;&gt;x -->
<!-- y -->
<g id="node3" class="node">
<title>y</title>
<polygon fill="#8bc4e9" stroke="black" points="227.5,-256 134.5,-256 134.5,-220 227.5,-220 227.5,-256"/>
<text text-anchor="start" x="142.5" y="-241" font-family="Arial" font-size="10.00">CounterMovePart</text>
<text text-anchor="start" x="161" y="-230" font-family="Arial" font-size="10.00">name: &#39;y&#39;</text>
</g>
<!-- motion_c&#45;&gt;y -->
<!-- counterx_c -->
<g id="node4" class="node">
<title>counterx_c</title>
<polygon fill="#8bc4e9" stroke="black" points="113.5,-114 30.5,-114 30.5,-78 113.5,-78 113.5,-114"/>
<text text-anchor="middle" x="72" y="-93.5" font-family="Arial" font-size="10.00">BasicController</text>
</g>
<!-- x&#45;&gt;counterx_c -->
<g id="edge5" class="edge">
<title>x&#45;&gt;counterx_c</title>
<path fill="none" stroke="black" stroke-dasharray="5,2" d="M70.25,-219.83C70.49,-202.76 70.88,-175.66 71.22,-151.25"/>
<polygon fill="black" stroke="black" points="71.37,-141 75.73,-151.06 71.3,-146 71.23,-151 71.23,-151 71.23,-151 71.3,-146 66.73,-150.93 71.37,-141 71.37,-141"/>
</g>
<!-- countery_c -->
<g id="node6" class="node">
<title>countery_c</title>
<polygon fill="#8bc4e9" stroke="black" points="221.5,-114 138.5,-114 138.5,-78 221.5,-78 221.5,-114"/>
<text text-anchor="middle" x="180" y="-93.5" font-family="Arial" font-size="10.00">BasicController</text>
</g>
<!-- y&#45;&gt;countery_c -->
<g id="edge6" class="edge">
<title>y&#45;&gt;countery_c</title>
<path fill="none" stroke="black" stroke-dasharray="5,2" d="M180.88,-219.83C180.76,-202.76 180.56,-175.66 180.39,-151.25"/>
<polygon fill="black" stroke="black" points="180.31,-141 184.89,-150.96 180.35,-146 180.39,-151 180.39,-151 180.39,-151 180.35,-146 175.89,-151.03 180.31,-141 180.31,-141"/>
</g>
<!-- counterx_p -->
<g id="node5" class="node">
<title>counterx_p</title>
<polygon fill="#8bc4e9" stroke="black" points="106.5,-60 37.5,-60 37.5,-24 106.5,-24 106.5,-60"/>
<text text-anchor="middle" x="72" y="-39.5" font-family="Arial" font-size="10.00">CounterPart</text>
</g>
<!-- counterx_c&#45;&gt;counterx_p -->
<!-- countery_p -->
<g id="node7" class="node">
<title>countery_p</title>
<polygon fill="#8bc4e9" stroke="black" points="214.5,-60 145.5,-60 145.5,-24 214.5,-24 214.5,-60"/>
<text text-anchor="middle" x="180" y="-39.5" font-family="Arial" font-size="10.00">CounterPart</text>
</g>
<!-- countery_c&#45;&gt;countery_p -->
</g>
</svg>
